<svg class="icon work-icon fade fadeLeft" width="239" height="239" viewBox="0 0 239 239" fill="none" xmlns="http://www.w3.org/2000/svg" style="translate: none; rotate: none; scale: none; transform: translate(0px, 0px); opacity: 1; visibility: inherit;">
                        <path class="background" d="M0 16C0 7.16345 7.16344 0 16 0H223C231.837 0 239 7.16344 239 16V223C239 231.837 231.837 239 223 239H16C7.16345 239 0 231.837 0 223V16Z" fill="#FF6100"/>
                        <path class="surface" d="M79.5009 200.986H112.73C114.366 200.986 115.63 199.57 115.465 197.949C111.741 158.865 80.3942 127.738 41.2143 124.344C39.5926 124.206 38.2047 125.457 38.2047 127.079V160.267C38.2047 161.614 39.1804 162.768 40.5134 162.974C59.0383 165.75 73.7428 180.29 76.7936 198.705C77.0135 200.024 78.1679 200.972 79.4872 200.972L79.5009 200.986Z" fill="#FFF7F8"/>
                        <path class="color" d="M116.029 112.636V79.4887C116.029 78.1282 115.025 76.96 113.679 76.7814C94.6452 74.2253 79.4872 59.2597 76.6425 40.3087C76.4501 38.9757 75.282 38 73.9352 38H40.747C39.1254 38 37.8611 39.4017 38.0123 41.0234C41.4479 80.6568 73.3031 112.292 113.033 115.384C114.641 115.508 116.029 114.257 116.029 112.636Z" fill="#080F0F"/>
                        <path class="color" d="M162.849 198.719C165.9 180.304 180.605 165.75 199.13 162.988C200.463 162.782 201.438 161.628 201.438 160.281V127.093C201.438 125.471 200.037 124.207 198.429 124.358C159.263 127.752 127.902 158.879 124.178 197.963C124.027 199.585 125.291 201 126.913 201H160.142C161.475 201 162.629 200.052 162.836 198.732L162.849 198.719Z" fill="#080F0F"/>
                        <path class="surface" d="M198.896 38H165.708C164.361 38 163.207 38.9757 163.001 40.3087C160.17 59.2597 144.998 74.2253 125.964 76.7814C124.618 76.96 123.615 78.1282 123.615 79.4887V112.636C123.615 114.243 125.002 115.508 126.61 115.384C166.354 112.278 198.195 80.6568 201.631 41.0234C201.768 39.4017 200.518 38 198.896 38Z" fill="#FFF7F8"/>
                    </svg>