<?xml version="1.0" standalone="no"?>
<!DOCTYPE svg PUBLIC "-//W3C//DTD SVG 1.1//EN" "http://www.w3.org/Graphics/SVG/1.1/DTD/svg11.dtd" >
<svg xmlns="http://www.w3.org/2000/svg" xmlns:xlink="http://www.w3.org/1999/xlink" version="1.1">
<metadata>
Created by FontForge 20230101 at Fri Mar  6 21:37:28 2020
 By Unknown
Copyright (c) 2020 by YorgoAndCo. All rights reserved.
</metadata>
<defs>
<font id="FancyCutPro-Regular" horiz-adv-x="1117" >
  <font-face 
    font-family="Fancy Cut Pro"
    font-weight="400"
    font-stretch="normal"
    units-per-em="2048"
    panose-1="0 0 5 0 0 0 0 0 0 0"
    ascent="1475"
    descent="-573"
    x-height="829"
    cap-height="1382"
    bbox="-1309 -660 2328 1852"
    underline-thickness="87"
    underline-position="-390"
    unicode-range="U+0020-FB02"
  />
<missing-glyph horiz-adv-x="1024" 
d="M840 -573h-650v2048h650v-2048zM344 1338v-68h133v-76h-135v-67h340v67h-135v76h135v68h-338zM342 1074v-213h340v69h-135v144h-205zM477 930h-67v74h67v-74zM342 805v-67h135v-76h-135v-68h205v144h135v67h-340zM614 682v-135h-272v-69h340v204h-68zM477 433v-115h70v47
h67v-96h-204v164h-68v-232h340v232h-205zM342 78v-231h340v231h-340zM614 -86h-204v97h204v-97zM342 -200v-68h143l-143 -96v-68h340v68h-209l143 96h66v68h-340z" />
    <glyph glyph-name="f_f" unicode="ff" horiz-adv-x="1291" 
d="M1370 1481v-168h-18q-72 44 -126.5 65t-105.5 21q-79 0 -128.5 -61t-49.5 -175v-274q0 -37 -4 -55l2 -5h322l-17 -86h-305l-2 -4q4 -18 4 -55v-557q0 -40 12 -55t52 -19l135 -12v-41h-504v41l90 10q39 6 51.5 21t12.5 55v616h-424l-2 -4q4 -18 4 -55v-557q0 -29 4 -43
t15.5 -21.5t37.5 -13.5l84 -8v-41h-447v41l91 10q27 4 40 11.5t18 21.5t5 43v616h-166l17 86h149v54q0 152 60 270.5t156.5 184t203.5 65.5q64 0 125 -14v-168h-19q-71 49 -116.5 70.5t-81.5 21.5q-50 0 -90 -26.5t-63 -78.5t-23 -127v-192q0 -37 -4 -55l2 -5h424v78
q0 181 62 314.5t163.5 203.5t218.5 70q60 0 135 -14z" />
    <glyph glyph-name="f_f_i" unicode="ffi" horiz-adv-x="1709" 
d="M1669 41v-41h-452v41l84 8q27 5 40 12.5t18 22t5 43.5v557q0 37 4 55l-2 4h-426l-2 -4q4 -18 4 -55v-557q0 -29 5 -43.5t18 -21.5t41 -11l90 -10v-41h-459v41l90 10q27 4 40.5 11.5t18.5 22t5 42.5v616h-424l-2 -4q4 -18 4 -55v-557q0 -29 4 -43t15.5 -21.5t37.5 -13.5
l84 -8v-41h-447v41l91 10q27 4 40 11.5t18 21.5t5 43v616h-166l17 86h149v54q0 152 60 270.5t156.5 184t203.5 65.5q64 0 125 -14v-168h-19q-71 49 -116.5 70.5t-81.5 21.5q-50 0 -90 -26.5t-63 -78.5t-23 -127v-192q0 -37 -4 -55l2 -5h424v78q0 179 61.5 313t162.5 204.5
t216 70.5q30 0 72 -8v-164h-17q-53 33 -96 50.5t-82 17.5q-73 0 -119.5 -57t-46.5 -169v-276q0 -37 -4 -55l2 -5h576v-702q0 -29 5 -43t18 -21.5t40 -11.5zM1356.5 1108q-28.5 29 -28.5 72t28.5 71.5t71.5 28.5t71.5 -28.5t28.5 -71.5t-28.5 -72t-71.5 -29t-71.5 29z" />
    <glyph glyph-name="f_f_l" unicode="ffl" horiz-adv-x="1735" 
d="M1696 41v-41h-459v41l90 10q39 6 51.5 21t12.5 55v1219l-25 10q-100 35 -192 35q-108 0 -170 -65.5t-62 -188.5v-248q0 -37 -4 -55l2 -5h260l-16 -86h-244l-2 -4q4 -18 4 -55v-557q0 -29 5 -43.5t18 -22t41 -12.5l90 -8v-41h-459v41l90 10q27 4 40.5 11.5t18.5 22t5 42.5
v616h-424l-2 -4q4 -18 4 -55v-557q0 -29 4 -43t15.5 -21.5t37.5 -13.5l84 -8v-41h-447v41l91 10q27 4 40 11.5t18 21.5t5 43v616h-166l17 86h149v54q0 152 60 270.5t156.5 184t203.5 65.5q64 0 125 -14v-168h-19q-71 49 -116.5 70.5t-81.5 21.5q-50 0 -90 -26.5t-63 -78.5
t-23 -127v-192q0 -37 -4 -55l2 -5h424v78q0 178 66.5 309.5t187 201t276.5 69.5h197l24 -12v-1348q0 -40 12 -55t52 -21z" />
    <glyph glyph-name="f_i" unicode="fi" horiz-adv-x="1135" 
d="M1096 41v-41h-453v41l84 8q28 5 41 12.5t18 22t5 43.5v557q0 37 4 55l-2 4h-426l-2 -4q4 -18 4 -55v-557q0 -29 5 -43t18 -21.5t40 -11.5l90 -10v-41h-459v41l91 10q27 4 40 11.5t18 21.5t5 43v616h-166l17 86h149v78q0 179 61.5 313t162.5 204.5t216 70.5q32 0 72 -8
v-164h-16q-54 34 -96.5 51t-81.5 17q-74 0 -120 -57t-46 -169v-276q0 -37 -4 -55l2 -5h575v-702q0 -28 5 -42.5t18.5 -22t40.5 -11.5zM783 1108q-29 29 -29 72t29 71.5t72 28.5t71.5 -28.5t28.5 -71.5t-28.5 -72t-71.5 -29t-72 29z" />
    <glyph glyph-name="f_l" unicode="fl" horiz-adv-x="1161" 
d="M1122 41v-41h-458v41l90 10q39 6 51 21t12 55v1219l-24 10q-102 35 -193 35q-108 0 -169.5 -65.5t-61.5 -188.5v-248q0 -37 -4 -55l2 -5h260l-17 -86h-243l-2 -4q4 -18 4 -55v-557q0 -29 5 -43.5t18 -22t40 -12.5l90 -8v-41h-459v41l91 10q27 4 40 11.5t18 21.5t5 43v616
h-166l17 86h149v78q0 178 67 309.5t187 201t277 69.5h196l25 -12v-1348q0 -40 12 -55t51 -21z" />
    <glyph glyph-name=".notdef" horiz-adv-x="1024" 
d="M840 -573h-650v2048h650v-2048zM344 1338v-68h133v-76h-135v-67h340v67h-135v76h135v68h-338zM342 1074v-213h340v69h-135v144h-205zM477 930h-67v74h67v-74zM342 805v-67h135v-76h-135v-68h205v144h135v67h-340zM614 682v-135h-272v-69h340v204h-68zM477 433v-115h70v47
h67v-96h-204v164h-68v-232h340v232h-205zM342 78v-231h340v231h-340zM614 -86h-204v97h204v-97zM342 -200v-68h143l-143 -96v-68h340v68h-209l143 96h66v68h-340z" />
    <glyph glyph-name=".null" horiz-adv-x="0" 
 />
    <glyph glyph-name="nonmarkingreturn" horiz-adv-x="682" 
 />
    <glyph glyph-name="space" unicode=" " horiz-adv-x="504" 
 />
    <glyph glyph-name="exclam" unicode="!" horiz-adv-x="459" 
d="M158 1076q-21 254 -21 308q0 48 26 78.5t69 30.5q42 0 68 -30t26 -77q0 -39 -9 -156.5t-12 -157.5q-32 -400 -49 -650h-49q-18 264 -49 654zM160 15q-30 29 -30 71q0 43 30 72t73 29t71.5 -29t28.5 -72t-28.5 -71.5t-71.5 -28.5t-73 29z" />
    <glyph glyph-name="quotedbl" unicode="&#x22;" horiz-adv-x="698" 
d="M123 1252q-17 49 -24 77t-7 51q0 49 28.5 77t69.5 28q44 0 71.5 -27.5t27.5 -77.5q0 -24 -7 -51.5t-24 -80.5q-33 -105 -55 -189h-23q-22 88 -57 193zM440 1252q-17 49 -24 77t-7 51q0 49 28.5 77t69.5 28q43 0 70.5 -28t27.5 -77q0 -24 -7 -51.5t-24 -80.5
q-33 -105 -55 -189h-22q-22 88 -57 193z" />
    <glyph glyph-name="numbersign" unicode="#" 
d="M1187 876h-292l-105 -370h275v-54h-290l-129 -452h-56l129 452h-389l-129 -452h-55l129 452h-259v54h274l105 370h-257v54h272l129 452h55l-129 -452h390l129 452h55l-129 -452h277v-54zM734 506l106 370h-390l-105 -370h389z" />
    <glyph glyph-name="dollar" unicode="$" 
d="M1048.5 192.5q-42.5 -79.5 -127.5 -133t-209 -71.5v-123h-49v118q-36 -3 -75 -3q-24 0 -70 2v-117h-49v119q-117 10 -209.5 36t-153.5 64v194h31q59 -104 141 -162.5t191 -77.5v649q-111 42 -187.5 88.5t-124.5 121t-48 181.5q0 134 91 217t269 102v119h49v-115
q38 2 60 2q44 0 85 -3v116h49v-121q171 -21 318 -92v-181h-30q-57 89 -126.5 143t-161.5 75v-563q116 -44 196.5 -92.5t131.5 -126t51 -189.5q0 -97 -42.5 -176.5zM518 1352v-504l91 -33l54 -20v554q-45 5 -85 5q-22 0 -60 -2zM298 978q60 -62 171 -110v480
q-120 -16 -175.5 -69.5t-55.5 -143.5q0 -95 60 -157zM663 31v585l-91 33l-54 20v-638q35 -3 70 -3q39 0 75 3zM896 128.5q62 68.5 62 174.5q0 107 -64.5 174.5t-181.5 118.5v-558q122 22 184 90.5z" />
    <glyph glyph-name="percent" unicode="%" 
d="M180.5 866q-48.5 37 -74 102t-25.5 148q0 86 25.5 151t73.5 100.5t114 35.5q64 0 111.5 -36t73.5 -101t26 -150q0 -83 -26 -148t-74 -102t-111 -37q-65 0 -113.5 37zM958 1382h68l-805 -1382h-65zM389.5 941.5q33.5 62.5 33.5 174.5q0 115 -33 176.5t-96 61.5
q-64 0 -97.5 -61.5t-33.5 -176.5q0 -112 33.5 -174.5t97.5 -62.5q62 0 95.5 62.5zM775.5 16.5q-48.5 36.5 -74 101.5t-25.5 148q0 86 25.5 151t73.5 100.5t114 35.5q64 0 111.5 -36t73.5 -101t26 -150q0 -83 -26 -148t-74 -101.5t-111 -36.5q-65 0 -113.5 36.5zM984.5 91.5
q33.5 62.5 33.5 174.5q0 115 -33 176.5t-96 61.5q-64 0 -97.5 -61.5t-33.5 -176.5q0 -112 33.5 -174.5t97.5 -62.5q62 0 95.5 62.5z" />
    <glyph glyph-name="ampersand" unicode="&#x26;" horiz-adv-x="1557" 
d="M1538 181q-66 -92 -154.5 -146.5t-225.5 -54.5q-159 0 -305 102q-147 -102 -339 -102q-137 0 -235 40.5t-149 115.5t-51 176q0 140 89.5 245t280.5 195q-37 153 -37 276q0 118 44 202.5t124 128.5t187 44q85 0 148.5 -27.5t97 -76t33.5 -110.5q0 -80 -47.5 -148.5
t-140.5 -134t-245 -144.5q49 -160 130.5 -303t182.5 -239q123 137 183 366l25 109q15 35 15 52q0 14 -9.5 21t-31.5 10l-91 10v41h359v-41l-90 -10q-39 -6 -59.5 -24t-41.5 -65l-28 -115q-64 -240 -192 -389q134 -108 269 -108q95 0 157 31.5t120 96.5zM604 1290
q-49 -61 -49 -168q0 -146 45 -314q152 86 223.5 174t71.5 193q0 84 -42.5 130t-116.5 46q-83 0 -132 -61zM806 120q-119 101 -207 257t-137 329q-115 -59 -170.5 -144.5t-55.5 -192.5q0 -150 89.5 -231t247.5 -81q129 0 233 63z" />
    <glyph glyph-name="quotesingle" unicode="'" horiz-adv-x="382" 
d="M144.5 1189q-17.5 55 -20.5 64q-17 51 -24 78t-7 50q0 48 28 76t70 28t70 -27.5t28 -76.5q0 -24 -7 -51t-24 -79q-32 -101 -55 -192h-23q-18 75 -35.5 130z" />
    <glyph glyph-name="parenleft" unicode="(" horiz-adv-x="645" 
d="M229.5 46.5q-133.5 230.5 -133.5 527.5q0 295 134 526.5t381 394.5l26 -32q-369 -328 -369 -889q0 -290 94 -509.5t275 -380.5l-26 -31q-248 163 -381.5 393.5z" />
    <glyph glyph-name="parenright" unicode=")" horiz-adv-x="645" 
d="M283 65q94 218 94 508t-94.5 509.5t-274.5 379.5l25 33q248 -163 382 -394t134 -528t-134 -527.5t-382 -393.5l-25 33q181 162 275 380z" />
    <glyph glyph-name="asterisk" unicode="*" horiz-adv-x="524" 
d="M487.5 1154.5q17.5 -19.5 17.5 -46.5t-19 -44.5t-48 -17.5q-18 0 -31.5 7.5t-21.5 19.5l-87 88l-10 -7l33 -119q6 -12 6 -27q0 -28 -19 -45.5t-48 -17.5q-28 0 -45.5 17.5t-17.5 45.5q0 17 8 33l30 113l-11 7l-85 -87q-9 -13 -24 -20.5t-33 -7.5q-28 0 -45.5 17.5
t-17.5 44.5q0 28 16.5 47.5t42.5 20.5l121 31v13l-124 32q-25 2 -40.5 19.5t-15.5 43.5q0 29 17.5 48t45.5 19q33 0 52 -24l90 -92l11 6l-31 115q-7 16 -7 31q0 29 17.5 48t45.5 19q29 0 48 -19t19 -48q0 -13 -5 -26l-35 -120l11 -7l90 92q8 12 21.5 18.5t28.5 6.5
q29 0 48 -19t19 -48q0 -25 -16.5 -42.5t-42.5 -20.5l-123 -33v-11l121 -32q26 -2 43.5 -21.5z" />
    <glyph glyph-name="plus" unicode="+" 
d="M967 732v-80h-336v-337h-80v337h-336v80h336v335h80v-335h336z" />
    <glyph glyph-name="comma" unicode="," horiz-adv-x="411" 
d="M182 -136.5q46 61.5 51 125.5q-14 -4 -25 -4q-41 0 -69.5 29t-28.5 72t29 72t72 29q47 0 77 -34t30 -101q0 -104 -62.5 -187.5t-178.5 -136.5l-21 30q80 44 126 105.5z" />
    <glyph glyph-name="hyphen" unicode="-" horiz-adv-x="658" 
d="M66 571h526v-67h-526v67z" />
    <glyph glyph-name="period" unicode="." horiz-adv-x="411" 
d="M134 14q-29 29 -29 72t29 72t72 29t72 -29t29 -72t-29 -72t-72 -29t-72 29z" />
    <glyph glyph-name="slash" unicode="/" horiz-adv-x="806" 
d="M656 1475h71l-577 -1946h-70z" />
    <glyph glyph-name="zero" unicode="0" 
d="M311 74q-108 94 -168 257t-60 363q0 204 59.5 365.5t168 252.5t248.5 91t248 -91t167.5 -252.5t59.5 -365.5q0 -200 -59.5 -363t-167.5 -257t-248 -94t-248 94zM783.5 203q70.5 175 70.5 491q0 320 -70 490t-225 170q-156 0 -226 -169.5t-70 -490.5q0 -316 70.5 -491
t225.5 -175q154 0 224.5 175z" />
    <glyph glyph-name="one" unicode="1" horiz-adv-x="693" 
d="M200 51q29 5 42.5 12.5t18.5 22t5 44.5v1120q0 27 -8 36.5t-33 13.5l-117 16v32l300 50l26 -4v-1264q0 -30 5 -44.5t18.5 -22t41.5 -12.5l92 -11v-40h-483v40z" />
    <glyph glyph-name="two" unicode="2" 
d="M540 453q146 180 198 314.5t52 271.5q0 142 -70 212t-203 70q-159 0 -244 -100t-86 -284h-50q0 230 107.5 348t319.5 118q127 0 218 -42t139 -121t48 -189q0 -140 -68 -275t-203 -283t-364 -351v-8h528q32 0 46.5 11.5t22.5 43.5l28 111l38 -5l-4 -295h-872v29
q273 244 419 424z" />
    <glyph glyph-name="three" unicode="3" 
d="M260 75.5q-120 95.5 -163 256.5l163 71l5 -1q23 -181 96 -276.5t214 -95.5q137 0 205.5 100t68.5 285q0 170 -80.5 249t-259.5 79h-100v54h55q167 0 241.5 72.5t74.5 210.5q0 117 -63 180.5t-195 63.5q-148 0 -226 -76.5t-78 -211.5h-50q0 110 43.5 192.5t132.5 128.5
t220 46q125 0 214.5 -39.5t135 -106.5t45.5 -150t-38 -148t-101.5 -105.5t-140.5 -56.5v-8q104 -12 182.5 -58.5t122 -127t43.5 -191.5q0 -129 -56 -227t-158.5 -151.5t-237.5 -53.5q-195 0 -315 95.5z" />
    <glyph glyph-name="four" unicode="4" 
d="M672 394q2 12 12 24l-3 5h-619l-10 80l662 890h120v-769q0 -26 -2 -38t-11 -24l3 -5h232l-20 -134h-212l-3 -5q9 -12 11 -24t2 -38v-356h-164v356q0 26 2 38zM684 562q-10 12 -12 24t-2 38v618h-5l-496 -681l1 -4h511z" />
    <glyph glyph-name="five" unicode="5" 
d="M834 846q90 -50 137.5 -146t47.5 -232q0 -154 -58 -264t-161 -167t-237 -57q-197 0 -312 96t-160 256l163 71l4 -1q18 -126 52.5 -207.5t96 -123.5t156.5 -42q140 0 209 107.5t69 313.5q0 185 -70 276t-212 91q-214 0 -331 -195l-38 5l72 755h659l-22 -134h-601l-50 -511
h4q59 67 149.5 113t216.5 46t216 -50z" />
    <glyph glyph-name="six" unicode="6" 
d="M850 783.5q90 -50.5 137 -142.5t47 -216q0 -132 -54.5 -233t-158.5 -157.5t-248 -56.5q-151 0 -260 67t-167 191t-58 291q0 219 88 399.5t249.5 303t378.5 170.5l15 -43q-247 -82 -383.5 -259t-163.5 -425h8q51 67 138.5 114t217.5 47q124 0 214 -50.5zM786 124.5
q68 97.5 68 273.5q0 178 -70 271.5t-207 93.5q-179 0 -307 -162q1 -198 33 -324t99.5 -188t176.5 -62q139 0 207 97.5z" />
    <glyph glyph-name="seven" unicode="7" 
d="M471 514.5q45 212.5 142.5 382t268.5 347.5v4h-623q-32 0 -51 -12.5t-33 -42.5l-58 -111l-37 6l54 330h41l25 -36h856v-27l-141 -136q-139 -154 -203 -315t-81 -356t-17 -548h-188q0 302 45 514.5z" />
    <glyph glyph-name="eight" unicode="8" 
d="M849.5 677q71.5 -51 118 -127t46.5 -182q0 -116 -49.5 -203t-151 -136t-252.5 -49q-149 0 -251.5 44t-153.5 121.5t-51 177.5q0 131 86 223.5t256 165.5q-86 46 -146 94t-96.5 116t-36.5 161q0 96 46.5 168t137 112t218.5 40q120 0 208 -37t135 -102t47 -146
q0 -101 -69.5 -183.5t-218.5 -153.5q106 -53 177.5 -104zM345.5 996q43.5 -59 107.5 -99t174 -94q102 55 142 129.5t40 173.5q0 115 -64.5 181.5t-188.5 66.5q-126 0 -190 -59t-64 -159q0 -81 43.5 -140zM737 63.5q66 33.5 100.5 94.5t34.5 141q0 94 -46 160t-112.5 109.5
t-181.5 100.5q-26 12 -39 19q-110 -65 -167 -146t-57 -191q0 -154 75.5 -237.5t234.5 -83.5q92 0 158 33.5z" />
    <glyph glyph-name="nine" unicode="9" 
d="M805.5 1336q108.5 -67 166 -191t57.5 -291q0 -218 -88 -399t-249.5 -303.5t-378.5 -170.5l-14 43q248 82 384 259.5t162 424.5h-7q-51 -67 -138.5 -114t-218.5 -47q-124 0 -213 50.5t-136 142.5t-47 216q0 132 54.5 233t158.5 157.5t248 56.5q151 0 259.5 -67zM847 781
q-1 197 -32.5 323t-99 188t-176.5 62q-139 0 -207 -97t-68 -273q0 -178 69.5 -271.5t207.5 -93.5q182 0 306 162z" />
    <glyph glyph-name="colon" unicode=":" horiz-adv-x="411" 
d="M134 678q-30 29 -30 71t30 71t73 29t71.5 -28.5t28.5 -71.5t-28.5 -71.5t-71.5 -28.5t-73 29zM134 14q-30 29 -30 71t30 71t73 29t71.5 -28.5t28.5 -71.5t-28.5 -71.5t-71.5 -28.5t-73 29z" />
    <glyph glyph-name="semicolon" unicode=";" horiz-adv-x="411" 
d="M139.5 677.5q-29.5 28.5 -29.5 71.5t29.5 71.5t72.5 28.5t71.5 -28.5t28.5 -71.5t-28.5 -71.5t-71.5 -28.5t-72.5 28.5zM181.5 -136.5q45.5 61.5 51.5 126.5q-12 -4 -24 -4q-41 0 -69.5 28.5t-28.5 71.5t28.5 71.5t71.5 28.5q46 0 76 -34t30 -99q0 -105 -62.5 -189
t-178.5 -136l-21 30q81 44 126.5 105.5z" />
    <glyph glyph-name="less" unicode="&#x3c;" 
d="M875 1110v-94l-561 -324l561 -323v-95l-632 365v106z" />
    <glyph glyph-name="equal" unicode="=" 
d="M214 893h752v-80h-752v80zM214 572h752v-80h-752v80z" />
    <glyph glyph-name="greater" unicode="&#x3e;" 
d="M242 1110l633 -365v-106l-633 -365v94l563 325l-563 324v93z" />
    <glyph glyph-name="question" unicode="?" horiz-adv-x="713" 
d="M138.5 557q-20.5 74 -20.5 139q0 74 35.5 108t113.5 34h168q85 0 126.5 50t41.5 156q0 96 -33.5 170.5t-99.5 117t-160 42.5q-72 0 -133.5 -21t-120.5 -59h-18v168q48 15 93.5 24t98.5 9q134 0 231 -65t147 -174t50 -238q0 -158 -66.5 -244t-183.5 -86h-166
q-55 0 -55 -55q0 -73 51 -201l-43 -18q-36 69 -56.5 143zM256.5 14.5q-29.5 28.5 -29.5 71.5t29.5 71.5t72.5 28.5t72 -28.5t29 -71.5t-29 -71.5t-72 -28.5t-72.5 28.5z" />
    <glyph glyph-name="at" unicode="@" horiz-adv-x="1661" 
d="M267 -202.5q-171 125.5 -171 384.5q0 243 117 453.5t320 335.5t446 125q183 0 312 -57.5t195.5 -160t66.5 -235.5q0 -169 -67 -302.5t-179.5 -208t-243.5 -74.5q-83 0 -121 30.5t-38 74.5q0 11 1 16l5 14l-3 1q-53 -66 -119 -101.5t-142 -35.5q-94 0 -141 45t-47 126
q0 108 64 225.5t168 195.5t217 78q55 0 103 -13.5t96 -36.5h6l95 32h29l-159 -462q-9 -25 -9 -46q0 -27 18.5 -41t58.5 -14q84 0 167 63t136 176.5t53 257.5q0 119 -60.5 210.5t-179.5 143t-288 51.5q-224 0 -414 -119.5t-300.5 -319t-110.5 -427.5q0 -232 159.5 -347
t446.5 -115q146 0 282 27.5t270 75.5l12 -45q-137 -50 -276.5 -78t-295.5 -28q-308 0 -479 125.5zM815 172q49 34 90 94.5t68 136.5l84 241q-58 29 -117 29q-79 0 -154.5 -72.5t-123 -175.5t-47.5 -183q0 -104 102 -104q49 0 98 34z" />
    <glyph glyph-name="A" unicode="A" horiz-adv-x="1450" 
d="M85 47q41 7 65.5 29.5t43.5 67.5l441 1238h183l438 -1238q18 -44 43.5 -67t66.5 -30l74 -6v-41h-488v41l70 5q61 12 61 58q0 17 -10 45l-112 321l3 16h-593l-5 -13l-109 -325q-9 -25 -9 -44q0 -46 56 -58l72 -5v-41h-367v41zM953 540q-14 13 -20.5 23.5t-14.5 31.5
l-249 698v6h-6v-5l-271 -754l-3 -5h562z" />
    <glyph glyph-name="B" unicode="B" horiz-adv-x="1258" 
d="M174 52q29 5 42.5 12.5t18.5 22.5t5 44v1119q0 30 -5 44.5t-18.5 22.5t-42.5 13l-92 11v41h622q140 0 236 -38t143.5 -106.5t47.5 -159.5q0 -89 -44 -159t-115 -113t-150 -55l-20 -1v-6l20 -1q98 -10 180 -53.5t132 -119.5t50 -180q0 -109 -55.5 -197.5t-161 -140.5
t-249.5 -52h-636v41zM890.5 850.5q66.5 80.5 66.5 215.5q0 134 -63 201t-202 67h-294l-3 -5q9 -12 11 -24.5t2 -39.5v-426q0 -27 -2 -39.5t-11 -24.5l3 -5h293q133 0 199.5 80.5zM931.5 139.5q75.5 90.5 75.5 246.5q0 158 -77 247t-230 89h-302l-3 -5q9 -12 11 -24t2 -39
v-537q0 -27 -2 -39t-11 -24l3 -5h311q147 0 222.5 90.5z" />
    <glyph glyph-name="C" unicode="C" horiz-adv-x="1306" 
d="M365 64q-137 84 -210 238t-73 360q0 215 78 383.5t217.5 263t317.5 94.5q124 0 223.5 -40t167.5 -96h6l46 115h42v-393h-41q-70 177 -176.5 271t-268.5 94q-135 0 -233 -73t-151 -212.5t-53 -334.5q0 -206 60 -352t173.5 -222.5t272.5 -76.5q276 0 439 215l34 -25
q-88 -131 -223.5 -212t-322.5 -81q-188 0 -325 84z" />
    <glyph glyph-name="D" unicode="D" horiz-adv-x="1454" 
d="M175 53q28 5 41.5 12.5t18.5 22t5 44.5v1117q0 30 -5 45t-18.5 23t-41.5 13l-93 11v41h603q201 0 356.5 -75.5t243 -226t87.5 -366.5q0 -221 -86 -382.5t-241 -246.5t-358 -85h-605v42zM1063.5 216.5q128.5 166.5 128.5 497.5q0 318 -130 469t-396 151h-270l-3 -5
q10 -12 12.5 -25t2.5 -41v-1143q0 -28 -2.5 -41t-12.5 -25l3 -4h273q266 0 394.5 166.5z" />
    <glyph glyph-name="E" unicode="E" horiz-adv-x="1217" 
d="M174 52q29 5 42.5 12.5t18.5 22.5t5 44v1118q0 30 -5 45t-19 23t-42 13l-92 11v41h920l23 36h41l46 -346l-33 -9l-116 181q-29 38 -51 56.5t-51 26t-78 7.5h-385l-3 -5q9 -12 11 -24t2 -38v-443q0 -26 -2 -38t-11 -24l3 -5h321q40 0 59 9.5t40 42.5l65 110l34 -8v-358
l-34 -8l-64 109q-22 33 -41 43.5t-59 10.5h-321l-3 -4q9 -12 11 -24t2 -38v-525q0 -27 -2 -39t-11 -24l3 -5h419q51 0 79.5 7t49.5 24.5t48 55.5l117 195l33 -10l-27 -321h-1035v41z" />
    <glyph glyph-name="F" unicode="F" horiz-adv-x="1119" 
d="M174 52q29 5 42.5 12.5t18.5 22.5t5 45v1117q0 30 -5 45t-19 23t-42 13l-92 11v41h871l27 36h40l45 -345l-32 -10l-116 181q-30 39 -51.5 57.5t-50 25.5t-79.5 7h-338l-3 -5q9 -12 11 -24t2 -38v-464q0 -26 -2 -38t-11 -24l3 -5h272q37 0 55 9.5t39 39.5l66 114l34 -8
v-360l-34 -8l-65 113q-22 31 -40.5 41t-54.5 10h-272l-3 -4q9 -12 11 -24t2 -38v-489q0 -30 5 -45.5t19.5 -23t44.5 -11.5l119 -11v-41h-514v41z" />
    <glyph glyph-name="G" unicode="G" horiz-adv-x="1396" 
d="M392 62q-158 82 -234 231.5t-76 353.5q0 227 83 398.5t224 264t312 92.5q125 0 227 -41t169 -99h6l46 120h41v-393h-40q-146 365 -455 365q-132 0 -229.5 -75t-151 -223.5t-53.5 -361.5q0 -196 57 -344.5t179.5 -233.5t310.5 -85q141 0 268 27l3 5q-9 12 -11 24.5
t-2 37.5v417q0 30 -5 45t-18.5 23t-42.5 13l-100 11v41h434v-41l-51 -10q-26 -6 -37.5 -22t-11.5 -48v-521q-253 -53 -446 -53q-238 0 -396 82z" />
    <glyph glyph-name="H" unicode="H" horiz-adv-x="1520" 
d="M175 52q28 5 41.5 12.5t18.5 22.5t5 45v1117q0 30 -5 45t-19 23t-42 13l-92 11v41h483v-41l-91 -11q-28 -5 -42 -13t-19 -23t-5 -45v-409q0 -26 -2 -38t-11 -24l3 -5h725l3 5q-9 12 -11 24t-2 38v409q0 30 -5 45t-19 23t-42 13l-92 11v41h483v-41l-91 -11q-28 -5 -42 -13
t-19 -23t-5 -45v-1117q0 -30 5 -45t18.5 -22.5t42.5 -12.5l91 -11v-41h-483v41l92 11q29 5 42.5 12.5t18.5 22.5t5 45v525q0 26 2 38t11 24l-3 5h-725l-3 -5q9 -12 11 -24t2 -38v-525q0 -30 5 -45t18.5 -22.5t42.5 -12.5l91 -11v-41h-483v41z" />
    <glyph glyph-name="I" unicode="I" horiz-adv-x="647" 
d="M174 52q29 5 42.5 12.5t18.5 22.5t5 44v1119q0 30 -5 44.5t-18.5 22.5t-42.5 13l-92 11v41h483v-41l-91 -11q-28 -5 -41.5 -13t-19 -23t-5.5 -44v-1119q0 -29 5.5 -44t19 -22.5t41.5 -12.5l91 -11v-41h-483v41z" />
    <glyph glyph-name="J" unicode="J" horiz-adv-x="607" 
d="M156 -78q64 79 64 240v1089q0 30 -5 45t-18.5 22.5t-42.5 13.5l-92 11v39h483v-39l-92 -11q-29 -6 -42 -13.5t-18 -22.5t-5 -45v-894q0 -196 -44 -320t-136 -185.5t-237 -68.5l-8 49q129 11 193 90z" />
    <glyph glyph-name="K" unicode="K" horiz-adv-x="1446" 
d="M1388 41v-41h-511v41l77 7q62 12 62 49q0 21 -18 49l-334 597l-263 -286v-7q4 -7 5.5 -12.5t1.5 -19.5v-287q0 -29 5 -44t18.5 -22.5t42.5 -12.5l91 -11v-41h-483v41l93 11q28 5 41.5 12.5t18.5 22.5t5 44v1118q0 30 -5 45t-18.5 23t-41.5 13l-93 11v41h483v-41l-91 -11
q-29 -5 -42.5 -13t-18.5 -23t-5 -45v-633q0 -33 -8 -65l4 -4l672 713q22 25 22 42q0 28 -52 35l-75 4v41h392v-41l-61 -6q-68 -15 -104.5 -34.5t-82.5 -66.5l-332 -361l388 -693q42 -67 73.5 -93.5t80.5 -37.5z" />
    <glyph glyph-name="L" unicode="L" horiz-adv-x="1129" 
d="M175 52q28 5 41.5 12.5t18.5 22.5t5 44v1118q0 30 -5 45t-18.5 23t-41.5 13l-93 11v41h483v-41l-91 -11q-29 -5 -42.5 -13t-18.5 -23t-5 -45v-1130q0 -28 -2.5 -40.5t-12.5 -24.5l3 -5h356q52 0 83 8.5t52 27t48 56.5l112 190l32 -9l-25 -322h-972v41z" />
    <glyph glyph-name="M" unicode="M" horiz-adv-x="1870" 
d="M289 1300l5 -1169q0 -42 14 -57.5t57 -23.5l86 -9v-41h-369v41l87 9q43 8 57 23.5t14 57.5v1119q0 30 -5 44.5t-18.5 22.5t-42.5 13l-92 11v41h363l502 -1126h6l485 1126h350v-41l-91 -11q-28 -5 -41.5 -13t-19 -23t-5.5 -44v-1119q0 -29 5 -44t18.5 -22.5t42.5 -12.5
l91 -11v-41h-483v41l91 11q29 5 42.5 12.5t19 22.5t5.5 44v1139l1 18l-5 2l-553 -1300h-39l-575 1310h-3z" />
    <glyph glyph-name="N" unicode="N" horiz-adv-x="1429" 
d="M292 1290l6 -1159q0 -42 14 -57.5t57 -23.5l87 -9v-41h-374v41l87 9q43 8 57 23.5t14 57.5v1119q0 30 -5 44.5t-18.5 22.5t-42.5 13l-92 11v41h357l670 -1056q11 -17 19 -33t17 -38h6l-6 997q-1 42 -14.5 57.5t-56.5 22.5l-87 9v41h373v-41l-86 -9q-43 -7 -57 -22.5
t-14 -57.5v-1266h-76l-827 1304h-8z" />
    <glyph glyph-name="O" unicode="O" horiz-adv-x="1425" 
d="M403 66q-145 86 -233 248t-88 379q0 218 88 379t233 246t310 85q166 0 310.5 -85t232 -246.5t87.5 -378.5t-87.5 -379t-232 -248t-310.5 -86q-165 0 -310 86zM948 96.5q101 68.5 158.5 217t57.5 379.5q0 342 -122 501.5t-329 159.5t-329.5 -159.5t-122.5 -501.5
q0 -231 57.5 -379.5t159 -217t235.5 -68.5t235 68.5z" />
    <glyph glyph-name="P" unicode="P" horiz-adv-x="1246" 
d="M174 52q29 5 42.5 12.5t18.5 22.5t5 45v1117q0 30 -5 45t-18.5 23t-42.5 13l-92 11v41h610q160 0 270.5 -47.5t165 -130t54.5 -189.5q0 -105 -55.5 -195t-166 -144t-267.5 -54h-297l-3 -5q10 -12 12.5 -24t2.5 -41v-424q0 -41 13.5 -56.5t55.5 -20.5l124 -10v-41h-519v41
zM865 715q70 44 104 122t34 180q0 153 -77.5 235t-233.5 82h-296l-3 -5q10 -12 12.5 -25t2.5 -41v-521q0 -27 -2.5 -40t-12.5 -25l3 -6h297q102 0 172 44z" />
    <glyph glyph-name="Q" unicode="Q" horiz-adv-x="1425" 
d="M1234.5 -122q39.5 21 74.5 61l33 -27q-103 -129 -251 -129q-111 0 -186.5 53t-129.5 147q-30 -3 -62 -3q-165 0 -310 86t-233 248t-88 379q0 218 88 379t233 246t310 85q166 0 310.5 -85t232 -246.5t87.5 -378.5q0 -167 -53 -302.5t-145 -228.5t-210 -140q39 -79 89 -122
t120 -43q51 0 90.5 21zM343.5 620q55.5 59 156.5 59q97 0 162 -60t103.5 -146t86.5 -230q3 -9 22 -67.5t40 -107.5q124 60 187 212.5t63 412.5q0 342 -122 501.5t-329 159.5q-135 0 -236.5 -67.5t-160 -215t-58.5 -378.5q0 -113 19 -233h7q4 101 59.5 160zM751 29
q-22 46 -39.5 93.5t-42.5 123.5q-36 109 -63 172t-68 104.5t-100 41.5q-53 0 -87.5 -35.5t-34.5 -102.5q0 -105 49 -196.5t139 -146.5t209 -55q26 0 38 1z" />
    <glyph glyph-name="R" unicode="R" horiz-adv-x="1427" 
d="M174 52q29 5 42.5 12.5t18.5 22.5t5 44v1118q0 30 -5 45t-18.5 23t-42.5 13l-92 11v41h670q163 0 274 -47t166 -129.5t55 -188.5q0 -100 -45 -179t-122 -129t-173 -67v-5q19 -9 27.5 -17t17.5 -23l222 -452q28 -48 54 -68.5t70 -27.5l78 -8v-41h-503v41l82 7
q28 5 40.5 13t12.5 24t-17 50l-214 451q-11 23 -22 29.5t-38 6.5h-319l-3 -4q9 -12 11 -24t2 -39v-424q0 -29 5.5 -44t19 -22.5t41.5 -12.5l91 -11v-41h-483v41zM929 715q71 44 105.5 122t34.5 180q0 153 -78.5 235t-238.5 82h-355l-3 -5q10 -12 12 -24t2 -39v-526
q0 -27 -2 -39.5t-11 -24.5l3 -5h355q105 0 176 44z" />
    <glyph glyph-name="S" unicode="S" horiz-adv-x="1116" 
d="M335 19q-94 39 -163 98h-5l-47 -117h-41v393h40q51 -123 109.5 -202t143 -121t204.5 -42q154 0 234 68.5t80 185.5q0 93 -50 160t-123.5 111.5t-197.5 103.5q-133 63 -214 113t-136.5 128t-55.5 189q0 152 102 234t281 82q126 0 220 -39.5t156 -96.5h6l46 115h41v-393
h-40q-68 183 -170.5 274t-262.5 91q-119 0 -182 -50t-63 -141q0 -79 46.5 -137.5t116 -99.5t188.5 -97q141 -66 228.5 -120t148.5 -139.5t61 -207.5q0 -115 -53.5 -201t-158.5 -133.5t-257 -47.5q-138 0 -232 39z" />
    <glyph glyph-name="T" unicode="T" horiz-adv-x="1253" 
d="M473 52q30 4 44 11.5t19.5 22.5t5.5 45v1136q0 26 2 38t12 24l-4 5h-221q-48 0 -77 -8.5t-49.5 -27t-45.5 -55.5l-97 -180l-35 7l24 348h41l25 -36h1019l25 36h41l23 -348l-34 -7l-97 180q-25 37 -45.5 55.5t-49.5 27t-77 8.5h-222l-3 -5q9 -12 11 -24t2 -38v-1136
q0 -30 5.5 -45t19.5 -22.5t44 -11.5l119 -11v-41h-544v41z" />
    <glyph glyph-name="U" unicode="U" horiz-adv-x="1382" 
d="M342 89.5q-116 108.5 -116 318.5v842q0 30 -5 44.5t-18.5 22.5t-42.5 13l-91 11v41h483v-41l-92 -11q-28 -5 -41.5 -13t-19 -23t-5.5 -44v-833q0 -179 84.5 -269.5t269.5 -90.5q177 0 269 92t90 259l-9 843q0 29 -6 44t-20.5 23t-44.5 14l-86 9v41h372v-41l-86 -9
q-30 -6 -44.5 -14t-20.5 -23t-6 -44v-850q0 -131 -53.5 -225.5t-157 -144.5t-250.5 -50q-237 0 -353 108.5z" />
    <glyph glyph-name="V" unicode="V" horiz-adv-x="1450" 
d="M150.5 1305.5q-25.5 22.5 -66.5 29.5l-75 6v41h489v-41l-70 -5q-61 -11 -61 -59q0 -18 9 -44l405 -1144v-6h6v6l406 1146q9 26 9 44q0 47 -57 57l-71 5v41h366v-41l-75 -6q-41 -7 -66 -29t-43 -67l-441 -1239h-183l-438 1239q-18 44 -43.5 66.5z" />
    <glyph glyph-name="W" unicode="W" horiz-adv-x="2056" 
d="M2047 1382v-41l-66 -4q-50 -10 -72.5 -30.5t-39.5 -69.5l-379 -1237h-185l-274 862v12h-7v-6l-275 -868h-185l-378 1237q-18 50 -40 70.5t-71 29.5l-66 4v41h495v-41l-78 -5q-35 -7 -51.5 -21t-16.5 -39q0 -15 8 -41l348 -1146v-6h7v6l278 904l-72 244q-17 49 -39.5 69.5
t-71.5 30.5l-67 4v41h494v-41l-72 -6q-38 -6 -55 -19t-17 -36q0 -18 7 -39l349 -1153v-5h6v5l347 1147q7 22 7 40q0 26 -16 40t-51 21l-78 5v41h377z" />
    <glyph glyph-name="X" unicode="X" horiz-adv-x="1355" 
d="M86 45q49 8 81.5 30.5t67.5 71.5l349 538l-338 557q-31 43 -63 63.5t-82 30.5l-67 5v41h509v-41l-65 -3q-55 -10 -55 -45q0 -20 19 -50l273 -446v-11h7l3 8l287 449q19 30 19 49q0 36 -54 46l-64 3v41h366v-41l-59 -3q-50 -9 -82.5 -31.5t-66.5 -70.5l-321 -505l366 -590
q32 -44 63 -64t82 -30l67 -6v-41h-509v41l66 3q55 12 55 46q0 19 -19 49l-303 482v10h-6l-4 -10l-314 -482q-20 -29 -20 -49q0 -34 55 -46l64 -3v-41h-366v41z" />
    <glyph glyph-name="Y" unicode="Y" horiz-adv-x="1396" 
d="M544 52q30 4 44.5 11.5t19.5 22.5t5 45v438l-401 675q-28 43 -55 63.5t-70 27.5l-70 6v41h496v-41l-82 -7q-25 -5 -37 -14t-12 -24q0 -18 17 -47l360 -600v-7h7v7l363 600q18 29 18 47q0 15 -12.5 24t-37.5 14l-80 7v41h360v-41l-71 -6q-43 -7 -69.5 -27.5t-54.5 -63.5
l-401 -674v-439q0 -30 5 -45t19.5 -22.5t44.5 -11.5l118 -11v-41h-543v41z" />
    <glyph glyph-name="Z" unicode="Z" horiz-adv-x="1109" 
d="M68 0v44l768 1277l9 6v7h-454q-52 0 -82.5 -8.5t-51.5 -27t-48 -56.5l-109 -179l-34 9l43 346h40l24 -36h866v-47l-766 -1273l-10 -7v-6h481q51 0 81 8.5t51 27t46 55.5l100 179l34 -7l-26 -348h-40l-24 36h-898z" />
    <glyph glyph-name="bracketleft" unicode="[" horiz-adv-x="645" 
d="M99 1475h534v-49h-371v-1705h371v-49h-534v1803z" />
    <glyph glyph-name="backslash" unicode="\" horiz-adv-x="806" 
d="M657 -471l-578 1946h72l575 -1946h-69z" />
    <glyph glyph-name="bracketright" unicode="]" horiz-adv-x="645" 
d="M12 -328v49h371v1704h-371v50h533v-1803h-533z" />
    <glyph glyph-name="asciicircum" unicode="^" 
d="M527 1382h131l375 -553h-101l-336 475h-7l-335 -475h-102z" />
    <glyph glyph-name="underscore" unicode="_" horiz-adv-x="901" 
d="M66 0h770v-67h-770v67z" />
    <glyph glyph-name="grave" unicode="`" horiz-adv-x="2048" 
d="M779 1304q0 36 25 61.5t62 25.5q30 0 55 -19t37 -63l137 -326l-20 -14l-249 246q-47 40 -47 89z" />
    <glyph glyph-name="a" unicode="a" horiz-adv-x="864" 
d="M133.5 22.5q-55.5 42.5 -55.5 116.5q0 49 25 86.5t77 66.5l341 178l2 5q-5 15 -5 33v171q0 53 -33 80.5t-99 27.5q-51 0 -90.5 -16t-61 -43.5t-21.5 -61.5v-45h-148q-5 8 -5 16q0 45 60.5 95.5t154.5 84t188 33.5q208 0 208 -172v-541q0 -35 12.5 -48.5t49.5 -13.5h96
v-38l-68 -32q-46 -19 -92 -19q-133 0 -137 101v25h-4q-34 -60 -96.5 -96t-145.5 -36q-97 0 -152.5 42.5zM473 112.5q45 39.5 45 111.5v136q0 19 1.5 28t6.5 23l-3 5l-225 -128q-36 -24 -51 -48t-15 -58q0 -52 33.5 -80.5t91.5 -28.5q71 0 116 39.5z" />
    <glyph glyph-name="b" unicode="b" horiz-adv-x="1033" 
d="M404 -16.5q-52 3.5 -99 7.5q-94 9 -138 9v1339q0 26 -8 35.5t-33 13.5l-113 15v35l282 49l24 -12v-747q0 -46 -5 -72l5 -3q40 89 125 143t185 54q91 0 169 -46t125 -135t47 -211q0 -156 -64 -263.5t-171.5 -161t-236.5 -53.5q-42 0 -94 3.5zM666 70q65 43 102.5 128.5
t37.5 208.5q0 169 -70 251t-181 82q-63 0 -117 -31t-86.5 -87.5t-32.5 -128.5v-408q82 -58 200 -58q82 0 147 43z" />
    <glyph glyph-name="c" unicode="c" horiz-adv-x="839" 
d="M237.5 31q-85.5 51 -130 143t-44.5 213q0 140 58 245t155.5 161.5t214.5 56.5q120 0 233 -54v-165h-19q-112 84 -176 114t-122 30q-97 0 -153 -74t-56 -208q0 -121 40.5 -213t116.5 -143.5t180 -51.5q73 0 126 24.5t104 71.5l25 -24q-71 -80 -152.5 -128.5t-195.5 -48.5
q-119 0 -204.5 51z" />
    <glyph glyph-name="d" unicode="d" horiz-adv-x="1059" 
d="M232.5 25.5q-77.5 45.5 -123.5 134t-46 212.5q0 155 63 263t166 161.5t222 53.5q56 0 105 -7l56 -8q22 -4 41 -6l2 5q-5 23 -5 56v449q0 26 -7.5 35.5t-32.5 13.5l-113 15v35l282 49l24 -12v-1341q0 -27 7.5 -36t33.5 -13l113 -15v-36l-283 -47l-24 13v103q0 41 6 72
l-6 3q-39 -89 -123.5 -143.5t-186.5 -54.5q-93 0 -170.5 45.5zM594.5 121q54.5 31 86.5 87.5t32 128.5v384q-31 35 -81.5 56.5t-113.5 21.5q-84 0 -150 -42t-103.5 -126.5t-37.5 -207.5q0 -171 69.5 -252t178.5 -81q65 0 119.5 31z" />
    <glyph glyph-name="e" unicode="e" horiz-adv-x="888" 
d="M824 157q-69 -79 -156 -128t-207 -49q-128 0 -217.5 52t-135 145.5t-45.5 215.5q0 140 57.5 244t151.5 158.5t200 54.5q87 0 158 -36.5t117.5 -100.5t64.5 -146l-8 -14h-603q-3 -28 -3 -60q0 -120 41 -212t121 -144t194 -52q80 0 138 24.5t106 72.5zM286.5 736.5
q-53.5 -44.5 -75.5 -129.5h406l1 6l-4 5q-21 72 -73 117.5t-128 45.5q-73 0 -126.5 -44.5z" />
    <glyph glyph-name="f" unicode="f" horiz-adv-x="717" 
d="M796 1480v-166l-18 -1q-70 43 -125.5 64.5t-106.5 21.5q-78 0 -127.5 -61t-49.5 -176v-272q0 -33 -5 -56l2 -5h321l-15 -86h-306l-2 -5q5 -21 5 -54v-556q0 -29 4.5 -43t17.5 -21t40 -10l137 -13v-41h-506v41l91 10q27 5 40 12t18 21.5t5 43.5v615h-164l16 86h148v79
q0 180 62 313.5t164 203.5t219 70q63 0 135 -15z" />
    <glyph glyph-name="g" unicode="g" horiz-adv-x="970" 
d="M889.5 -21q53.5 -57 53.5 -160q0 -115 -63 -209.5t-174.5 -149t-251.5 -54.5q-115 0 -196 35.5t-121.5 93.5t-40.5 124q0 136 168 243q-94 14 -139.5 59.5t-45.5 110.5q0 68 51.5 111t159.5 57v7q-91 33 -146 111.5t-55 178.5q0 90 48.5 161.5t130.5 111.5t177 40
q61 0 127 -21h373l-15 -86h-214v-7q43 -33 65 -85.5t22 -113.5q0 -90 -48.5 -164.5t-131 -117.5t-178.5 -43q-136 0 -194.5 -23.5t-58.5 -67.5q0 -42 53 -63.5t183 -21.5h302q106 0 159.5 -57zM302 332.5q51 -71.5 143 -71.5t143.5 71.5t51.5 204.5q0 130 -51 197t-144 67
t-143.5 -67t-50.5 -197q0 -133 51 -204.5zM684.5 -493q73.5 38 111.5 103t38 144q0 73 -32.5 107.5t-106.5 34.5h-348q-23 0 -34 1q-40 -44 -59.5 -87.5t-19.5 -95.5q0 -111 66.5 -178t207.5 -67q103 0 176.5 38z" />
    <glyph glyph-name="h" unicode="h" horiz-adv-x="1121" 
d="M153 51q27 5 40 12t18 21.5t5 42.5v1212q0 26 -7.5 35.5t-33.5 13.5l-113 15v35l283 49l24 -12v-727q0 -40 -5 -73l4 -3q44 84 127 131t183 47q116 0 183 -60t67 -170v-493q0 -29 5 -43t17.5 -21t40.5 -12l91 -10v-41h-438v41l74 9q26 6 37.5 13t15.5 21t4 43v453
q0 78 -50.5 119t-136.5 41q-98 0 -158.5 -52.5t-60.5 -143.5v-417q0 -28 4.5 -42t16 -21.5t36.5 -13.5l74 -9v-41h-438v41z" />
    <glyph glyph-name="i" unicode="i" horiz-adv-x="562" 
d="M209.5 1108q-28.5 29 -28.5 72t28.5 71.5t71.5 28.5t71.5 -28.5t28.5 -71.5t-28.5 -72t-71.5 -29t-71.5 29zM154 51q39 6 51 21t12 55v567q0 26 -8 35t-33 14l-113 15v35l281 49l25 -13v-702q0 -40 12 -55t51 -21l90 -10v-41h-459v41z" />
    <glyph glyph-name="j" unicode="j" horiz-adv-x="539" 
d="M208.5 1108q-28.5 29 -28.5 72t28.5 71.5t71.5 28.5t71.5 -28.5t28.5 -71.5t-28.5 -72t-71.5 -29t-71.5 29zM153 -454.5q64 79.5 64 239.5v909q0 26 -8 35t-33 14l-113 15v35l281 49l25 -13v-849q0 -196 -42.5 -320t-130.5 -185.5t-229 -68.5l-8 49q130 11 194 90.5z" />
    <glyph glyph-name="k" unicode="k" horiz-adv-x="1094" 
d="M153 51q27 5 40 12t18 21.5t5 43.5v1211q0 26 -7.5 35.5t-33.5 13.5l-113 15v35l283 49l24 -12v-1047q0 -39 -6 -73l6 -3l355 353q21 24 21 40q0 24 -34 34l-62 9v41h346v-41l-42 -3q-52 -8 -91 -29.5t-84 -70.5l-118 -122l-14 -15l239 -400q34 -56 60 -77t65 -27l56 -3
v-41h-442v41l65 6q27 6 39.5 14.5t12.5 21.5q0 15 -22 50l-172 293l-2 14h-6l-4 -9l-156 -143l-10 -9v-151q0 -29 4 -43t16 -21.5t37 -13.5l76 -9v-41h-440v41z" />
    <glyph glyph-name="l" unicode="l" horiz-adv-x="561" 
d="M153 51q27 5 40 12t18 21.5t5 42.5v1212q0 26 -7.5 35.5t-33.5 13.5l-113 15v35l283 49l24 -12v-1348q0 -28 5 -42.5t18 -21.5t40 -12l91 -10v-41h-461v41z" />
    <glyph glyph-name="m" unicode="m" horiz-adv-x="1679" 
d="M153 51q27 5 40 12t18 21.5t5 42.5v566q0 27 -7.5 36.5t-33.5 13.5l-113 15v35l284 49l23 -11v-83q0 -41 -5 -72l5 -4q44 83 126.5 130.5t181.5 47.5q102 0 167 -47t75 -133l5 -1q44 84 127.5 132.5t184.5 48.5q116 0 183.5 -60t67.5 -170v-493q0 -41 11.5 -55t50.5 -21
l91 -10v-41h-437v41l74 9q25 6 36.5 13.5t16 21.5t4.5 42v452q0 79 -50 120t-137 41q-98 0 -158.5 -52.5t-60.5 -143.5v-417q0 -29 4.5 -43t16 -21t36.5 -13l73 -9v-41h-414v41l73 9q25 6 37 13.5t16.5 21.5t4.5 42v453q0 78 -50.5 119t-136.5 41q-98 0 -158.5 -52.5
t-60.5 -143.5v-417q0 -28 4.5 -42t16 -21.5t36.5 -13.5l73 -9v-41h-437v41z" />
    <glyph glyph-name="n" unicode="n" horiz-adv-x="1121" 
d="M153 51q27 5 40 12t18 21.5t5 42.5v566q0 27 -7.5 36.5t-33.5 13.5l-113 15v35l283 49l24 -13v-81q0 -40 -5 -73l4 -3q44 84 127 131t183 47q116 0 183 -60t67 -170v-493q0 -29 5 -43t17.5 -21t40.5 -12l91 -10v-41h-437v41l73 9q26 6 37.5 13t15.5 21t4 43v453
q0 78 -50.5 119t-136.5 41q-98 0 -158.5 -52.5t-60.5 -143.5v-417q0 -28 4.5 -42t16 -21.5t36.5 -13.5l73 -9v-41h-437v41z" />
    <glyph glyph-name="o" unicode="o" horiz-adv-x="960" 
d="M278 31q-96 51 -155.5 150.5t-59.5 237.5q0 133 60 231t155.5 149t201.5 51q107 0 203 -51t155.5 -149t59.5 -231q0 -138 -59.5 -237.5t-155.5 -150.5t-203 -51q-106 0 -202 51zM601.5 67q55.5 39 90.5 126.5t35 225.5q0 135 -35 220.5t-90.5 123.5t-121.5 38t-121.5 -38
t-90 -123.5t-34.5 -220.5q0 -138 34.5 -225.5t90 -126.5t121.5 -39t121.5 39z" />
    <glyph glyph-name="p" unicode="p" horiz-adv-x="1065" 
d="M834.5 803q77.5 -47 123 -138t45.5 -218q0 -150 -63.5 -255.5t-167.5 -158.5t-225 -53q-46 0 -90 5.5t-105 16.5v-448q0 -29 5 -43.5t18 -21.5t41 -11l90 -10v-41h-460v41l91 10q27 4 40 11.5t17.5 21.5t4.5 43v1139q0 27 -7.5 36.5t-32.5 13.5l-113 15v35l282 49l24 -13
v-89q0 -41 -6 -73l5 -2q45 83 128.5 134t184.5 51q93 0 170.5 -47zM699 71q65 43 102.5 128.5t37.5 207.5q0 116 -33 190.5t-88 108.5t-124 34q-65 0 -116.5 -27t-84 -75t-41.5 -109v-411q33 -41 84.5 -65.5t116.5 -24.5q81 0 146 43z" />
    <glyph glyph-name="q" unicode="q" horiz-adv-x="1055" 
d="M650 -522q27 4 40.5 11t18 22t4.5 44v547q0 42 6 72l-6 4q-39 -90 -123 -144t-187 -54q-93 0 -170.5 45.5t-123.5 134t-46 212.5q0 155 63 263t165.5 161.5t221.5 53.5q41 0 77 -4.5t90 -13.5q62 -12 93 -12q20 0 33 5t24 15h36v-1285q0 -29 4.5 -43.5t17.5 -22t40 -11.5
l88 -10v-41h-481v41zM594.5 121q54.5 31 86.5 87.5t32 128.5v410q-37 22 -86.5 37t-106.5 15q-85 0 -151.5 -42t-104 -126.5t-37.5 -207.5q0 -171 69.5 -252t178.5 -81q65 0 119.5 31z" />
    <glyph glyph-name="r" unicode="r" horiz-adv-x="743" 
d="M153 51q27 5 40 12t18 21.5t5 42.5v566q0 27 -7.5 36.5t-33.5 13.5l-113 15v35l283 49l24 -13v-91q0 -39 -5 -72l5 -3q41 82 105.5 134.5t139.5 52.5q35 0 72 -11v-129l-12 -12q-57 19 -112 19q-51 0 -95 -21t-71 -61.5t-27 -95.5v-412q0 -28 5 -42t18 -21t40 -10
l133 -13v-41h-503v41z" />
    <glyph glyph-name="s" unicode="s" horiz-adv-x="727" 
d="M88 24v191h29l23 -45q84 -141 228 -141q71 0 110.5 35.5t39.5 98.5q0 51 -26 88t-64.5 61.5t-103.5 56.5q-75 38 -120 68t-76.5 79t-31.5 120q0 99 69.5 156.5t189.5 57.5q110 0 243 -55v-176h-30l-26 55q-40 65 -93 96.5t-112 31.5q-54 0 -87.5 -27.5t-33.5 -74.5
q0 -46 25 -79.5t62.5 -56t101.5 -52.5q78 -37 126.5 -68t82.5 -83t34 -127q0 -118 -81 -186t-224 -68q-117 0 -255 44z" />
    <glyph glyph-name="t" unicode="t" horiz-adv-x="736" 
d="M331 743l-2 -5q5 -21 5 -55v-483q0 -67 37 -101.5t109 -34.5q49 0 87 15t69 44l20 -24q-48 -57 -107.5 -88t-138.5 -31q-112 0 -170.5 50.5t-58.5 147.5v565h-138l15 86h101q24 0 34.5 6.5t18.5 27.5l83 187l39 -8v-152q0 -33 -5 -56l2 -5h344l-16 -86h-328z" />
    <glyph glyph-name="u" unicode="u" horiz-adv-x="1074" 
d="M254 34q-61 54 -61 154v505q0 27 -8 36.5t-33 13.5l-113 15v35l283 49l24 -13v-596q0 -67 47 -105t126 -38q59 0 106.5 23.5t75 68t27.5 104.5v407q0 27 -7.5 36.5t-32.5 13.5l-113 15v35l282 49l24 -13v-692q0 -27 7.5 -37t32.5 -13l113 -16v-35l-282 -49l-24 13v82
q0 40 5 72l-5 3q-43 -83 -123.5 -130t-177.5 -47q-112 0 -173 54z" />
    <glyph glyph-name="v" unicode="v" horiz-adv-x="913" 
d="M91.5 768q-13.5 13 -42.5 17l-44 3v41h412v-41l-94 -13q-21 -5 -31 -14t-10 -25q0 -14 8 -36l215 -576h4l220 576q8 21 8 34q0 17 -10 26.5t-31 14.5l-96 13v41h307v-41l-45 -3q-28 -4 -41 -16.5t-29 -47.5l-274 -721h-130l-268 719q-15 36 -28.5 49z" />
    <glyph glyph-name="w" unicode="w" horiz-adv-x="1461" 
d="M94.5 767q-15.5 14 -45.5 18l-44 3v41h412v-41l-81 -13q-54 -9 -54 -44q0 -11 6 -25l207 -576h2l247 699h86l247 -700h2l198 572q7 18 7 33q0 17 -10.5 26.5t-31.5 14.5l-96 13v41h309v-41l-45 -3q-28 -4 -42 -17t-28 -47l-252 -721h-130l-223 617l-1 13h-6l-2 -11
l-221 -619h-131l-249 716q-15 37 -30.5 51z" />
    <glyph glyph-name="x" unicode="x" horiz-adv-x="1004" 
d="M85 46q51 6 84 26.5t75 75.5l177 260l-177 271q-40 55 -72 77t-81 28l-59 4v41h448v-41l-69 -6q-36 -7 -36 -23q0 -7 5 -16.5t12 -20.5l157 -235v-6h6l2 5l171 243q12 17 12 27q0 9 -11 15.5t-35 10.5l-66 6v41h341v-41l-59 -4q-50 -6 -81.5 -25.5t-64.5 -64.5l-181 -259
l185 -286q42 -56 71.5 -76.5t78.5 -26.5l58 -4v-42h-447v42l69 5q39 8 39 25q0 9 -16 34l-166 250v6h-6l-2 -5l-167 -245q-22 -28 -22 -41q0 -9 10 -14t33 -10l67 -5v-42h-341v42z" />
    <glyph glyph-name="y" unicode="y" horiz-adv-x="913" 
d="M907 829v-41l-51 -5q-31 -4 -46.5 -16.5t-28.5 -44.5l-357 -1000q-42 -110 -90 -179t-112 -103t-152 -34q-50 0 -86 11v133l2 3q64 -20 136 -20q64 0 109 19t80.5 65t67.5 129l58 168l-317 807q-14 32 -30.5 45t-46.5 17l-51 5v41h417v-41l-83 -9q-24 -5 -34.5 -13
t-10.5 -21q0 -14 12 -40l214 -555l2 -13h6l4 13l199 551q11 28 11 42q0 15 -11 23t-36 13l-83 9v41h308z" />
    <glyph glyph-name="z" unicode="z" horiz-adv-x="748" 
d="M490 768l13 10v6h-203q-50 0 -73.5 -11.5t-46.5 -45.5l-67 -103h-28l6 205h581v-31l-416 -736l-14 -11v-6h211q53 0 79.5 13.5t50.5 50.5l67 101h28l-9 -210h-596v30z" />
    <glyph glyph-name="braceleft" unicode="{" horiz-adv-x="645" 
d="M259 -287q-121 61 -121 181q0 57 23.5 109.5t70.5 132.5q48 82 72 136.5t24 113.5q0 81 -48.5 122.5t-154.5 41.5h-82v47h82q106 0 154.5 41.5t48.5 121.5q0 59 -24 115t-72 135q-47 79 -70.5 132.5t-23.5 110.5q0 120 121 181t374 61v-49q-172 0 -250.5 -41.5
t-78.5 -125.5q0 -55 24 -108t72 -131q47 -76 71 -128.5t24 -106.5q0 -95 -58.5 -153t-167.5 -75v-7q109 -18 167.5 -76t58.5 -153q0 -54 -24 -106t-71 -128q-48 -78 -72 -131t-24 -108q0 -84 78.5 -125.5t250.5 -41.5v-49q-253 0 -374 61z" />
    <glyph glyph-name="bar" unicode="|" horiz-adv-x="558" 
d="M203 1475h153v-2048h-153v2048z" />
    <glyph glyph-name="braceright" unicode="}" horiz-adv-x="645" 
d="M293 -258q78 41 78 125q0 56 -23.5 108t-71.5 132t-71 130.5t-23 104.5q0 96 58.5 153t167.5 74v9q-109 17 -167.5 74t-58.5 153q0 54 23 104.5t71 130.5t71.5 132t23.5 108q0 84 -78 125t-250 41v49q253 0 374.5 -61t121.5 -181q0 -57 -23.5 -110.5t-71.5 -133.5
t-72 -135t-24 -114q0 -80 48.5 -122t154.5 -42h82v-45h-82q-203 0 -203 -164q0 -59 24 -114t72 -135t71.5 -133.5t23.5 -110.5q0 -120 -121.5 -181t-374.5 -61v49q172 0 250 41z" />
    <glyph glyph-name="asciitilde" unicode="~" 
d="M206.5 756q24.5 76 68 106.5t106.5 30.5q60 0 100.5 -26t65 -63t52.5 -95q23 -47 39.5 -74t40.5 -45t57 -18q42 0 66 23t36.5 92.5t12.5 205.5h84v-56q0 -133 -24.5 -209t-67.5 -106t-107 -30q-59 0 -98.5 25.5t-63 61t-51.5 94.5q-23 48 -40 75.5t-42 46t-60 18.5
q-42 0 -66 -23.5t-36.5 -93t-12.5 -204.5h-84v56q0 132 24.5 208z" />
    <glyph glyph-name="uni00A0" unicode="&#xa0;" horiz-adv-x="504" 
 />
    <glyph glyph-name="exclamdown" unicode="&#xa1;" horiz-adv-x="459" 
d="M305.5 821.5q28.5 -28.5 28.5 -72.5q0 -43 -29 -71.5t-72 -28.5t-72.5 28.5t-29.5 71.5t29.5 72t72.5 29q44 0 72.5 -28.5zM305 -237q3 -40 12 -157.5t9 -156.5q0 -47 -26 -77t-69 -30q-42 0 -68 30.5t-26 78.5q0 54 21 308q31 390 49 654h49q17 -250 49 -650z" />
    <glyph glyph-name="cent" unicode="&#xa2;" 
d="M658 226v-246h-51v245q-128 5 -221 56.5t-143 147t-50 226.5q0 129 54 226.5t148 152t212 61.5v308h51v-307q142 -4 290 -55v-167h-18q-74 76 -136.5 119.5t-135.5 49.5v-765q97 4 167 41t133 109l25 -25q-126 -166 -325 -177zM607 278v765q-119 -10 -183 -104t-64 -271
q0 -372 247 -390z" />
    <glyph glyph-name="sterling" unicode="&#xa3;" 
d="M1052 298l-4 -298h-933v29l124 125q90 89 133 177.5t44 191.5h-300v48h297q-7 63 -38 125h-259v49h233q-23 37 -48 75q-38 57 -61 98t-39 92t-16 108q0 87 44.5 151.5t128 99t198.5 34.5q116 0 193 -37.5t142 -98.5h5l47 115h41v-393h-40q-53 186 -144.5 275.5
t-240.5 89.5q-115 0 -174.5 -47.5t-59.5 -131.5q0 -42 15 -82t36 -74t60 -88q41 -57 67 -98.5t43 -87.5h293v-49h-279q10 -37 10 -83q0 -14 -2 -42h271v-48h-278q-21 -98 -88 -188.5t-184 -192.5v-8h615q39 0 56 13.5t26 51.5l29 102z" />
    <glyph glyph-name="currency" unicode="&#xa4;" 
d="M940 585q-23 -64 -66 -114l86 -86l-33 -33l-86 86q-50 -44 -113.5 -67t-136.5 -23t-137 23.5t-113 66.5l-86 -86l-33 33l85 86q-43 50 -66 114t-23 139q0 74 23 137.5t65 111.5l-84 84l33 33l84 -85q49 43 113.5 66t138.5 23q73 0 137.5 -22.5t114.5 -65.5l84 84l33 -33
l-84 -84q42 -48 64.5 -111t22.5 -138t-23 -139zM755.5 438q73.5 41 115.5 115.5t42 170.5t-42 168.5t-115 112t-165 39.5t-165 -39.5t-115 -112t-42 -168.5t42 -170.5t115.5 -115.5t164.5 -41t164.5 41z" />
    <glyph glyph-name="yen" unicode="&#xa5;" 
d="M1163 1382v-39l-76 -9q-39 -6 -63 -25t-54 -61l-270 -423h303v-49h-329v-134h329v-49h-329v-462q0 -30 5 -45t19 -22.5t43 -11.5l117 -12v-40h-536v40l118 12q29 4 42.5 11.5t18.5 22.5t5 45v462h-322v49h322v134h-322v49h295l-269 425q-28 41 -52 59.5t-65 24.5l-74 9
v39h492v-39l-92 -11q-41 -6 -41 -28q0 -15 18 -44l257 -407h5l263 406q18 29 18 44q0 22 -41 29l-91 11v39h356z" />
    <glyph glyph-name="brokenbar" unicode="&#xa6;" horiz-adv-x="558" 
d="M203 1475h153v-682h-153v682zM203 109h153v-682h-153v682z" />
    <glyph glyph-name="section" unicode="&#xa7;" horiz-adv-x="732" 
d="M396 352q83 -46 134 -84.5t87 -100.5t36 -150q0 -92 -35.5 -160.5t-104 -106t-165.5 -37.5q-54 0 -97 6.5t-92 17.5q-51 11 -66 12v200h25l24 -46q81 -138 232 -138q74 0 112 45.5t38 132.5q0 66 -27.5 114t-67.5 79.5t-108 74.5q-76 47 -121.5 84.5t-77.5 97t-32 144.5
q0 76 33.5 132.5t93.5 86.5t138 30q17 0 25 -1l-31 19q-83 50 -134.5 90.5t-88 104.5t-36.5 153q0 120 69 185.5t195 65.5q41 0 76.5 -5t87.5 -15q7 -1 33.5 -6.5t45.5 -6.5v-194h-25l-29 53q-77 126 -207 126q-66 0 -98.5 -34.5t-32.5 -107.5q0 -61 27.5 -106.5t68.5 -77
t112 -75.5q78 -48 126 -86t81 -97t33 -141q0 -80 -33 -140t-95.5 -93t-147.5 -33h-2zM253 693q-42 -44 -42 -119q0 -76 42 -118.5t117 -42.5q72 0 115.5 42.5t42.5 122.5q0 75 -45 117t-118 42q-70 0 -112 -44z" />
    <glyph glyph-name="dieresis" unicode="&#xa8;" horiz-adv-x="2048" 
d="M817.5 1108.5q-28.5 28.5 -28.5 71.5t28.5 72t71.5 29t71.5 -29t28.5 -72t-28.5 -71.5t-71.5 -28.5t-71.5 28.5zM1087.5 1108.5q-28.5 28.5 -28.5 71.5t28.5 72t71.5 29t71.5 -29t28.5 -72t-28.5 -71.5t-71.5 -28.5t-71.5 28.5z" />
    <glyph glyph-name="copyright" unicode="&#xa9;" horiz-adv-x="1425" 
d="M403 66q-145 86 -233 248t-88 379q0 218 88 379t233 246t310 85q166 0 310.5 -85t232 -246.5t87.5 -378.5t-87.5 -379t-232 -248t-310.5 -86q-165 0 -310 86zM997.5 108.5q132.5 80.5 213 231.5t80.5 353q0 203 -80.5 353t-213 229t-284.5 79q-153 0 -285.5 -79
t-213.5 -229t-81 -353q0 -202 81 -353t214 -231.5t285 -80.5t284.5 80.5zM512.5 307q-84.5 51 -128 145t-43.5 224q0 131 48 234t134 161t196 58q76 0 139 -25t106 -60h3l21 70h36v-239h-43q-81 205 -253 205q-106 0 -167 -91t-61 -261q0 -185 73 -282.5t210 -97.5
q80 0 142.5 32.5t105.5 86.5l38 -27q-128 -184 -351 -184q-121 0 -205.5 51z" />
    <glyph glyph-name="ordfeminine" unicode="&#xaa;" horiz-adv-x="960" 
d="M177.5 575q-55.5 43 -55.5 117q0 49 25 87t77 67l342 178l2 4q-6 12 -6 33v170q0 108 -131 108q-51 0 -90.5 -16t-61.5 -43.5t-22 -60.5v-45h-147q-6 12 -6 16q0 45 60.5 95.5t154.5 84t188 33.5q209 0 209 -172v-541q0 -36 12.5 -48.5t48.5 -12.5h97v-39l-68 -33
q-29 -9 -49 -13.5t-45 -4.5q-132 0 -135 100v27h-5q-34 -61 -97 -97.5t-146 -36.5q-96 0 -151.5 43zM517.5 666q44.5 39 44.5 112v135q0 21 1 30t7 22l-4 4l-223 -129q-36 -23 -51.5 -47.5t-15.5 -57.5q0 -52 33.5 -80t93.5 -28q70 0 114.5 39zM100 324h760v-66h-760v66z
" />
    <glyph glyph-name="guillemotleft" unicode="&#xab;" horiz-adv-x="1062" 
d="M59 387v55l452 406l33 -25l-305 -405v-6l305 -406l-33 -24zM522 387v55l453 406l33 -25l-305 -405v-6l305 -406l-33 -24z" />
    <glyph glyph-name="logicalnot" unicode="&#xac;" 
d="M855 806h-673v80h753v-417h-80v337z" />
    <glyph glyph-name="uni00AD" unicode="&#xad;" horiz-adv-x="658" 
d="M66 571h526v-67h-526v67z" />
    <glyph glyph-name="registered" unicode="&#xae;" horiz-adv-x="960" 
d="M278 676q-96 51 -155.5 150.5t-59.5 237.5q0 133 60 231t155.5 149t201.5 51q107 0 203 -51t155.5 -149t59.5 -231q0 -138 -59.5 -237.5t-155.5 -150.5t-203 -51q-106 0 -202 51zM658 718.5q84 45.5 136.5 134t52.5 211.5q0 117 -52.5 204t-137 133t-177.5 46t-177 -46
t-136.5 -133t-52.5 -204q0 -123 52.5 -211.5t136.5 -134t177 -45.5q94 0 178 45.5zM283 845q15 0 19.5 4.5t4.5 20.5v380q0 17 -4 21.5t-20 4.5h-33v35h251q87 0 133 -38t46 -98q0 -55 -36 -91t-89 -45v-2q7 -4 10.5 -7t6.5 -9l76 -145q11 -17 20.5 -24t26.5 -7h29v-36h-197
v36h22q20 0 20 12q0 7 -5 16l-74 147q-4 8 -9 10.5t-14 2.5h-86l-2 -2q4 -4 5 -9.5t1 -13.5v-138q0 -16 4.5 -20.5t19.5 -4.5h33v-36h-192v36h33zM570 1095.5q28 27.5 28 79.5q0 48 -28 74.5t-82 26.5h-109v-2q6 -7 6 -22v-159q0 -8 -1 -13.5t-5 -9.5l2 -2h107q54 0 82 27.5
z" />
    <glyph glyph-name="macron" unicode="&#xaf;" horiz-adv-x="2048" 
d="M777 1212h494v-66h-494v66z" />
    <glyph glyph-name="degree" unicode="&#xb0;" 
d="M456.5 866q-70.5 37 -110 102.5t-39.5 147.5t39.5 147.5t110 102.5t162.5 37t163 -37t110.5 -102.5t39.5 -147.5t-39.5 -147.5t-110.5 -102.5t-163 -37t-162.5 37zM754.5 908q58.5 30 90 84t31.5 124t-31.5 124t-90 84t-135.5 30t-135.5 -30t-90 -84t-31.5 -124
t31.5 -124t90 -84t135.5 -30t135.5 30z" />
    <glyph glyph-name="plusminus" unicode="&#xb1;" 
d="M598 885h336v-80h-336v-336h-80v336h-336v80h336v336h80v-336zM182 163v80h752v-80h-752z" />
    <glyph glyph-name="uni00B2" unicode="&#xb2;" horiz-adv-x="538" 
d="M251.5 1047.5q63.5 64.5 88 111.5t24.5 93q0 47 -27 71.5t-79 24.5q-62 0 -98 -36.5t-36 -103.5h-49q0 96 52.5 145.5t142.5 49.5q83 0 129 -37.5t46 -105.5q0 -53 -26 -103t-82.5 -106t-154.5 -128v-5h184q33 0 45 10t16 40l7 63h37l-2 -181h-400v38q119 95 182.5 159.5
z" />
    <glyph glyph-name="uni00B3" unicode="&#xb3;" horiz-adv-x="538" 
d="M130.5 867.5q-51.5 38.5 -69.5 111.5l74 30h3q14 -68 47.5 -99.5t94.5 -31.5q53 0 81.5 33.5t28.5 97.5q0 60 -35 87t-110 27h-50v49h56q59 0 86 26.5t27 70.5q0 37 -25.5 57.5t-77.5 20.5q-61 0 -92 -30t-31 -84h-49q0 80 49 125t138 45q78 0 123.5 -33t45.5 -85
q0 -43 -27 -76.5t-63 -43.5v-7q118 -26 118 -147q0 -85 -53 -133.5t-146 -48.5q-92 0 -143.5 38.5z" />
    <glyph glyph-name="acute" unicode="&#xb4;" horiz-adv-x="2048" 
d="M1099 1309q23 82 92 82q37 0 62.5 -25.5t25.5 -60.5q0 -47 -47 -91l-250 -245l-20 14z" />
    <glyph glyph-name="paragraph" unicode="&#xb6;" horiz-adv-x="732" 
d="M696 1334h-125v-1600h-49v1600h-140v-1600h-49v1109q-82 0 -146.5 33.5t-100.5 95t-36 141.5t36 141t100.5 94.5t146.5 33.5h363v-48z" />
    <glyph glyph-name="periodcentered" unicode="&#xb7;" horiz-adv-x="411" 
d="M134 528q-30 29 -30 71q0 43 30 72t73 29t71.5 -29t28.5 -72t-28.5 -71.5t-71.5 -28.5t-73 29z" />
    <glyph glyph-name="cedilla" unicode="&#xb8;" horiz-adv-x="2048" 
d="M1203 -315q0 -58 -32.5 -105t-92 -74.5t-137.5 -27.5q-77 0 -127 18v115l2 2q107 -41 190 -41q67 0 100 23t33 61q0 42 -51.5 68t-169.5 43l58 233h43l-30 -128q214 -43 214 -187z" />
    <glyph glyph-name="uni00B9" unicode="&#xb9;" horiz-adv-x="538" 
d="M188 895q28 4 36.5 15t8.5 41v333q0 20 -6 27.5t-25 9.5l-91 10v31l181 33h17v-444q0 -30 9 -40.5t36 -15.5l77 -7v-38h-320v38z" />
    <glyph glyph-name="ordmasculine" unicode="&#xba;" horiz-adv-x="960" 
d="M279.5 583q-95.5 51 -155 151t-59.5 239q0 133 59.5 230.5t155 148.5t201.5 51q107 0 203 -51t155.5 -148.5t59.5 -230.5q0 -139 -59.5 -239t-155.5 -151t-203 -51q-106 0 -201.5 51zM603 621q56 39 91 126.5t35 225.5q0 135 -35 220t-91 123t-122 38q-65 0 -120.5 -38
t-90.5 -123.5t-35 -219.5q0 -138 35 -225.5t90.5 -126.5t120.5 -39q66 0 122 39zM100 324h760v-66h-760v66z" />
    <glyph glyph-name="guillemotright" unicode="&#xbb;" horiz-adv-x="1062" 
d="M57 6l305 406v6l-305 405l33 25l453 -406v-55l-453 -405zM521 6l305 406v6l-305 405l33 25l453 -406v-55l-453 -405z" />
    <glyph glyph-name="onequarter" unicode="&#xbc;" 
d="M213 895q27 5 36 15.5t9 39.5v334q0 20 -6.5 27.5t-24.5 9.5l-92 10v31l182 33h16v-445q0 -29 9 -39.5t36 -15.5l78 -8v-37h-321v37zM958 1382h68l-805 -1382h-65zM931 140.5q1 7.5 5 15.5l-2 2h-270l-4 47l297 338h51v-281q0 -10 -1 -17.5t-5 -15.5l2 -4h115l-13 -67
h-102l-2 -2q4 -8 5 -15.5t1 -17.5v-123h-78v123q0 10 1 17.5zM936 229q-4 8 -5 15.5t-1 17.5v178h-2l-178 -211l2 -4h182z" />
    <glyph glyph-name="onehalf" unicode="&#xbd;" 
d="M213 895q27 5 36 15.5t9 39.5v334q0 20 -6.5 27.5t-24.5 9.5l-92 10v31l182 33h16v-445q0 -29 9 -39.5t36 -15.5l78 -8v-37h-321v37zM958 1382h68l-805 -1382h-65zM870.5 197.5q63.5 64.5 88 111.5t24.5 92q0 47 -27 72t-79 25q-63 0 -99 -36.5t-36 -103.5h-47
q0 96 52 145.5t142 49.5q83 0 128.5 -37t45.5 -106q0 -53 -26 -103t-82.5 -105.5t-153.5 -127.5v-6h182q34 0 46.5 10t15.5 41l8 63l37 -2l-2 -180h-399v37q118 96 181.5 160.5z" />
    <glyph glyph-name="threequarters" unicode="&#xbe;" 
d="M86 979l73 29h4q13 -66 47 -97.5t95 -31.5q52 0 81 33.5t29 97.5q0 59 -34.5 85.5t-110.5 26.5h-51v49h55q60 0 87.5 26.5t27.5 70.5q0 38 -26 59t-79 21q-61 0 -92 -30t-31 -85h-47q0 80 49 125t138 45q78 0 123 -33.5t45 -85.5q0 -43 -27 -75.5t-64 -43.5v-8
q119 -26 119 -145q0 -86 -53 -134.5t-145 -48.5q-178 0 -213 150zM958 1382h68l-805 -1382h-65zM931 140.5q1 7.5 5 15.5l-2 2h-270l-4 47l297 338h51v-281q0 -10 -1 -17.5t-5 -15.5l2 -4h115l-13 -67h-102l-2 -2q4 -8 5 -15.5t1 -17.5v-123h-78v123q0 10 1 17.5zM936 229
q-4 8 -5 15.5t-1 17.5v178h-2l-178 -211l2 -4h182z" />
    <glyph glyph-name="questiondown" unicode="&#xbf;" horiz-adv-x="713" 
d="M455.5 820.5q29.5 -28.5 29.5 -71.5t-29.5 -71.5t-72.5 -28.5t-72 28.5t-29 71.5t29 71.5t72 28.5t72.5 -28.5zM575 278q21 -74 21 -139q0 -74 -35.5 -108t-114.5 -34h-168q-85 0 -126.5 -50t-41.5 -157q0 -95 33.5 -169.5t100 -117t159.5 -42.5q73 0 134.5 21t119.5 59
h19v-168q-49 -15 -94.5 -24t-98.5 -9q-134 0 -231 65t-147 174t-50 238q0 158 66.5 244t183.5 86h166q55 0 55 55q0 77 -51 201l43 18q36 -69 57 -143z" />
    <glyph glyph-name="Agrave" unicode="&#xc0;" horiz-adv-x="1450" 
d="M475 1595q-1 5 -1 16q0 30 18.5 54t48.5 29q12 2 20 2q37 0 78 -29l301 -180l-8 -25l-346 51q-105 13 -111 82zM84 47q42 7 67 29.5t44 66.5l440 1239h182l438 -1239q19 -43 44.5 -66t66.5 -30l74 -6v-41h-488v41l70 4q31 7 46 21t15 38q0 16 -10 46l-112 319l2 16h-592
l-113 -338q-10 -28 -10 -45q0 -44 57 -57l70 -4v-41h-365v41zM952 541q-14 13 -20 23t-14 32l-248 696v6h-6v-4l-273 -753l-2 -6h561z" />
    <glyph glyph-name="Aacute" unicode="&#xc1;" horiz-adv-x="1450" 
d="M812 1667q42 28 78 28q7 0 21 -2q30 -5 48.5 -28t18.5 -53q0 -5 -2 -17q-3 -34 -31 -55t-79 -27l-346 -51l-9 24zM84 47q42 7 67 29.5t44 66.5l440 1239h182l438 -1239q19 -43 44.5 -66t66.5 -30l74 -6v-41h-488v41l70 4q31 7 46 21t15 38q0 16 -10 46l-112 319l2 16
h-592l-113 -338q-10 -28 -10 -45q0 -44 57 -57l70 -4v-41h-365v41zM952 541q-14 13 -20 23t-14 32l-248 696v6h-6v-4l-273 -753l-2 -6h561z" />
    <glyph glyph-name="Acircumflex" unicode="&#xc2;" horiz-adv-x="1450" 
d="M465 1479l244 241h45l237 -241l-18 -23l-242 133l-248 -133zM84 47q42 7 67 29.5t44 66.5l440 1239h182l438 -1239q19 -43 44.5 -66t66.5 -30l74 -6v-41h-488v41l70 4q31 7 46 21t15 38q0 16 -10 46l-112 319l2 16h-592l-113 -338q-10 -28 -10 -45q0 -44 57 -57l70 -4
v-41h-365v41zM952 541q-14 13 -20 23t-14 32l-248 696v6h-6v-4l-273 -753l-2 -6h561z" />
    <glyph glyph-name="Atilde" unicode="&#xc3;" horiz-adv-x="1450" 
d="M769 1485.5q-36 18.5 -81 54.5q-36 28 -59 41t-51 13q-43 0 -62.5 -27.5t-19.5 -88.5h-50q0 118 43.5 171.5t118.5 53.5q49 0 86 -19t81 -54q34 -27 57.5 -40.5t50.5 -13.5q44 0 64 27.5t20 89.5h47q0 -226 -160 -226q-49 0 -85 18.5zM84 47q42 7 67 29.5t44 66.5
l440 1239h182l438 -1239q19 -43 44.5 -66t66.5 -30l74 -6v-41h-488v41l70 4q31 7 46 21t15 38q0 16 -10 46l-112 319l2 16h-592l-113 -338q-10 -28 -10 -45q0 -44 57 -57l70 -4v-41h-365v41zM952 541q-14 13 -20 23t-14 32l-248 696v6h-6v-4l-273 -753l-2 -6h561z" />
    <glyph glyph-name="Adieresis" unicode="&#xc4;" horiz-adv-x="1450" 
d="M524.5 1511q-28.5 29 -28.5 72t28.5 71.5t71.5 28.5t72 -28.5t29 -71.5t-29 -72t-72 -29t-71.5 29zM794.5 1511q-28.5 29 -28.5 72t28.5 71.5t71.5 28.5t72 -28.5t29 -71.5t-28.5 -72t-72.5 -29q-43 0 -71.5 29zM84 47q42 7 67 29.5t44 66.5l440 1239h182l438 -1239
q19 -43 44.5 -66t66.5 -30l74 -6v-41h-488v41l70 4q31 7 46 21t15 38q0 16 -10 46l-112 319l2 16h-592l-113 -338q-10 -28 -10 -45q0 -44 57 -57l70 -4v-41h-365v41zM952 541q-14 13 -20 23t-14 32l-248 696v6h-6v-4l-273 -753l-2 -6h561z" />
    <glyph glyph-name="Aring" unicode="&#xc5;" horiz-adv-x="1450" 
d="M598.5 1477.5q-59.5 15.5 -94.5 43.5t-35 62q0 33 35 60t94.5 42t130.5 15t130.5 -15t94.5 -42t35 -60q0 -34 -35 -62t-94.5 -43.5t-130.5 -15.5t-130.5 15.5zM823.5 1528q32.5 21 32.5 55q0 31 -33 52.5t-94 21.5t-94 -21.5t-33 -52.5q0 -34 32.5 -55t94.5 -21t94.5 21z
M84 47q42 7 67 29.5t44 66.5l440 1239h182l438 -1239q19 -43 44.5 -66t66.5 -30l74 -6v-41h-488v41l70 4q31 7 46 21t15 38q0 16 -10 46l-112 319l2 16h-592l-113 -338q-10 -28 -10 -45q0 -44 57 -57l70 -4v-41h-365v41zM952 541q-14 13 -20 23t-14 32l-248 696v6h-6v-4
l-273 -753l-2 -6h561z" />
    <glyph glyph-name="AE" unicode="&#xc6;" horiz-adv-x="1975" 
d="M1901 322l-27 -322h-1034v41l92 10q29 5 42.5 13t18.5 22.5t5 44.5v358q1 18 14 33l-4 4h-10v-37q-1 -8 -1 -28v65h-467l-262 -399q-20 -31 -20 -47q0 -12 9.5 -19.5t29.5 -11.5l86 -8v-41h-363v41l68 6q42 6 72.5 26.5t74.5 71.5l773 1109q-1 28 -6 42t-18.5 21
t-41.5 12l-92 12v41h920l24 35h41l45 -344l-32 -10l-117 180q-28 39 -50 57.5t-51 25.5t-79 7h-385l-2 -4q8 -11 10 -23.5t2 -37.5v-445q0 -25 -2 -37.5t-10 -23.5l2 -6h321q40 0 59.5 10.5t40.5 42.5l64 111l35 -9v-358l-35 -8l-64 108q-21 34 -40.5 45t-59.5 11h-321
l-2 -4q8 -13 10 -25t2 -39v-524q0 -27 -2 -39t-10 -25l2 -4h419q51 0 80 6.5t50 24.5t47 55l116 195zM1012 580q-13 14 -14 31v566l-433 -602h432v64q0 -20 1 -28v-36h10z" />
    <glyph glyph-name="Ccedilla" unicode="&#xc7;" horiz-adv-x="1306" 
d="M1023.5 67.5q-127.5 -79.5 -302.5 -86.5l-25 -109q215 -43 215 -187q0 -58 -32.5 -105t-92 -74.5t-137.5 -27.5q-77 0 -127 18v115l2 2q107 -41 190 -41q67 0 100 23t33 61q0 42 -51.5 68t-169.5 43l52 213q-185 3 -319.5 88t-205.5 238t-71 356q0 216 78 384.5
t217.5 262.5t318.5 94q124 0 223 -39.5t166 -95.5h7l47 114h41v-393h-41q-70 177 -176.5 271t-268.5 94q-135 0 -233 -73t-150.5 -212.5t-52.5 -335.5q0 -206 59.5 -352t173.5 -222.5t273 -76.5q275 0 438 215l35 -23q-86 -127 -213.5 -206.5z" />
    <glyph glyph-name="Egrave" unicode="&#xc8;" horiz-adv-x="1217" 
d="M371 1595q-1 5 -1 16q0 30 18.5 54t48.5 29q14 2 20 2q37 0 78 -29l301 -180l-8 -25l-346 51q-105 13 -111 82zM174 51q29 5 42.5 13t18.5 22.5t5 44.5v1118q0 30 -5 45t-18.5 22.5t-42.5 12.5l-92 12v41h919l25 35h41l45 -344l-33 -10l-116 180q-28 39 -50 57.5
t-51 25.5t-80 7h-385l-2 -4q9 -11 11 -23.5t2 -37.5v-445q0 -25 -2 -37.5t-11 -23.5l2 -6h322q40 0 59.5 10.5t40.5 42.5l64 111l35 -9v-358l-35 -8l-64 108q-21 34 -40.5 45t-59.5 11h-322l-2 -4q9 -13 11 -25t2 -39v-524q0 -27 -2 -39t-11 -25l2 -4h420q51 0 79.5 6.5
t50 24.5t46.5 55l117 195l33 -8l-27 -322h-1034v41z" />
    <glyph glyph-name="Eacute" unicode="&#xc9;" horiz-adv-x="1217" 
d="M709 1667q42 28 78 28q6 0 20 -2q30 -5 48.5 -28.5t18.5 -53.5q0 -85 -112 -98l-346 -51l-8 24zM174 51q29 5 42.5 13t18.5 22.5t5 44.5v1118q0 30 -5 45t-18.5 22.5t-42.5 12.5l-92 12v41h919l25 35h41l45 -344l-33 -10l-116 180q-28 39 -50 57.5t-51 25.5t-80 7h-385
l-2 -4q9 -11 11 -23.5t2 -37.5v-445q0 -25 -2 -37.5t-11 -23.5l2 -6h322q40 0 59.5 10.5t40.5 42.5l64 111l35 -9v-358l-35 -8l-64 108q-21 34 -40.5 45t-59.5 11h-322l-2 -4q9 -13 11 -25t2 -39v-524q0 -27 -2 -39t-11 -25l2 -4h420q51 0 79.5 6.5t50 24.5t46.5 55l117 195
l33 -8l-27 -322h-1034v41z" />
    <glyph glyph-name="Ecircumflex" unicode="&#xca;" horiz-adv-x="1217" 
d="M361 1479l244 241h45l237 -241l-18 -23l-242 133l-247 -133zM174 51q29 5 42.5 13t18.5 22.5t5 44.5v1118q0 30 -5 45t-18.5 22.5t-42.5 12.5l-92 12v41h919l25 35h41l45 -344l-33 -10l-116 180q-28 39 -50 57.5t-51 25.5t-80 7h-385l-2 -4q9 -11 11 -23.5t2 -37.5v-445
q0 -25 -2 -37.5t-11 -23.5l2 -6h322q40 0 59.5 10.5t40.5 42.5l64 111l35 -9v-358l-35 -8l-64 108q-21 34 -40.5 45t-59.5 11h-322l-2 -4q9 -13 11 -25t2 -39v-524q0 -27 -2 -39t-11 -25l2 -4h420q51 0 79.5 6.5t50 24.5t46.5 55l117 195l33 -8l-27 -322h-1034v41z" />
    <glyph glyph-name="Edieresis" unicode="&#xcb;" horiz-adv-x="1217" 
d="M420.5 1511q-28.5 29 -28.5 72t28.5 71.5t71.5 28.5t72 -28.5t29 -71.5t-28.5 -72t-72.5 -29q-43 0 -71.5 29zM690.5 1511q-28.5 29 -28.5 72t28.5 71.5t71.5 28.5t72 -28.5t29 -71.5t-28.5 -72t-72.5 -29q-43 0 -71.5 29zM174 51q29 5 42.5 13t18.5 22.5t5 44.5v1118
q0 30 -5 45t-18.5 22.5t-42.5 12.5l-92 12v41h919l25 35h41l45 -344l-33 -10l-116 180q-28 39 -50 57.5t-51 25.5t-80 7h-385l-2 -4q9 -11 11 -23.5t2 -37.5v-445q0 -25 -2 -37.5t-11 -23.5l2 -6h322q40 0 59.5 10.5t40.5 42.5l64 111l35 -9v-358l-35 -8l-64 108
q-21 34 -40.5 45t-59.5 11h-322l-2 -4q9 -13 11 -25t2 -39v-524q0 -27 -2 -39t-11 -25l2 -4h420q51 0 79.5 6.5t50 24.5t46.5 55l117 195l33 -8l-27 -322h-1034v41z" />
    <glyph glyph-name="Igrave" unicode="&#xcc;" horiz-adv-x="647" 
d="M68 1595q-1 5 -1 16q0 31 18 54.5t48 28.5q14 2 20 2q38 0 79 -29l301 -180l-9 -25l-346 51q-104 14 -110 82zM174 51q29 5 42.5 13t18.5 22.5t5 44.5v1120q0 29 -5 43.5t-18.5 22t-42.5 12.5l-92 12v41h483v-41l-92 -12q-28 -5 -41.5 -12.5t-18.5 -22t-5 -43.5v-1120
q0 -29 5 -44t18.5 -23t41.5 -13l92 -10v-41h-483v41z" />
    <glyph glyph-name="Iacute" unicode="&#xcd;" horiz-adv-x="647" 
d="M405 1667q42 28 78 28q8 0 20 -2q30 -5 48.5 -28.5t18.5 -53.5q0 -11 -1 -16q-3 -34 -31 -55t-80 -27l-346 -51l-8 24zM174 51q29 5 42.5 13t18.5 22.5t5 44.5v1120q0 29 -5 43.5t-18.5 22t-42.5 12.5l-92 12v41h483v-41l-92 -12q-28 -5 -41.5 -12.5t-18.5 -22t-5 -43.5
v-1120q0 -29 5 -44t18.5 -23t41.5 -13l92 -10v-41h-483v41z" />
    <glyph glyph-name="Icircumflex" unicode="&#xce;" horiz-adv-x="647" 
d="M57 1479l244 241h45l238 -241l-19 -23l-241 133l-248 -133zM174 51q29 5 42.5 13t18.5 22.5t5 44.5v1120q0 29 -5 43.5t-18.5 22t-42.5 12.5l-92 12v41h483v-41l-92 -12q-28 -5 -41.5 -12.5t-18.5 -22t-5 -43.5v-1120q0 -29 5 -44t18.5 -23t41.5 -13l92 -10v-41h-483v41z
" />
    <glyph glyph-name="Idieresis" unicode="&#xcf;" horiz-adv-x="647" 
d="M117 1511q-29 29 -29 72t29 71.5t72 28.5t71.5 -28.5t28.5 -71.5t-28.5 -72t-71.5 -29t-72 29zM387 1511q-29 29 -29 72t29 71.5t72 28.5t71.5 -28.5t28.5 -71.5t-28.5 -72t-71.5 -29t-72 29zM174 51q29 5 42.5 13t18.5 22.5t5 44.5v1120q0 29 -5 43.5t-18.5 22
t-42.5 12.5l-92 12v41h483v-41l-92 -12q-28 -5 -41.5 -12.5t-18.5 -22t-5 -43.5v-1120q0 -29 5 -44t18.5 -23t41.5 -13l92 -10v-41h-483v41z" />
    <glyph glyph-name="Eth" unicode="&#xd0;" horiz-adv-x="1454" 
d="M1041 1306q155 -76 243 -226t88 -365q0 -222 -86 -383.5t-241.5 -246.5t-358.5 -85h-604v41l92 12q29 5 42.5 12.5t18.5 22t5 43.5v565h-154l20 74h134v479q0 30 -5 45t-18.5 22.5t-42.5 12.5l-92 12v41h602q202 0 357 -76zM1063.5 216.5q128.5 167.5 128.5 498.5
q0 318 -130.5 468t-395.5 150h-271l-2 -4q10 -12 12.5 -25t2.5 -40v-494h432l-21 -74h-411v-577q0 -27 -2.5 -39.5t-12.5 -24.5l2 -6h273q267 0 395.5 167.5z" />
    <glyph glyph-name="Ntilde" unicode="&#xd1;" horiz-adv-x="1429" 
d="M780 1485.5q-36 18.5 -81 54.5q-36 28 -59.5 41t-51.5 13q-43 0 -62.5 -27.5t-19.5 -88.5h-49q0 118 43.5 171.5t118.5 53.5q49 0 86 -19t80 -54q34 -27 57.5 -40.5t50.5 -13.5q45 0 64.5 27.5t19.5 89.5h48q0 -226 -160 -226q-49 0 -85 18.5zM293 1290l6 -1159
q0 -30 5.5 -45.5t20 -23.5t44.5 -13l88 -8v-41h-375v41l88 8q42 8 56 24t14 58v1120q0 29 -5 43.5t-18.5 22t-42.5 12.5l-92 12v41h358l670 -1056q18 -32 35 -72h6l-6 997q0 43 -14.5 58.5t-57.5 23.5l-86 8v41h373v-41l-86 -8q-43 -8 -57.5 -23.5t-14.5 -58.5v-1265h-76
l-827 1304h-6z" />
    <glyph glyph-name="Ograve" unicode="&#xd2;" horiz-adv-x="1425" 
d="M456 1595q-1 5 -1 16q0 30 18.5 54t48.5 29q14 2 20 2q37 0 78 -29l301 -180l-8 -25l-346 51q-105 13 -111 82zM403 66q-145 86 -233 247.5t-88 378.5q0 218 88 379.5t233 246.5t310 85q166 0 310.5 -85t232 -246.5t87.5 -379.5q0 -217 -88 -378.5t-232.5 -247.5
t-309.5 -86t-310 86zM1041.5 189.5q121.5 160.5 121.5 502.5q0 344 -121.5 503t-328.5 159q-208 0 -330.5 -159.5t-122.5 -502.5q0 -230 58 -378t159.5 -216.5t235.5 -68.5q207 0 328.5 160.5z" />
    <glyph glyph-name="Oacute" unicode="&#xd3;" horiz-adv-x="1425" 
d="M794 1667q42 28 78 28q6 0 20 -2q30 -5 48.5 -28.5t18.5 -53.5q0 -85 -112 -98l-346 -51l-8 24zM403 66q-145 86 -233 247.5t-88 378.5q0 218 88 379.5t233 246.5t310 85q166 0 310.5 -85t232 -246.5t87.5 -379.5q0 -217 -88 -378.5t-232.5 -247.5t-309.5 -86t-310 86z
M1041.5 189.5q121.5 160.5 121.5 502.5q0 344 -121.5 503t-328.5 159q-208 0 -330.5 -159.5t-122.5 -502.5q0 -230 58 -378t159.5 -216.5t235.5 -68.5q207 0 328.5 160.5z" />
    <glyph glyph-name="Ocircumflex" unicode="&#xd4;" horiz-adv-x="1425" 
d="M446 1479l244 241h45l237 -241l-18 -23l-242 133l-247 -133zM403 66q-145 86 -233 247.5t-88 378.5q0 218 88 379.5t233 246.5t310 85q166 0 310.5 -85t232 -246.5t87.5 -379.5q0 -217 -88 -378.5t-232.5 -247.5t-309.5 -86t-310 86zM1041.5 189.5
q121.5 160.5 121.5 502.5q0 344 -121.5 503t-328.5 159q-208 0 -330.5 -159.5t-122.5 -502.5q0 -230 58 -378t159.5 -216.5t235.5 -68.5q207 0 328.5 160.5z" />
    <glyph glyph-name="Otilde" unicode="&#xd5;" horiz-adv-x="1425" 
d="M750 1485.5q-36 18.5 -81 54.5q-36 28 -59 41t-51 13q-43 0 -62.5 -27.5t-19.5 -88.5h-49q0 118 43 171.5t119 53.5q49 0 86 -19t80 -54q34 -27 57.5 -40.5t50.5 -13.5q44 0 64 27.5t20 89.5h47q0 -226 -160 -226q-49 0 -85 18.5zM403 66q-145 86 -233 247.5t-88 378.5
q0 218 88 379.5t233 246.5t310 85q166 0 310.5 -85t232 -246.5t87.5 -379.5q0 -217 -88 -378.5t-232.5 -247.5t-309.5 -86t-310 86zM1041.5 189.5q121.5 160.5 121.5 502.5q0 344 -121.5 503t-328.5 159q-208 0 -330.5 -159.5t-122.5 -502.5q0 -230 58 -378t159.5 -216.5
t235.5 -68.5q207 0 328.5 160.5z" />
    <glyph glyph-name="Odieresis" unicode="&#xd6;" horiz-adv-x="1425" 
d="M505.5 1511q-28.5 29 -28.5 72t28.5 71.5t71.5 28.5t72 -28.5t29 -71.5t-28.5 -72t-72.5 -29q-43 0 -71.5 29zM775.5 1511q-28.5 29 -28.5 72t28.5 71.5t71.5 28.5t72 -28.5t29 -71.5t-28.5 -72t-72.5 -29q-43 0 -71.5 29zM403 66q-145 86 -233 247.5t-88 378.5
q0 218 88 379.5t233 246.5t310 85q166 0 310.5 -85t232 -246.5t87.5 -379.5q0 -217 -88 -378.5t-232.5 -247.5t-309.5 -86t-310 86zM1041.5 189.5q121.5 160.5 121.5 502.5q0 344 -121.5 503t-328.5 159q-208 0 -330.5 -159.5t-122.5 -502.5q0 -230 58 -378t159.5 -216.5
t235.5 -68.5q207 0 328.5 160.5z" />
    <glyph glyph-name="multiply" unicode="&#xd7;" 
d="M916 992l-301 -301l301 -301l-56 -56l-301 301l-301 -301l-57 56l302 302l-302 301l57 56l301 -301l301 301z" />
    <glyph glyph-name="Oslash" unicode="&#xd8;" horiz-adv-x="1425" 
d="M1297 975.5q46 -127.5 46 -283.5q0 -217 -88 -378.5t-232.5 -247.5t-309.5 -86q-115 0 -222.5 42.5t-193.5 123.5l-121 -146h-76l156 189q-82 93 -128 221t-46 282q0 218 88 379.5t233 246.5t310 85q115 0 222.5 -42t192.5 -122l119 143h76l-154 -185q82 -94 128 -221.5z
M332 280l732 881q-59 99 -148.5 146t-202.5 47q-208 0 -330.5 -159.5t-122.5 -502.5q0 -254 72 -412zM1041.5 189.5q121.5 160.5 121.5 502.5q0 255 -70 412l-732 -881q60 -99 150 -146.5t202 -47.5q207 0 328.5 160.5z" />
    <glyph glyph-name="Ugrave" unicode="&#xd9;" horiz-adv-x="1382" 
d="M499 1595q-1 5 -1 16q0 36 24 60.5t63 24.5q37 0 78 -29l301 -180l-8 -25l-346 51q-105 13 -111 82zM343 90q-116 108 -116 318v843q0 29 -5.5 43.5t-19 22t-42.5 12.5l-90 12v41h481v-41l-90 -12q-28 -4 -42 -11.5t-19 -22.5t-5 -44v-833q0 -180 84 -270.5t269 -90.5
q177 0 269.5 92t90.5 259l-10 843q0 29 -6 44.5t-20.5 23t-43.5 12.5l-88 10v41h373v-41l-86 -10q-31 -5 -45.5 -12.5t-20.5 -22.5t-6 -45v-850q0 -132 -53.5 -226t-157 -143.5t-250.5 -49.5q-235 0 -351 108z" />
    <glyph glyph-name="Uacute" unicode="&#xda;" horiz-adv-x="1382" 
d="M836 1667q42 28 78 28q7 0 21 -2q30 -5 48 -28.5t18 -53.5q0 -11 -1 -16q-3 -34 -31 -55t-79 -27l-347 -51l-8 24zM343 90q-116 108 -116 318v843q0 29 -5.5 43.5t-19 22t-42.5 12.5l-90 12v41h481v-41l-90 -12q-28 -4 -42 -11.5t-19 -22.5t-5 -44v-833q0 -180 84 -270.5
t269 -90.5q177 0 269.5 92t90.5 259l-10 843q0 29 -6 44.5t-20.5 23t-43.5 12.5l-88 10v41h373v-41l-86 -10q-31 -5 -45.5 -12.5t-20.5 -22.5t-6 -45v-850q0 -132 -53.5 -226t-157 -143.5t-250.5 -49.5q-235 0 -351 108z" />
    <glyph glyph-name="Ucircumflex" unicode="&#xdb;" horiz-adv-x="1382" 
d="M489 1479l243 241h46l237 -241l-18 -23l-242 133l-248 -133zM343 90q-116 108 -116 318v843q0 29 -5.5 43.5t-19 22t-42.5 12.5l-90 12v41h481v-41l-90 -12q-28 -4 -42 -11.5t-19 -22.5t-5 -44v-833q0 -180 84 -270.5t269 -90.5q177 0 269.5 92t90.5 259l-10 843
q0 29 -6 44.5t-20.5 23t-43.5 12.5l-88 10v41h373v-41l-86 -10q-31 -5 -45.5 -12.5t-20.5 -22.5t-6 -45v-850q0 -132 -53.5 -226t-157 -143.5t-250.5 -49.5q-235 0 -351 108z" />
    <glyph glyph-name="Udieresis" unicode="&#xdc;" horiz-adv-x="1382" 
d="M548.5 1511q-28.5 29 -28.5 72t28.5 71.5t71.5 28.5t71.5 -28.5t28.5 -71.5t-28.5 -72t-71.5 -29t-71.5 29zM818.5 1511q-28.5 29 -28.5 72t28.5 71.5t71.5 28.5t71.5 -28.5t28.5 -71.5t-28.5 -72t-71.5 -29t-71.5 29zM343 90q-116 108 -116 318v843q0 29 -5.5 43.5
t-19 22t-42.5 12.5l-90 12v41h481v-41l-90 -12q-28 -4 -42 -11.5t-19 -22.5t-5 -44v-833q0 -180 84 -270.5t269 -90.5q177 0 269.5 92t90.5 259l-10 843q0 29 -6 44.5t-20.5 23t-43.5 12.5l-88 10v41h373v-41l-86 -10q-31 -5 -45.5 -12.5t-20.5 -22.5t-6 -45v-850
q0 -132 -53.5 -226t-157 -143.5t-250.5 -49.5q-235 0 -351 108z" />
    <glyph glyph-name="Yacute" unicode="&#xdd;" horiz-adv-x="1396" 
d="M848 1667q42 28 78 28q6 0 20 -2q30 -5 48.5 -28.5t18.5 -53.5q0 -11 -1 -16q-3 -34 -31 -55t-80 -27l-346 -51l-8 24zM545 51q29 4 43 12t19 23t5 45v438l-401 674q-27 44 -53.5 64.5t-69.5 27.5l-72 6v41h496v-41l-80 -8q-50 -8 -50 -38q0 -17 17 -46l361 -600v-8h6v8
l364 600q17 29 17 46q0 30 -49 38l-80 8v41h360v-41l-71 -6q-43 -7 -69.5 -27t-55.5 -65l-402 -672v-440q0 -30 5.5 -45t20 -23t44.5 -12l119 -10v-41h-543v41z" />
    <glyph glyph-name="Thorn" unicode="&#xde;" horiz-adv-x="1246" 
d="M174 52q29 5 42.5 12.5t18.5 22.5t5 44v1118q0 30 -5 45t-18.5 23t-42.5 13l-92 11v41h484v-41l-92 -11q-29 -5 -42.5 -12t-18.5 -21.5t-5 -43.5v-87q0 -29 -2.5 -41t-12.5 -24l3 -5h296q160 0 270 -46.5t165 -128t55 -184.5q0 -102 -55.5 -189.5t-166 -141t-267.5 -53.5
h-297l-3 -5q10 -13 12.5 -24.5t2.5 -41.5v-155q0 -40 13.5 -55.5t55.5 -20.5l124 -10v-41h-519v41zM865 444.5q70 43.5 104 120t34 174.5q0 148 -77.5 228t-233.5 80h-296l-3 -5q10 -12 12.5 -24.5t2.5 -40.5v-505q0 -27 -2.5 -40t-12.5 -25l3 -6h297q102 0 172 43.5z" />
    <glyph glyph-name="germandbls" unicode="&#xdf;" horiz-adv-x="1115" 
d="M100 -522q27 4 40 11.5t18 21.5t5 43v1351q0 167 56 278.5t154.5 165.5t226.5 54q157 0 236.5 -56.5t79.5 -152.5q0 -57 -27 -101.5t-65.5 -76t-102.5 -74.5q-55 -37 -87 -62.5t-53.5 -58t-21.5 -71.5q0 -47 27 -81.5t66.5 -58t110.5 -57.5q88 -42 142.5 -76.5
t92.5 -91.5t38 -139q0 -122 -77 -194t-221 -72q-52 0 -94 6t-101 17q-53 11 -67 12v200h25l24 -45q83 -141 235 -141q72 0 111 38.5t39 109.5q0 52 -25 89.5t-62 62t-103 59.5q-78 40 -126 74t-82 90.5t-34 139.5q0 54 18 98.5t44.5 78.5t70.5 80q44 48 69.5 80t43 75
t17.5 95q0 151 -162 151q-127 0 -195.5 -82.5t-68.5 -241.5v-1472q0 -29 5 -43t17.5 -21t40.5 -12l87 -10v-41h-452v41z" />
    <glyph glyph-name="agrave" unicode="&#xe0;" horiz-adv-x="864" 
d="M142 1305q0 35 25.5 60.5t62.5 25.5q69 0 93 -82l137 -326l-21 -14l-250 245q-47 46 -47 91zM133.5 22.5q-55.5 42.5 -55.5 116.5q0 49 25 87t77 67l342 178l2 4q-6 12 -6 33v170q0 108 -131 108q-51 0 -90.5 -16t-61.5 -43.5t-22 -60.5v-45h-147q-7 9 -7 16
q0 45 60.5 95.5t155 84t188.5 33.5q209 0 209 -172v-541q0 -36 12.5 -48.5t48.5 -12.5h96v-39l-67 -33q-29 -9 -49 -13.5t-45 -4.5q-132 0 -136 100v27h-4q-33 -61 -96.5 -97t-146.5 -36q-96 0 -151.5 42.5zM473 113q45 39 45 112v135q0 21 1 30t7 22l-4 4l-223 -129
q-36 -23 -52 -47.5t-16 -57.5q0 -52 34 -80t93 -28q70 0 115 39z" />
    <glyph glyph-name="aacute" unicode="&#xe1;" horiz-adv-x="864" 
d="M463 1309q23 82 92 82q37 0 62.5 -25.5t25.5 -60.5q0 -47 -47 -91l-250 -245l-20 14zM133.5 22.5q-55.5 42.5 -55.5 116.5q0 49 25 87t77 67l342 178l2 4q-6 12 -6 33v170q0 108 -131 108q-51 0 -90.5 -16t-61.5 -43.5t-22 -60.5v-45h-147q-7 9 -7 16q0 45 60.5 95.5
t155 84t188.5 33.5q209 0 209 -172v-541q0 -36 12.5 -48.5t48.5 -12.5h96v-39l-67 -33q-29 -9 -49 -13.5t-45 -4.5q-132 0 -136 100v27h-4q-33 -61 -96.5 -97t-146.5 -36q-96 0 -151.5 42.5zM473 113q45 39 45 112v135q0 21 1 30t7 22l-4 4l-223 -129q-36 -23 -52 -47.5
t-16 -57.5q0 -52 34 -80t93 -28q70 0 115 39z" />
    <glyph glyph-name="acircumflex" unicode="&#xe2;" horiz-adv-x="864" 
d="M167 985l199 397h45l198 -397l-22 -16l-199 221l-199 -221zM133.5 22.5q-55.5 42.5 -55.5 116.5q0 49 25 87t77 67l342 178l2 4q-6 12 -6 33v170q0 108 -131 108q-51 0 -90.5 -16t-61.5 -43.5t-22 -60.5v-45h-147q-7 9 -7 16q0 45 60.5 95.5t155 84t188.5 33.5
q209 0 209 -172v-541q0 -36 12.5 -48.5t48.5 -12.5h96v-39l-67 -33q-29 -9 -49 -13.5t-45 -4.5q-132 0 -136 100v27h-4q-33 -61 -96.5 -97t-146.5 -36q-96 0 -151.5 42.5zM473 113q45 39 45 112v135q0 21 1 30t7 22l-4 4l-223 -129q-36 -23 -52 -47.5t-16 -57.5
q0 -52 34 -80t93 -28q70 0 115 39z" />
    <glyph glyph-name="atilde" unicode="&#xe3;" horiz-adv-x="864" 
d="M426 1081.5q-36 18.5 -80 53.5q-36 28 -60 41.5t-52 13.5q-43 0 -62 -27.5t-19 -89.5h-50q0 118 43 171.5t119 53.5q49 0 86 -19t81 -54q34 -27 57.5 -40.5t50.5 -13.5q44 0 64 27.5t20 89.5h47q0 -225 -160 -225q-49 0 -85 18.5zM133.5 22.5q-55.5 42.5 -55.5 116.5
q0 49 25 87t77 67l342 178l2 4q-6 12 -6 33v170q0 108 -131 108q-51 0 -90.5 -16t-61.5 -43.5t-22 -60.5v-45h-147q-7 9 -7 16q0 45 60.5 95.5t155 84t188.5 33.5q209 0 209 -172v-541q0 -36 12.5 -48.5t48.5 -12.5h96v-39l-67 -33q-29 -9 -49 -13.5t-45 -4.5
q-132 0 -136 100v27h-4q-33 -61 -96.5 -97t-146.5 -36q-96 0 -151.5 42.5zM473 113q45 39 45 112v135q0 21 1 30t7 22l-4 4l-223 -129q-36 -23 -52 -47.5t-16 -57.5q0 -52 34 -80t93 -28q70 0 115 39z" />
    <glyph glyph-name="adieresis" unicode="&#xe4;" horiz-adv-x="864" 
d="M181.5 1108.5q-28.5 28.5 -28.5 71.5t28.5 72t71.5 29t71.5 -29t28.5 -72t-28.5 -71.5t-71.5 -28.5t-71.5 28.5zM451.5 1108.5q-28.5 28.5 -28.5 71.5t28.5 72t71.5 29t71.5 -29t28.5 -72t-28.5 -71.5t-71.5 -28.5t-71.5 28.5zM133.5 22.5q-55.5 42.5 -55.5 116.5
q0 49 25 87t77 67l342 178l2 4q-6 12 -6 33v170q0 108 -131 108q-51 0 -90.5 -16t-61.5 -43.5t-22 -60.5v-45h-147q-7 9 -7 16q0 45 60.5 95.5t155 84t188.5 33.5q209 0 209 -172v-541q0 -36 12.5 -48.5t48.5 -12.5h96v-39l-67 -33q-29 -9 -49 -13.5t-45 -4.5
q-132 0 -136 100v27h-4q-33 -61 -96.5 -97t-146.5 -36q-96 0 -151.5 42.5zM473 113q45 39 45 112v135q0 21 1 30t7 22l-4 4l-223 -129q-36 -23 -52 -47.5t-16 -57.5q0 -52 34 -80t93 -28q70 0 115 39z" />
    <glyph glyph-name="aring" unicode="&#xe5;" horiz-adv-x="864" 
d="M273.5 1039q-50.5 21 -79.5 58t-29 83q0 45 29 82t79.5 58t112.5 21t112.5 -21t79.5 -58t29 -82q0 -46 -29 -83t-79.5 -58t-112.5 -21t-112.5 21zM461.5 1096q26.5 33 26.5 84t-26.5 84.5t-75.5 33.5t-75.5 -33.5t-26.5 -84.5t26.5 -84t75.5 -33t75.5 33zM133.5 22.5
q-55.5 42.5 -55.5 116.5q0 49 25 87t77 67l342 178l2 4q-6 12 -6 33v170q0 108 -131 108q-51 0 -90.5 -16t-61.5 -43.5t-22 -60.5v-45h-147q-7 9 -7 16q0 45 60.5 95.5t155 84t188.5 33.5q209 0 209 -172v-541q0 -36 12.5 -48.5t48.5 -12.5h96v-39l-67 -33q-29 -9 -49 -13.5
t-45 -4.5q-132 0 -136 100v27h-4q-33 -61 -96.5 -97t-146.5 -36q-96 0 -151.5 42.5zM473 113q45 39 45 112v135q0 21 1 30t7 22l-4 4l-223 -129q-36 -23 -52 -47.5t-16 -57.5q0 -52 34 -80t93 -28q70 0 115 39z" />
    <glyph glyph-name="ae" unicode="&#xe6;" horiz-adv-x="1348" 
d="M1283 158q-67 -79 -154.5 -128.5t-207.5 -49.5q-134 0 -225.5 56.5t-134.5 158.5q-16 -106 -92 -160.5t-188 -54.5q-96 0 -151.5 42.5t-55.5 116.5q0 50 24 86.5t78 65.5l342 178l2 4q-6 12 -6 33v172q0 108 -131 108q-52 0 -91.5 -16t-61 -43t-21.5 -61v-45h-139
q-15 3 -15 16q0 45 60.5 95.5t155 84t188.5 33.5q83 0 130.5 -29t60.5 -90q56 58 130 88.5t153 30.5q87 0 157.5 -36.5t117 -100.5t65.5 -146l-8 -14h-603q-3 -28 -3 -59q0 -121 40.5 -213.5t120 -144.5t193.5 -52q81 0 138 25t108 73zM746 736q-53 -44 -74 -130h405l2 6
l-5 6q-21 71 -73 116.5t-129 45.5q-73 0 -126 -44zM515.5 385q1.5 10 6.5 25l-4 4l-223 -127q-37 -25 -52.5 -49t-15.5 -58q0 -50 34.5 -78t94.5 -28q70 0 114 40t44 117v123q0 21 1.5 31z" />
    <glyph glyph-name="ccedilla" unicode="&#xe7;" horiz-adv-x="839" 
d="M647.5 34.5q-77.5 -48.5 -181.5 -53.5l-25 -109q214 -43 214 -187q0 -58 -32.5 -105t-92 -74.5t-137.5 -27.5q-75 0 -127 18v115l2 2q107 -41 191 -41q67 0 100 23t33 61q0 41 -52 67.5t-169 43.5l52 213q-113 4 -194.5 56.5t-123.5 142.5t-42 208q0 140 58 245
t156 161.5t215 56.5q116 0 231 -53v-166h-18q-112 84 -175.5 114.5t-121.5 30.5q-98 0 -153.5 -74t-55.5 -208q0 -121 40 -214t116 -144.5t180 -51.5q73 0 126.5 24.5t102.5 71.5l27 -22q-66 -75 -143.5 -123.5z" />
    <glyph glyph-name="egrave" unicode="&#xe8;" horiz-adv-x="888" 
d="M213 1305q0 35 25.5 60.5t62.5 25.5q69 0 92 -82l138 -326l-21 -14l-250 245q-47 46 -47 91zM823 158q-67 -79 -154.5 -128.5t-207.5 -49.5q-128 0 -217.5 52t-135 145t-45.5 216q0 140 57.5 243.5t151.5 158.5t201 55q87 0 157.5 -36.5t117 -100.5t65.5 -146l-8 -14
h-603q-3 -28 -3 -59q0 -121 40.5 -213.5t120 -144.5t193.5 -52q81 0 138 25t108 73zM286 736q-53 -44 -74 -130h404l2 6l-4 6q-21 71 -73 116.5t-129 45.5q-73 0 -126 -44z" />
    <glyph glyph-name="eacute" unicode="&#xe9;" horiz-adv-x="888" 
d="M417 969l-20 14l137 326q23 82 92 82q37 0 62.5 -25.5t25.5 -60.5q0 -47 -47 -91zM823 158q-67 -79 -154.5 -128.5t-207.5 -49.5q-128 0 -217.5 52t-135 145t-45.5 216q0 140 57.5 243.5t151.5 158.5t201 55q87 0 157.5 -36.5t117 -100.5t65.5 -146l-8 -14h-603
q-3 -28 -3 -59q0 -121 40.5 -213.5t120 -144.5t193.5 -52q81 0 138 25t108 73zM286 736q-53 -44 -74 -130h404l2 6l-4 6q-21 71 -73 116.5t-129 45.5q-73 0 -126 -44z" />
    <glyph glyph-name="ecircumflex" unicode="&#xea;" horiz-adv-x="888" 
d="M459 1190l-199 -221l-22 16l198 397h46l198 -397l-22 -16zM823 158q-67 -79 -154.5 -128.5t-207.5 -49.5q-128 0 -217.5 52t-135 145t-45.5 216q0 140 57.5 243.5t151.5 158.5t201 55q87 0 157.5 -36.5t117 -100.5t65.5 -146l-8 -14h-603q-3 -28 -3 -59
q0 -121 40.5 -213.5t120 -144.5t193.5 -52q81 0 138 25t108 73zM286 736q-53 -44 -74 -130h404l2 6l-4 6q-21 71 -73 116.5t-129 45.5q-73 0 -126 -44z" />
    <glyph glyph-name="edieresis" unicode="&#xeb;" horiz-adv-x="888" 
d="M252.5 1108.5q-28.5 28.5 -28.5 71.5t28.5 72t71.5 29t71.5 -29t28.5 -72t-28.5 -71.5t-71.5 -28.5t-71.5 28.5zM522.5 1108.5q-28.5 28.5 -28.5 71.5t28.5 72t71.5 29t71.5 -29t28.5 -72t-28.5 -71.5t-71.5 -28.5t-71.5 28.5zM823 158q-67 -79 -154.5 -128.5
t-207.5 -49.5q-128 0 -217.5 52t-135 145t-45.5 216q0 140 57.5 243.5t151.5 158.5t201 55q87 0 157.5 -36.5t117 -100.5t65.5 -146l-8 -14h-603q-3 -28 -3 -59q0 -121 40.5 -213.5t120 -144.5t193.5 -52q81 0 138 25t108 73zM286 736q-53 -44 -74 -130h404l2 6l-4 6
q-21 71 -73 116.5t-129 45.5q-73 0 -126 -44z" />
    <glyph glyph-name="igrave" unicode="&#xec;" horiz-adv-x="562" 
d="M35 1305q0 35 25.5 60.5t62.5 25.5q69 0 93 -82l137 -326l-21 -14l-250 245q-47 46 -47 91zM154 51q39 6 51 21t12 55v567q0 26 -8 35t-33 14l-113 15v35l281 49l25 -13v-702q0 -40 12 -55t51 -21l90 -10v-41h-459v41z" />
    <glyph glyph-name="iacute" unicode="&#xed;" horiz-adv-x="562" 
d="M356 1309q23 82 92 82q37 0 62.5 -25.5t25.5 -60.5q0 -47 -47 -91l-250 -245l-20 14zM154 51q39 6 51 21t12 55v567q0 26 -8 35t-33 14l-113 15v35l281 49l25 -13v-702q0 -40 12 -55t51 -21l90 -10v-41h-459v41z" />
    <glyph glyph-name="icircumflex" unicode="&#xee;" horiz-adv-x="562" 
d="M60 985l199 397h45l198 -397l-22 -16l-199 221l-199 -221zM154 51q39 6 51 21t12 55v567q0 26 -8 35t-33 14l-113 15v35l281 49l25 -13v-702q0 -40 12 -55t51 -21l90 -10v-41h-459v41z" />
    <glyph glyph-name="idieresis" unicode="&#xef;" horiz-adv-x="562" 
d="M74.5 1108.5q-28.5 28.5 -28.5 71.5t28.5 72t71.5 29t71.5 -29t28.5 -72t-28.5 -71.5t-71.5 -28.5t-71.5 28.5zM344.5 1108.5q-28.5 28.5 -28.5 71.5t28.5 72t71.5 29t71.5 -29t28.5 -72t-28.5 -71.5t-71.5 -28.5t-71.5 28.5zM154 51q39 6 51 21t12 55v567q0 26 -8 35
t-33 14l-113 15v35l281 49l25 -13v-702q0 -40 12 -55t51 -21l90 -10v-41h-459v41z" />
    <glyph glyph-name="eth" unicode="&#xf0;" horiz-adv-x="946" 
d="M816.5 914.5q67.5 -169.5 67.5 -359.5q0 -192 -56.5 -321t-153.5 -191.5t-220 -62.5q-118 0 -206 44.5t-136.5 134t-48.5 220.5q0 153 60.5 259.5t158.5 159t210 52.5q97 0 190 -39q-45 176 -142 329l-156 -156l-51 72l157 157q-97 134 -237 246l31 34q159 -88 280 -206
l145 145l50 -72l-135 -135q125 -141 192.5 -310.5zM602.5 89q56.5 57 86.5 166.5t30 263.5q0 125 -24 237q-97 45 -197 45q-78 0 -139 -42.5t-96.5 -130.5t-35.5 -218q0 -187 65 -282.5t178 -95.5q76 0 132.5 57z" />
    <glyph glyph-name="ntilde" unicode="&#xf1;" horiz-adv-x="1121" 
d="M602 1081.5q-36 18.5 -81 54.5q-36 28 -59 41t-51 13q-43 0 -62.5 -28t-19.5 -89h-49q0 118 43 171.5t119 53.5q49 0 86 -19t80 -54q34 -27 57.5 -40.5t50.5 -13.5q45 0 64.5 27.5t19.5 89.5h47q0 -225 -159 -225q-50 0 -86 18.5zM154 51q39 6 51 21t12 55v567
q0 26 -8 35t-33 14l-113 15v35l281 49l25 -13v-81q0 -48 -4 -72l4 -4q44 84 126.5 131t182.5 47q115 0 182.5 -60t67.5 -169v-494q0 -29 5 -43t18 -21.5t40 -11.5l90 -10v-41h-436v41l74 8q25 6 36.5 13.5t16 22t4.5 42.5v453q0 77 -50.5 118t-137.5 41q-99 0 -159 -52
t-60 -144v-416q0 -40 10.5 -54.5t46.5 -23.5l74 -8v-41h-437v41z" />
    <glyph glyph-name="ograve" unicode="&#xf2;" horiz-adv-x="960" 
d="M234 1305q0 35 25.5 60.5t62.5 25.5q69 0 92 -82l138 -326l-21 -14l-250 245q-47 44 -47 91zM277.5 31q-95.5 51 -155 150.5t-59.5 238.5q0 133 59.5 230.5t155 148.5t201.5 51q107 0 203 -51t155.5 -148.5t59.5 -230.5q0 -139 -59.5 -238.5t-155.5 -150.5t-203 -51
q-106 0 -201.5 51zM601 68q56 39 91 126.5t35 225.5q0 135 -35 220.5t-91 123t-122 37.5q-65 0 -120.5 -38t-90.5 -123t-35 -220q0 -138 35 -225.5t90.5 -126.5t120.5 -39q66 0 122 39z" />
    <glyph glyph-name="oacute" unicode="&#xf3;" horiz-adv-x="960" 
d="M555 1309q23 82 92 82q37 0 62.5 -25.5t25.5 -60.5q0 -47 -47 -91l-250 -245l-20 14zM277.5 31q-95.5 51 -155 150.5t-59.5 238.5q0 133 59.5 230.5t155 148.5t201.5 51q107 0 203 -51t155.5 -148.5t59.5 -230.5q0 -139 -59.5 -238.5t-155.5 -150.5t-203 -51
q-106 0 -201.5 51zM601 68q56 39 91 126.5t35 225.5q0 135 -35 220.5t-91 123t-122 37.5q-65 0 -120.5 -38t-90.5 -123t-35 -220q0 -138 35 -225.5t90.5 -126.5t120.5 -39q66 0 122 39z" />
    <glyph glyph-name="ocircumflex" unicode="&#xf4;" horiz-adv-x="960" 
d="M259 985l198 397h45l199 -397l-22 -16l-199 221l-199 -221zM277.5 31q-95.5 51 -155 150.5t-59.5 238.5q0 133 59.5 230.5t155 148.5t201.5 51q107 0 203 -51t155.5 -148.5t59.5 -230.5q0 -139 -59.5 -238.5t-155.5 -150.5t-203 -51q-106 0 -201.5 51zM601 68
q56 39 91 126.5t35 225.5q0 135 -35 220.5t-91 123t-122 37.5q-65 0 -120.5 -38t-90.5 -123t-35 -220q0 -138 35 -225.5t90.5 -126.5t120.5 -39q66 0 122 39z" />
    <glyph glyph-name="otilde" unicode="&#xf5;" horiz-adv-x="960" 
d="M518 1081.5q-36 18.5 -81 54.5q-36 28 -59.5 41t-51.5 13q-43 0 -62.5 -28t-19.5 -89h-49q0 118 43 171.5t119 53.5q49 0 86 -19t80 -54q34 -27 57.5 -40.5t50.5 -13.5q45 0 64.5 27.5t19.5 89.5h48q0 -225 -160 -225q-49 0 -85 18.5zM277.5 31q-95.5 51 -155 150.5
t-59.5 238.5q0 133 59.5 230.5t155 148.5t201.5 51q107 0 203 -51t155.5 -148.5t59.5 -230.5q0 -139 -59.5 -238.5t-155.5 -150.5t-203 -51q-106 0 -201.5 51zM601 68q56 39 91 126.5t35 225.5q0 135 -35 220.5t-91 123t-122 37.5q-65 0 -120.5 -38t-90.5 -123t-35 -220
q0 -138 35 -225.5t90.5 -126.5t120.5 -39q66 0 122 39z" />
    <glyph glyph-name="odieresis" unicode="&#xf6;" horiz-adv-x="960" 
d="M273.5 1108.5q-28.5 28.5 -28.5 71.5t28.5 72t71.5 29t71.5 -29t28.5 -72t-28.5 -71.5t-71.5 -28.5t-71.5 28.5zM543.5 1108.5q-28.5 28.5 -28.5 71.5t28.5 72t71.5 29t71.5 -29t28.5 -72t-28.5 -71.5t-71.5 -28.5t-71.5 28.5zM277.5 31q-95.5 51 -155 150.5t-59.5 238.5
q0 133 59.5 230.5t155 148.5t201.5 51q107 0 203 -51t155.5 -148.5t59.5 -230.5q0 -139 -59.5 -238.5t-155.5 -150.5t-203 -51q-106 0 -201.5 51zM601 68q56 39 91 126.5t35 225.5q0 135 -35 220.5t-91 123t-122 37.5q-65 0 -120.5 -38t-90.5 -123t-35 -220
q0 -138 35 -225.5t90.5 -126.5t120.5 -39q66 0 122 39z" />
    <glyph glyph-name="divide" unicode="&#xf7;" 
d="M486.5 894.5q-29.5 28.5 -29.5 71.5t29.5 72t72.5 29q44 0 72.5 -28.5t28.5 -72.5q0 -43 -29 -71.5t-72 -28.5t-72.5 28.5zM182 731h752v-80h-752v80zM486.5 344.5q-29.5 28.5 -29.5 71.5t29.5 71.5t72.5 28.5t72 -28.5t29 -71.5t-29 -71.5t-72 -28.5t-72.5 28.5z" />
    <glyph glyph-name="oslash" unicode="&#xf8;" horiz-adv-x="960" 
d="M867.5 587.5q29.5 -75.5 29.5 -167.5q0 -139 -59.5 -238.5t-155.5 -150.5t-203 -51q-72 0 -140.5 23.5t-123.5 69.5l-65 -73h-74l98 111q-52 57 -81.5 135t-29.5 174q0 133 59.5 230.5t155 148.5t201.5 51q72 0 140.5 -24t125.5 -69l64 72h74l-97 -110
q52 -56 81.5 -131.5zM262 211l413 466q-34 64 -85.5 94t-110.5 30q-65 0 -120.5 -38t-90.5 -123t-35 -220q0 -122 29 -209zM601 68q56 39 91 126.5t35 225.5q0 119 -28 201l-413 -467q34 -64 84.5 -94.5t108.5 -30.5q66 0 122 39z" />
    <glyph glyph-name="ugrave" unicode="&#xf9;" horiz-adv-x="1074" 
d="M271 1305q0 36 25.5 61t62.5 25q30 0 54.5 -18.5t37.5 -63.5l137 -326l-21 -14l-249 245q-47 44 -47 91zM253.5 34q-60.5 54 -60.5 154v506q0 26 -7.5 35t-33.5 14l-113 15v35l283 49l24 -13v-596q0 -67 46.5 -105t125.5 -38q60 0 107.5 23.5t74.5 68t27 105.5v407
q0 27 -6.5 36t-32.5 13l-113 15v35l283 49l23 -13v-692q0 -27 7.5 -37t33.5 -14l112 -14v-35l-282 -49l-25 12v82q0 35 6 72l-6 4q-42 -84 -122.5 -131t-178.5 -47q-112 0 -172.5 54z" />
    <glyph glyph-name="uacute" unicode="&#xfa;" horiz-adv-x="1074" 
d="M591 1309q24 82 92 82q37 0 62.5 -25.5t25.5 -60.5q0 -47 -47 -91l-250 -245l-20 14zM253.5 34q-60.5 54 -60.5 154v506q0 26 -7.5 35t-33.5 14l-113 15v35l283 49l24 -13v-596q0 -67 46.5 -105t125.5 -38q60 0 107.5 23.5t74.5 68t27 105.5v407q0 27 -6.5 36t-32.5 13
l-113 15v35l283 49l23 -13v-692q0 -27 7.5 -37t33.5 -14l112 -14v-35l-282 -49l-25 12v82q0 35 6 72l-6 4q-42 -84 -122.5 -131t-178.5 -47q-112 0 -172.5 54z" />
    <glyph glyph-name="ucircumflex" unicode="&#xfb;" horiz-adv-x="1074" 
d="M295 985l199 397h45l198 -397l-22 -16l-199 221l-198 -221zM253.5 34q-60.5 54 -60.5 154v506q0 26 -7.5 35t-33.5 14l-113 15v35l283 49l24 -13v-596q0 -67 46.5 -105t125.5 -38q60 0 107.5 23.5t74.5 68t27 105.5v407q0 27 -6.5 36t-32.5 13l-113 15v35l283 49l23 -13
v-692q0 -27 7.5 -37t33.5 -14l112 -14v-35l-282 -49l-25 12v82q0 35 6 72l-6 4q-42 -84 -122.5 -131t-178.5 -47q-112 0 -172.5 54z" />
    <glyph glyph-name="udieresis" unicode="&#xfc;" horiz-adv-x="1074" 
d="M309.5 1108.5q-28.5 28.5 -28.5 71.5t28.5 72t71.5 29q44 0 72.5 -28.5t28.5 -72.5q0 -43 -29 -71.5t-72 -28.5t-71.5 28.5zM579.5 1108.5q-28.5 28.5 -28.5 71.5t28.5 72t71.5 29q44 0 72.5 -28.5t28.5 -72.5q0 -43 -29 -71.5t-72 -28.5t-71.5 28.5zM253.5 34
q-60.5 54 -60.5 154v506q0 26 -7.5 35t-33.5 14l-113 15v35l283 49l24 -13v-596q0 -67 46.5 -105t125.5 -38q60 0 107.5 23.5t74.5 68t27 105.5v407q0 27 -6.5 36t-32.5 13l-113 15v35l283 49l23 -13v-692q0 -27 7.5 -37t33.5 -14l112 -14v-35l-282 -49l-25 12v82q0 35 6 72
l-6 4q-42 -84 -122.5 -131t-178.5 -47q-112 0 -172.5 54z" />
    <glyph glyph-name="yacute" unicode="&#xfd;" horiz-adv-x="913" 
d="M456 969l-21 14l138 326q23 82 92 82q37 0 62.5 -25.5t25.5 -60.5q0 -47 -47 -91zM907 829v-41l-51 -6q-30 -3 -46 -15.5t-30 -45.5l-356 -1000q-42 -110 -90.5 -178.5t-112.5 -102.5t-151 -34q-56 0 -86 10v135l2 3q55 -21 137 -21q64 0 108.5 19t80 65t67.5 129l58 168
l-316 807q-16 33 -32 45.5t-46 15.5l-51 6v41h418v-41l-84 -10q-24 -5 -34.5 -12.5t-10.5 -20.5q0 -14 12 -40l215 -555l2 -13h6l2 13l199 550q12 27 12 43q0 15 -11 22.5t-36 12.5l-84 10v41h309z" />
    <glyph glyph-name="thorn" unicode="&#xfe;" horiz-adv-x="1065" 
d="M831 804q78 -46 125 -135t47 -211q0 -155 -63 -263t-167 -161.5t-224 -53.5q-48 0 -89 6t-108 19v-451q0 -29 5 -43.5t18 -21.5t41 -11l90 -10v-41h-460v41l91 10q27 4 40 11.5t17.5 21.5t4.5 43v1785q0 26 -7.5 35.5t-32.5 13.5l-113 15v35l282 49l24 -12v-735
q0 -41 -6 -73l5 -2q45 83 127 134t184 51q91 0 169 -46zM699.5 71q64.5 43 102 128.5t37.5 207.5q0 171 -70 252t-181 81q-62 0 -112.5 -27.5t-82.5 -75.5t-41 -108v-428q82 -73 204 -73q79 0 143.5 43z" />
    <glyph glyph-name="ydieresis" unicode="&#xff;" horiz-adv-x="913" 
d="M291 1108.5q-29 28.5 -29 71.5q0 44 29 72.5t72 28.5t71.5 -29t28.5 -72t-28.5 -71.5t-71.5 -28.5t-72 28.5zM561 1108.5q-29 28.5 -29 71.5q0 44 29 72.5t72 28.5t71.5 -29t28.5 -72t-28.5 -71.5t-71.5 -28.5t-72 28.5zM907 829v-41l-51 -6q-30 -3 -46 -15.5t-30 -45.5
l-356 -1000q-42 -110 -90.5 -178.5t-112.5 -102.5t-151 -34q-56 0 -86 10v135l2 3q55 -21 137 -21q64 0 108.5 19t80 65t67.5 129l58 168l-316 807q-16 33 -32 45.5t-46 15.5l-51 6v41h418v-41l-84 -10q-24 -5 -34.5 -12.5t-10.5 -20.5q0 -14 12 -40l215 -555l2 -13h6l2 13
l199 550q12 27 12 43q0 15 -11 22.5t-36 12.5l-84 10v41h309z" />
    <glyph glyph-name="Amacron" unicode="&#x100;" horiz-adv-x="1450" 
d="M485 1615h492v-65h-492v65zM84 47q42 7 67 29.5t44 66.5l440 1239h182l438 -1239q19 -43 44.5 -66t66.5 -30l74 -6v-41h-488v41l70 4q31 7 46 21t15 38q0 16 -10 46l-112 319l2 16h-592l-113 -338q-10 -28 -10 -45q0 -44 57 -57l70 -4v-41h-365v41zM952 541
q-14 13 -20 23t-14 32l-248 696v6h-6v-4l-273 -753l-2 -6h561z" />
    <glyph glyph-name="amacron" unicode="&#x101;" horiz-adv-x="864" 
d="M142 1212h492v-65h-492v65zM133.5 22.5q-55.5 42.5 -55.5 116.5q0 49 25 87t77 67l342 178l2 4q-6 12 -6 33v170q0 108 -131 108q-51 0 -90.5 -16t-61.5 -43.5t-22 -60.5v-45h-147q-7 9 -7 16q0 45 60.5 95.5t155 84t188.5 33.5q209 0 209 -172v-541q0 -36 12.5 -48.5
t48.5 -12.5h96v-39l-67 -33q-29 -9 -49 -13.5t-45 -4.5q-132 0 -136 100v27h-4q-33 -61 -96.5 -97t-146.5 -36q-96 0 -151.5 42.5zM473 113q45 39 45 112v135q0 21 1 30t7 22l-4 4l-223 -129q-36 -23 -52 -47.5t-16 -57.5q0 -52 34 -80t93 -28q70 0 115 39z" />
    <glyph glyph-name="Abreve" unicode="&#x102;" horiz-adv-x="1450" 
d="M549 1517.5q-53 68.5 -53 202.5h51q0 -76 44.5 -115t139.5 -39q93 0 141 39.5t48 114.5h49q0 -133 -55 -202t-183 -69q-129 0 -182 68.5zM84 47q42 7 67 29.5t44 66.5l440 1239h182l438 -1239q19 -43 44.5 -66t66.5 -30l74 -6v-41h-488v41l70 4q31 7 46 21t15 38
q0 16 -10 46l-112 319l2 16h-592l-113 -338q-10 -28 -10 -45q0 -44 57 -57l70 -4v-41h-365v41zM952 541q-14 13 -20 23t-14 32l-248 696v6h-6v-4l-273 -753l-2 -6h561z" />
    <glyph glyph-name="abreve" unicode="&#x103;" horiz-adv-x="864" 
d="M206 1112.5q-53 68.5 -53 202.5h51q0 -154 184 -154q93 0 140.5 40t47.5 114h50q0 -133 -55 -202t-183 -69q-129 0 -182 68.5zM133.5 22.5q-55.5 42.5 -55.5 116.5q0 49 25 87t77 67l342 178l2 4q-6 12 -6 33v170q0 108 -131 108q-51 0 -90.5 -16t-61.5 -43.5t-22 -60.5
v-45h-147q-7 9 -7 16q0 45 60.5 95.5t155 84t188.5 33.5q209 0 209 -172v-541q0 -36 12.5 -48.5t48.5 -12.5h96v-39l-67 -33q-29 -9 -49 -13.5t-45 -4.5q-132 0 -136 100v27h-4q-33 -61 -96.5 -97t-146.5 -36q-96 0 -151.5 42.5zM473 113q45 39 45 112v135q0 21 1 30t7 22
l-4 4l-223 -129q-36 -23 -52 -47.5t-16 -57.5q0 -52 34 -80t93 -28q70 0 115 39z" />
    <glyph glyph-name="Aogonek" unicode="&#x104;" horiz-adv-x="1450" 
d="M1614 -401q-100 -121 -237 -121q-117 0 -181.5 61.5t-64.5 165.5q0 93 58.5 164.5t170.5 130.5h-408v41l70 4q31 7 46 21t15 38q0 16 -10 46l-112 319l2 16h-592l-113 -338q-10 -28 -10 -45q0 -44 57 -57l70 -4v-41h-365v41l74 6q42 7 67 29.5t44 66.5l440 1239h182
l438 -1239q19 -43 44.5 -66t66.5 -30l74 -6v-41q-101 -50 -149.5 -109.5t-48.5 -136.5q0 -85 54 -138.5t148 -53.5q44 0 81 14.5t71 42.5zM952 541q-14 13 -20 23t-14 32l-248 696v6h-6v-4l-273 -753l-2 -6h561z" />
    <glyph glyph-name="aogonek" unicode="&#x105;" horiz-adv-x="864" 
d="M923 -401q-47 -55 -104 -88t-134 -33q-117 0 -181.5 61.5t-64.5 165.5q0 87 52.5 156t152.5 126q-108 9 -112 99v27h-4q-33 -61 -96.5 -97t-146.5 -36q-96 0 -151.5 42.5t-55.5 116.5q0 49 25 87t77 67l342 178l2 4q-6 12 -6 33v170q0 108 -131 108q-51 0 -90.5 -16
t-61.5 -43.5t-22 -60.5v-45h-147q-7 9 -7 16q0 45 60.5 95.5t155 84t188.5 33.5q209 0 209 -172v-541q0 -36 12.5 -48.5t48.5 -12.5h96v-39l-67 -33q-6 -2 -14 -4q-101 -50 -149.5 -109.5t-48.5 -136.5q0 -55 24 -98.5t70 -68.5t109 -25q44 0 80.5 14.5t70.5 42.5zM519 390
q1 9 7 22l-4 4l-223 -129q-36 -23 -52 -47.5t-16 -57.5q0 -52 34 -80t93 -28q70 0 115 39t45 112v135q0 21 1 30z" />
    <glyph glyph-name="Cacute" unicode="&#x106;" horiz-adv-x="1306" 
d="M780 1667q42 28 78 28q6 0 20 -2q30 -5 48.5 -28t18.5 -53q0 -5 -2 -17q-6 -70 -110 -82l-346 -51l-8 24zM365 64q-137 84 -210 238t-73 360q0 216 78 384.5t217.5 262.5t318.5 94q124 0 223 -39.5t166 -95.5h7l47 114h41v-393h-41q-70 177 -176.5 271t-268.5 94
q-135 0 -233 -73t-150.5 -212.5t-52.5 -335.5q0 -206 59.5 -352t173.5 -222.5t273 -76.5q275 0 438 215l35 -23q-90 -132 -225 -213t-322 -81q-188 0 -325 84z" />
    <glyph glyph-name="cacute" unicode="&#x107;" horiz-adv-x="839" 
d="M542 1309q24 82 92 82q37 0 62.5 -25.5t25.5 -60.5q0 -47 -47 -91l-250 -245l-20 14zM237.5 31q-85.5 51 -130 143t-44.5 213q0 140 58 245t156 161.5t215 56.5q116 0 231 -53v-166h-18q-112 84 -175.5 114.5t-121.5 30.5q-98 0 -153.5 -74t-55.5 -208q0 -121 40 -214
t116 -144.5t180 -51.5q73 0 126.5 24.5t102.5 71.5l27 -22q-71 -80 -153 -129t-196 -49q-119 0 -204.5 51z" />
    <glyph glyph-name="Cdotaccent" unicode="&#x10a;" horiz-adv-x="1306" 
d="M626.5 1511q-28.5 29 -28.5 72t28.5 71.5t71.5 28.5t72 -28.5t29 -71.5t-28.5 -72t-72.5 -29q-43 0 -71.5 29zM365 64q-137 84 -210 238t-73 360q0 216 78 384.5t217.5 262.5t318.5 94q124 0 223 -39.5t166 -95.5h7l47 114h41v-393h-41q-70 177 -176.5 271t-268.5 94
q-135 0 -233 -73t-150.5 -212.5t-52.5 -335.5q0 -206 59.5 -352t173.5 -222.5t273 -76.5q275 0 438 215l35 -23q-90 -132 -225 -213t-322 -81q-188 0 -325 84z" />
    <glyph glyph-name="cdotaccent" unicode="&#x10b;" horiz-adv-x="839" 
d="M395.5 1108q-28.5 29 -28.5 72t28.5 71.5t71.5 28.5t72 -28.5t29 -71.5t-28.5 -72t-72.5 -29q-43 0 -71.5 29zM237.5 31q-85.5 51 -130 143t-44.5 213q0 140 58 245t156 161.5t215 56.5q116 0 231 -53v-166h-18q-112 84 -175.5 114.5t-121.5 30.5q-98 0 -153.5 -74
t-55.5 -208q0 -121 40 -214t116 -144.5t180 -51.5q73 0 126.5 24.5t102.5 71.5l27 -22q-71 -80 -153 -129t-196 -49q-119 0 -204.5 51z" />
    <glyph glyph-name="Ccaron" unicode="&#x10c;" horiz-adv-x="1306" 
d="M698 1581l242 134l18 -23l-237 -242h-45l-244 242l19 23zM365 64q-137 84 -210 238t-73 360q0 216 78 384.5t217.5 262.5t318.5 94q124 0 223 -39.5t166 -95.5h7l47 114h41v-393h-41q-70 177 -176.5 271t-268.5 94q-135 0 -233 -73t-150.5 -212.5t-52.5 -335.5
q0 -206 59.5 -352t173.5 -222.5t273 -76.5q275 0 438 215l35 -23q-90 -132 -225 -213t-322 -81q-188 0 -325 84z" />
    <glyph glyph-name="ccaron" unicode="&#x10d;" horiz-adv-x="839" 
d="M467 1164l199 221l23 -17l-199 -397h-45l-199 397l23 17zM237.5 31q-85.5 51 -130 143t-44.5 213q0 140 58 245t156 161.5t215 56.5q116 0 231 -53v-166h-18q-112 84 -175.5 114.5t-121.5 30.5q-98 0 -153.5 -74t-55.5 -208q0 -121 40 -214t116 -144.5t180 -51.5
q73 0 126.5 24.5t102.5 71.5l27 -22q-71 -80 -153 -129t-196 -49q-119 0 -204.5 51z" />
    <glyph glyph-name="Dcaron" unicode="&#x10e;" horiz-adv-x="1454" 
d="M687 1581l242 134l18 -23l-237 -242h-45l-244 242l18 23zM174 53q29 5 42.5 12.5t18.5 22t5 43.5v1118q0 30 -5 45t-18.5 22.5t-42.5 12.5l-92 12v41h602q202 0 357 -76t243 -226t88 -365q0 -222 -86 -383.5t-241.5 -246.5t-358.5 -85h-604v41zM1063.5 216.5
q128.5 167.5 128.5 498.5q0 318 -130.5 468t-395.5 150h-271l-2 -4q10 -12 12.5 -25t2.5 -40v-1145q0 -27 -2.5 -39.5t-12.5 -24.5l2 -6h273q267 0 395.5 167.5z" />
    <glyph glyph-name="dcaron" unicode="&#x10f;" horiz-adv-x="1059" 
d="M231.5 25.5q-77.5 45.5 -123 133.5t-45.5 212q0 155 63 263.5t166 162t222 53.5q68 0 160 -15q10 -1 21 -3t22 -3l2 5q-6 27 -6 55v450q0 26 -7.5 35.5t-33.5 14.5l-113 14v35l283 49l24 -12v-1340q0 -27 7.5 -37t33.5 -14l113 -14v-35l-283 -47l-24 12v102q0 36 6 72
l-6 4q-38 -90 -122.5 -144t-187.5 -54q-94 0 -171.5 45.5zM975 1475h209q0 -65 -44 -136t-134 -141h-35q4 90 4 277zM594.5 121q54.5 31 86.5 87t32 128v385q-31 35 -81.5 56.5t-113.5 21.5q-84 0 -149.5 -42t-103.5 -127t-38 -208q0 -171 69.5 -251.5t178.5 -80.5
q65 0 119.5 31z" />
    <glyph glyph-name="Dcroat" unicode="&#x110;" horiz-adv-x="1454" 
d="M1041 1306q155 -76 243 -226t88 -365q0 -222 -86 -383.5t-241.5 -246.5t-358.5 -85h-604v41l92 12q29 5 42.5 12.5t18.5 22t5 43.5v565h-154l20 74h134v479q0 30 -5 45t-18.5 22.5t-42.5 12.5l-92 12v41h602q202 0 357 -76zM1063.5 216.5q128.5 167.5 128.5 498.5
q0 318 -130.5 468t-395.5 150h-271l-2 -4q10 -12 12.5 -25t2.5 -40v-494h432l-21 -74h-411v-577q0 -27 -2.5 -39.5t-12.5 -24.5l2 -6h273q267 0 395.5 167.5z" />
    <glyph glyph-name="dcroat" unicode="&#x111;" horiz-adv-x="1059" 
d="M873.5 98q7.5 -10 33.5 -14l113 -14v-35l-283 -47l-24 12v102q0 36 6 72l-6 4q-38 -90 -122.5 -144t-187.5 -54q-94 0 -171.5 45.5t-123 133.5t-45.5 212q0 155 63 263.5t166 162t222 53.5q68 0 160 -15q10 -1 21 -3t22 -3l2 5q-6 27 -6 55v241h-313l22 84h291v125
q0 26 -7.5 35.5t-33.5 14.5l-113 14v35l283 49l24 -12v-261h154l-24 -84h-130v-995q0 -27 7.5 -37zM713 721q-31 35 -81.5 56.5t-113.5 21.5q-84 0 -149.5 -42t-103.5 -127t-38 -208q0 -171 69.5 -251.5t178.5 -80.5q65 0 119.5 31t86.5 87t32 128v385z" />
    <glyph glyph-name="Emacron" unicode="&#x112;" horiz-adv-x="1217" 
d="M382 1615h491v-65h-491v65zM174 51q29 5 42.5 13t18.5 22.5t5 44.5v1118q0 30 -5 45t-18.5 22.5t-42.5 12.5l-92 12v41h919l25 35h41l45 -344l-33 -10l-116 180q-28 39 -50 57.5t-51 25.5t-80 7h-385l-2 -4q9 -11 11 -23.5t2 -37.5v-445q0 -25 -2 -37.5t-11 -23.5l2 -6
h322q40 0 59.5 10.5t40.5 42.5l64 111l35 -9v-358l-35 -8l-64 108q-21 34 -40.5 45t-59.5 11h-322l-2 -4q9 -13 11 -25t2 -39v-524q0 -27 -2 -39t-11 -25l2 -4h420q51 0 79.5 6.5t50 24.5t46.5 55l117 195l33 -8l-27 -322h-1034v41z" />
    <glyph glyph-name="emacron" unicode="&#x113;" horiz-adv-x="888" 
d="M705 1212v-65h-492v65h492zM823 158q-67 -79 -154.5 -128.5t-207.5 -49.5q-128 0 -217.5 52t-135 145t-45.5 216q0 140 57.5 243.5t151.5 158.5t201 55q87 0 157.5 -36.5t117 -100.5t65.5 -146l-8 -14h-603q-3 -28 -3 -59q0 -121 40.5 -213.5t120 -144.5t193.5 -52
q81 0 138 25t108 73zM286 736q-53 -44 -74 -130h404l2 6l-4 6q-21 71 -73 116.5t-129 45.5q-73 0 -126 -44z" />
    <glyph glyph-name="Edotaccent" unicode="&#x116;" horiz-adv-x="1217" 
d="M555.5 1511q-28.5 29 -28.5 72t28.5 71.5t71.5 28.5t72 -28.5t29 -71.5t-28.5 -72t-72.5 -29q-43 0 -71.5 29zM174 51q29 5 42.5 13t18.5 22.5t5 44.5v1118q0 30 -5 45t-18.5 22.5t-42.5 12.5l-92 12v41h919l25 35h41l45 -344l-33 -10l-116 180q-28 39 -50 57.5t-51 25.5
t-80 7h-385l-2 -4q9 -11 11 -23.5t2 -37.5v-445q0 -25 -2 -37.5t-11 -23.5l2 -6h322q40 0 59.5 10.5t40.5 42.5l64 111l35 -9v-358l-35 -8l-64 108q-21 34 -40.5 45t-59.5 11h-322l-2 -4q9 -13 11 -25t2 -39v-524q0 -27 -2 -39t-11 -25l2 -4h420q51 0 79.5 6.5t50 24.5
t46.5 55l117 195l33 -8l-27 -322h-1034v41z" />
    <glyph glyph-name="edotaccent" unicode="&#x117;" horiz-adv-x="888" 
d="M387.5 1108q-28.5 29 -28.5 72t28.5 71.5t71.5 28.5t71.5 -28.5t28.5 -71.5t-28.5 -72t-71.5 -29t-71.5 29zM823 158q-67 -79 -154.5 -128.5t-207.5 -49.5q-128 0 -217.5 52t-135 145t-45.5 216q0 140 57.5 243.5t151.5 158.5t201 55q87 0 157.5 -36.5t117 -100.5
t65.5 -146l-8 -14h-603q-3 -28 -3 -59q0 -121 40.5 -213.5t120 -144.5t193.5 -52q81 0 138 25t108 73zM286 736q-53 -44 -74 -130h404l2 6l-4 6q-21 71 -73 116.5t-129 45.5q-73 0 -126 -44z" />
    <glyph glyph-name="Eogonek" unicode="&#x118;" horiz-adv-x="1217" 
d="M1291 -401q-47 -55 -104 -88t-134 -33q-117 0 -181.5 61.5t-64.5 165.5q0 93 58.5 164.5t170.5 130.5h-954v41l92 10q29 5 42.5 13t18.5 22.5t5 44.5v1118q0 30 -5 45t-18.5 22.5t-42.5 12.5l-92 12v41h919l25 35h41l45 -344l-33 -10l-116 180q-28 39 -50 57.5t-51 25.5
t-80 7h-385l-2 -4q9 -11 11 -23.5t2 -37.5v-445q0 -25 -2 -37.5t-11 -23.5l2 -6h322q40 0 59.5 10.5t40.5 42.5l64 111l35 -9v-358l-35 -8l-64 108q-21 34 -40.5 45t-59.5 11h-322l-2 -4q9 -13 11 -25t2 -39v-524q0 -27 -2 -39t-11 -25l2 -4h420q51 0 79.5 6.5t50 24.5
t46.5 55l117 195l33 -8l-27 -321l1 -1q-101 -50 -150 -110t-49 -136q0 -55 24 -98.5t70 -68.5t109 -25q44 0 80.5 14.5t70.5 42.5z" />
    <glyph glyph-name="eogonek" unicode="&#x119;" horiz-adv-x="888" 
d="M445 -110.5q-48 -59.5 -48 -135.5q0 -55 24 -98.5t70 -68.5t109 -25q44 0 80.5 14.5t70.5 42.5l19 -20q-47 -55 -104 -88t-134 -33q-117 0 -181.5 61.5t-64.5 165.5q0 85 49.5 152.5t144.5 122.5h-19q-128 0 -217.5 52t-135 145t-45.5 216q0 140 57.5 243.5t151.5 158.5
t201 55q87 0 157.5 -36.5t117 -100.5t65.5 -146l-8 -14h-603q-3 -28 -3 -59q0 -121 40.5 -213.5t120 -144.5t193.5 -52q81 0 138 25t108 73l24 -24q-102 -121 -231 -160q-99 -49 -147 -108.5zM286 736q-53 -44 -74 -130h404l2 6l-4 6q-21 71 -73 116.5t-129 45.5
q-73 0 -126 -44z" />
    <glyph glyph-name="Ecaron" unicode="&#x11a;" horiz-adv-x="1217" 
d="M627 1581l242 134l18 -23l-237 -242h-45l-244 242l19 23zM174 51q29 5 42.5 13t18.5 22.5t5 44.5v1118q0 30 -5 45t-18.5 22.5t-42.5 12.5l-92 12v41h919l25 35h41l45 -344l-33 -10l-116 180q-28 39 -50 57.5t-51 25.5t-80 7h-385l-2 -4q9 -11 11 -23.5t2 -37.5v-445
q0 -25 -2 -37.5t-11 -23.5l2 -6h322q40 0 59.5 10.5t40.5 42.5l64 111l35 -9v-358l-35 -8l-64 108q-21 34 -40.5 45t-59.5 11h-322l-2 -4q9 -13 11 -25t2 -39v-524q0 -27 -2 -39t-11 -25l2 -4h420q51 0 79.5 6.5t50 24.5t46.5 55l117 195l33 -8l-27 -322h-1034v41z" />
    <glyph glyph-name="ecaron" unicode="&#x11b;" horiz-adv-x="888" 
d="M482 971h-46l-198 397l22 17l199 -221l199 221l22 -17zM823 158q-67 -79 -154.5 -128.5t-207.5 -49.5q-128 0 -217.5 52t-135 145t-45.5 216q0 140 57.5 243.5t151.5 158.5t201 55q87 0 157.5 -36.5t117 -100.5t65.5 -146l-8 -14h-603q-3 -28 -3 -59q0 -121 40.5 -213.5
t120 -144.5t193.5 -52q81 0 138 25t108 73zM286 736q-53 -44 -74 -130h404l2 6l-4 6q-21 71 -73 116.5t-129 45.5q-73 0 -126 -44z" />
    <glyph glyph-name="Gbreve" unicode="&#x11e;" horiz-adv-x="1396" 
d="M519 1517.5q-53 68.5 -53 202.5h51q0 -76 44.5 -115t139.5 -39q93 0 141 39.5t48 114.5h49q0 -133 -55 -202t-183 -69q-129 0 -182 68.5zM392.5 62q-157.5 82 -234 231.5t-76.5 353.5q0 227 83 399t224 264.5t311 92.5q125 0 227.5 -41.5t170.5 -99.5h4l47 120h41v-393
h-39q-71 175 -183 270t-274 95q-132 0 -229.5 -75t-151 -223.5t-53.5 -361.5q0 -196 57.5 -344.5t180 -233.5t311.5 -85q129 0 266 26l4 6q-9 12 -11.5 25.5t-2.5 36.5v418q0 30 -5 44.5t-18.5 22t-42.5 13.5l-98 12v41h434v-41l-53 -10q-26 -7 -37.5 -23t-11.5 -47v-522
q-244 -53 -445 -53q-238 0 -395.5 82z" />
    <glyph glyph-name="gbreve" unicode="&#x11f;" horiz-adv-x="970" 
d="M263.5 1112.5q-53.5 68.5 -53.5 202.5h51q0 -154 185 -154q92 0 140 40t48 114h49q0 -133 -54.5 -202t-182.5 -69q-129 0 -182.5 68.5zM890 -20.5q54 -57.5 54 -159.5q0 -116 -63 -210.5t-174.5 -149t-251.5 -54.5q-115 0 -196 35.5t-122 93t-41 123.5q0 135 169 244
q-94 14 -139.5 59.5t-45.5 110.5q0 141 211 168v6q-92 34 -147.5 112.5t-55.5 178.5q0 90 48.5 161.5t130.5 111.5t177 40q62 0 127 -21h373l-14 -86h-215v-6q43 -34 65.5 -86.5t22.5 -113.5q0 -90 -48.5 -164.5t-131 -117t-179.5 -42.5q-135 0 -193 -24t-58 -68
q0 -42 52.5 -63t182.5 -21h303q105 0 159 -57.5zM301.5 333q51.5 -71 142.5 -71q93 0 145 71t52 204q0 130 -51.5 197t-145.5 67q-92 0 -143 -67t-51 -197q0 -133 51.5 -204zM684 -492q74 38 112 102.5t38 143.5q0 74 -32 108t-108 34h-348q-23 0 -34 1q-40 -44 -59.5 -87.5
t-19.5 -96.5q0 -110 66.5 -176.5t208.5 -66.5q102 0 176 38z" />
    <glyph glyph-name="Gdotaccent" unicode="&#x120;" horiz-adv-x="1396" 
d="M629.5 1511q-28.5 29 -28.5 72t28.5 71.5t71.5 28.5t72 -28.5t29 -71.5t-29 -72t-72 -29t-71.5 29zM392.5 62q-157.5 82 -234 231.5t-76.5 353.5q0 227 83 399t224 264.5t311 92.5q125 0 227.5 -41.5t170.5 -99.5h4l47 120h41v-393h-39q-71 175 -183 270t-274 95
q-132 0 -229.5 -75t-151 -223.5t-53.5 -361.5q0 -196 57.5 -344.5t180 -233.5t311.5 -85q129 0 266 26l4 6q-9 12 -11.5 25.5t-2.5 36.5v418q0 30 -5 44.5t-18.5 22t-42.5 13.5l-98 12v41h434v-41l-53 -10q-26 -7 -37.5 -23t-11.5 -47v-522q-244 -53 -445 -53
q-238 0 -395.5 82z" />
    <glyph glyph-name="gdotaccent" unicode="&#x121;" horiz-adv-x="970" 
d="M374 1108q-29 29 -29 72t29 71.5t72 28.5t71.5 -28.5t28.5 -71.5t-28.5 -72t-71.5 -29t-72 29zM890 -20.5q54 -57.5 54 -159.5q0 -116 -63 -210.5t-174.5 -149t-251.5 -54.5q-115 0 -196 35.5t-122 93t-41 123.5q0 135 169 244q-94 14 -139.5 59.5t-45.5 110.5
q0 141 211 168v6q-92 34 -147.5 112.5t-55.5 178.5q0 90 48.5 161.5t130.5 111.5t177 40q62 0 127 -21h373l-14 -86h-215v-6q43 -34 65.5 -86.5t22.5 -113.5q0 -90 -48.5 -164.5t-131 -117t-179.5 -42.5q-135 0 -193 -24t-58 -68q0 -42 52.5 -63t182.5 -21h303
q105 0 159 -57.5zM301.5 333q51.5 -71 142.5 -71q93 0 145 71t52 204q0 130 -51.5 197t-145.5 67q-92 0 -143 -67t-51 -197q0 -133 51.5 -204zM684 -492q74 38 112 102.5t38 143.5q0 74 -32 108t-108 34h-348q-23 0 -34 1q-40 -44 -59.5 -87.5t-19.5 -96.5
q0 -110 66.5 -176.5t208.5 -66.5q102 0 176 38z" />
    <glyph glyph-name="uni0122" unicode="&#x122;" horiz-adv-x="1396" 
d="M392.5 62q-157.5 82 -234 231.5t-76.5 353.5q0 227 83 399t224 264.5t311 92.5q125 0 227.5 -41.5t170.5 -99.5h4l47 120h41v-393h-39q-71 175 -183 270t-274 95q-132 0 -229.5 -75t-151 -223.5t-53.5 -361.5q0 -196 57.5 -344.5t180 -233.5t311.5 -85q129 0 266 26l4 6
q-9 12 -11.5 25.5t-2.5 36.5v418q0 30 -5 44.5t-18.5 22t-42.5 13.5l-98 12v41h434v-41l-53 -10q-26 -7 -37.5 -23t-11.5 -47v-522q-244 -53 -445 -53q-238 0 -395.5 82zM728 -384q28 50 31 101q-12 -4 -24 -4q-42 0 -69 28t-27 73q0 42 27 70t71 28q48 0 77 -33t29 -100
q0 -80 -46.5 -154.5t-131.5 -113.5l-10 20q45 35 73 85z" />
    <glyph glyph-name="uni0123" unicode="&#x123;" horiz-adv-x="970" 
d="M347 1003q-29 33 -29 100q0 80 46.5 154.5t131.5 114.5l10 -21q-45 -35 -73 -85t-31 -101q12 4 24 4q42 0 69 -28t27 -73q0 -42 -27 -70t-71 -28q-48 0 -77 33zM890 -20.5q54 -57.5 54 -159.5q0 -116 -63 -210.5t-174.5 -149t-251.5 -54.5q-115 0 -196 35.5t-122 93
t-41 123.5q0 135 169 244q-94 14 -139.5 59.5t-45.5 110.5q0 141 211 168v6q-92 34 -147.5 112.5t-55.5 178.5q0 90 48.5 161.5t130.5 111.5t177 40q62 0 127 -21h373l-14 -86h-215v-6q43 -34 65.5 -86.5t22.5 -113.5q0 -90 -48.5 -164.5t-131 -117t-179.5 -42.5
q-135 0 -193 -24t-58 -68q0 -42 52.5 -63t182.5 -21h303q105 0 159 -57.5zM301.5 333q51.5 -71 142.5 -71q93 0 145 71t52 204q0 130 -51.5 197t-145.5 67q-92 0 -143 -67t-51 -197q0 -133 51.5 -204zM684 -492q74 38 112 102.5t38 143.5q0 74 -32 108t-108 34h-348
q-23 0 -34 1q-40 -44 -59.5 -87.5t-19.5 -96.5q0 -110 66.5 -176.5t208.5 -66.5q102 0 176 38z" />
    <glyph glyph-name="Hbar" unicode="&#x126;" horiz-adv-x="1520" 
d="M1285.5 87q5.5 -15 19.5 -23t43 -13l90 -10v-41h-484v41l93 10q28 5 41.5 13t18.5 22.5t5 44.5v526q0 23 2.5 36.5t11.5 25.5l-4 4h-725l-2 -4q9 -12 11 -24t2 -38v-526q0 -29 5 -44t18.5 -23t41.5 -13l92 -10v-41h-483v41l92 10q29 5 42.5 13t18.5 22.5t5 44.5v821
q0 26 2 37.5t12 22.5l-3 4h-175l22 72h75q26 0 38 -2t25 -12l4 4v171q0 30 -5 45t-18.5 22.5t-42.5 12.5l-92 12v41h483v-41l-92 -12q-28 -5 -41.5 -12.5t-18.5 -22.5t-5 -45v-171l6 -4q11 10 23 12t37 2h574q25 0 37 -2t23 -12l4 4v171q0 30 -5 45t-18 22.5t-42 12.5
l-93 12v41h484v-41l-90 -12q-29 -5 -43 -12.5t-19.5 -22.5t-5.5 -45v-171l6 -4q12 10 24 12t37 2h99l-23 -72h-154l-1 -4q8 -11 10 -22.5t2 -37.5v-821q0 -29 5.5 -44zM1114.5 803.5q-2.5 13.5 -2.5 36.5v112q0 26 2 37.5t12 22.5l-3 4h-727l-1 -4q9 -11 11 -22.5t2 -37.5
v-112q0 -26 -2 -38t-11 -24l2 -6h725l4 6q-9 12 -11.5 25.5z" />
    <glyph glyph-name="hbar" unicode="&#x127;" horiz-adv-x="1121" 
d="M1081 41v-41h-438v41l76 8q25 6 36.5 13.5t16 22t4.5 42.5v453q0 77 -50.5 118t-137.5 41q-99 0 -159 -52t-60 -144v-416q0 -40 10.5 -54.5t46.5 -23.5l74 -8v-41h-437v41l91 10q39 6 51 21t12 55v987h-154l22 84h132v141q0 26 -8 35.5t-33 14.5l-113 14v35l281 49
l25 -12v-277h314l-24 -84h-290v-366q0 -48 -4 -72l4 -4q42 83 125 130.5t184 47.5q115 0 182.5 -60t67.5 -169v-494q0 -29 5 -43t18 -21.5t40 -11.5z" />
    <glyph glyph-name="Imacron" unicode="&#x12a;" horiz-adv-x="647" 
d="M78 1615h491v-65h-491v65zM174 51q29 5 42.5 13t18.5 22.5t5 44.5v1120q0 29 -5 43.5t-18.5 22t-42.5 12.5l-92 12v41h483v-41l-92 -12q-28 -5 -41.5 -12.5t-18.5 -22t-5 -43.5v-1120q0 -29 5 -44t18.5 -23t41.5 -13l92 -10v-41h-483v41z" />
    <glyph glyph-name="imacron" unicode="&#x12b;" horiz-adv-x="562" 
d="M35 1212h492v-65h-492v65zM154 51q39 6 51 21t12 55v567q0 26 -8 35t-33 14l-113 15v35l281 49l25 -13v-702q0 -40 12 -55t51 -21l90 -10v-41h-459v41z" />
    <glyph glyph-name="Iogonek" unicode="&#x12e;" horiz-adv-x="647" 
d="M739 -401q-100 -121 -238 -121q-116 0 -180.5 61.5t-64.5 165.5q0 93 58.5 164.5t169.5 130.5h-402v41l92 10q29 5 42.5 13t18.5 22.5t5 44.5v1120q0 29 -5 43.5t-18.5 22t-42.5 12.5l-92 12v41h483v-41l-92 -12q-28 -5 -41.5 -12.5t-18.5 -22t-5 -43.5v-1120
q0 -29 5 -44t18.5 -23t41.5 -13l92 -10v-41q-101 -50 -150 -110t-49 -136q0 -55 24 -98.5t70 -68.5t109 -25q44 0 80.5 14.5t70.5 42.5z" />
    <glyph glyph-name="iogonek" unicode="&#x12f;" horiz-adv-x="562" 
d="M209 1108q-29 29 -29 72t29 71.5t72 28.5t71.5 -28.5t28.5 -71.5t-28.5 -72t-71.5 -29t-72 29zM695 -401q-100 -121 -237 -121q-117 0 -181.5 61.5t-64.5 165.5q0 93 58.5 164.5t170.5 130.5h-378v41l91 10q39 6 51 21t12 55v567q0 26 -8 35t-33 14l-113 15v35l281 49
l25 -13v-702q0 -40 12 -55t51 -21l90 -10v-41h-1q-101 -50 -149.5 -109.5t-48.5 -136.5q0 -85 54 -138.5t148 -53.5q44 0 81 14.5t71 42.5z" />
    <glyph glyph-name="Idotaccent" unicode="&#x130;" horiz-adv-x="647" 
d="M252 1511q-29 29 -29 72t29 71.5t72 28.5t71.5 -28.5t28.5 -71.5t-28.5 -72t-71.5 -29t-72 29zM174 51q29 5 42.5 13t18.5 22.5t5 44.5v1120q0 29 -5 43.5t-18.5 22t-42.5 12.5l-92 12v41h483v-41l-92 -12q-28 -5 -41.5 -12.5t-18.5 -22t-5 -43.5v-1120q0 -29 5 -44
t18.5 -23t41.5 -13l92 -10v-41h-483v41z" />
    <glyph glyph-name="dotlessi" unicode="&#x131;" horiz-adv-x="562" 
d="M153 51q27 5 40 12t18 21.5t5 42.5v566q0 27 -7.5 36.5t-33.5 13.5l-113 15v35l283 49l24 -13v-702q0 -28 5 -42.5t18 -21.5t40 -12l91 -10v-41h-461v41z" />
    <glyph glyph-name="uni0136" unicode="&#x136;" horiz-adv-x="1446" 
d="M1389 41v-41h-512v41l77 8q62 12 62 47q0 17 -19 49l-333 598l-263 -286v-6q5 -8 6 -13t1 -20v-287q0 -29 5 -44t18.5 -23t41.5 -13l92 -10v-41h-483v41l92 10q29 5 42.5 13t18.5 22.5t5 44.5v1118q0 30 -5 45t-18.5 22.5t-42.5 12.5l-92 12v41h483v-41l-92 -12
q-28 -5 -41.5 -12.5t-18.5 -22.5t-5 -45v-633q0 -34 -9 -65l4 -4l672 713q23 26 23 42q0 26 -51 35l-76 4v41h391v-41l-59 -6q-69 -15 -105.5 -35t-81.5 -67l-333 -361l388 -692q42 -67 73.5 -93.5t80.5 -37.5zM799 -121q29 -33 29 -100q0 -80 -46.5 -154.5t-131.5 -113.5
l-10 20q45 35 73 85t31 101q-12 -4 -24 -4q-42 0 -69.5 28t-27.5 73q0 42 27.5 70t71.5 28q48 0 77 -33z" />
    <glyph glyph-name="uni0137" unicode="&#x137;" horiz-adv-x="1094" 
d="M154 51q27 4 40 11.5t18 21.5t5 43v1212q0 26 -8 35.5t-33 14.5l-113 14v35l281 49l25 -12v-1047q0 -19 -1 -36.5t-6 -37.5l7 -2l354 353q12 14 17 22.5t5 17.5q0 24 -34 33l-62 10v41h346v-41l-43 -4q-51 -6 -89.5 -27.5t-84.5 -70.5l-119 -123l-12 -14l238 -402
q34 -55 60 -75.5t65 -28.5l57 -2v-41h-442v41l63 6q28 6 40.5 14.5t12.5 21.5q0 15 -22 50l-172 293l-2 14h-6l-4 -10l-156 -141l-10 -10v-152q0 -29 4 -43t15.5 -21.5t37.5 -13.5l76 -8v-41h-439v41zM554 -384q28 50 31 101q-12 -4 -24 -4q-42 0 -69.5 28t-27.5 73
q0 42 27.5 70t71.5 28q48 0 77 -33t29 -100q0 -80 -46.5 -154.5t-131.5 -113.5l-10 20q45 35 73 85z" />
    <glyph glyph-name="Lacute" unicode="&#x139;" horiz-adv-x="1129" 
d="M406 1667q41 28 77 28q7 0 21 -2q30 -5 48.5 -28t18.5 -53q0 -5 -2 -17q-3 -34 -31 -55t-79 -27l-346 -51l-9 24zM174 51q29 5 42.5 13t18.5 22.5t5 44.5v1118q0 30 -5 45t-18.5 22.5t-42.5 12.5l-92 12v41h483v-41l-92 -12q-28 -5 -41.5 -12.5t-18.5 -22.5t-5 -45v-1130
q0 -27 -2.5 -40t-12.5 -26l2 -4h357q52 0 83 8.5t53 27.5t48 56l111 191l32 -10l-24 -322h-973v41z" />
    <glyph glyph-name="lacute" unicode="&#x13a;" horiz-adv-x="561" 
d="M389 1759q43 29 77 29q10 0 21 -3q30 -5 48.5 -28t18.5 -53q0 -5 -2 -17q-3 -34 -31 -55t-79 -27l-346 -51l-8 25zM154 51q39 6 51 21t12 55v1212q0 26 -8 35.5t-33 14.5l-113 14v35l281 49l25 -12v-1348q0 -40 12 -55t51 -21l90 -10v-41h-459v41z" />
    <glyph glyph-name="uni013B" unicode="&#x13b;" horiz-adv-x="1129" 
d="M174 51q29 5 42.5 13t18.5 22.5t5 44.5v1118q0 30 -5 45t-18.5 22.5t-42.5 12.5l-92 12v41h483v-41l-92 -12q-28 -5 -41.5 -12.5t-18.5 -22.5t-5 -45v-1130q0 -27 -2.5 -40t-12.5 -26l2 -4h357q52 0 83 8.5t53 27.5t48 56l111 191l32 -10l-24 -322h-973v41zM592 -384
q28 50 31 101q-12 -4 -25 -4q-42 0 -69 28t-27 73q0 42 27 70t71 28q49 0 78 -32.5t29 -100.5q0 -80 -46.5 -154t-132.5 -114l-10 20q46 35 74 85z" />
    <glyph glyph-name="uni013C" unicode="&#x13c;" horiz-adv-x="561" 
d="M154 51q39 6 51 21t12 55v1212q0 26 -8 35.5t-33 14.5l-113 14v35l281 49l25 -12v-1348q0 -40 12 -55t51 -21l90 -10v-41h-459v41zM299 -384q28 50 31 101q-12 -4 -24 -4q-42 0 -69.5 28t-27.5 73q0 42 27.5 70t71.5 28q48 0 77 -33t29 -100q0 -80 -46.5 -154.5
t-131.5 -113.5l-10 20q45 35 73 85z" />
    <glyph glyph-name="Lcaron" unicode="&#x13d;" horiz-adv-x="1129" 
d="M174 51q29 5 42.5 13t18.5 22.5t5 44.5v1118q0 30 -5 45t-18.5 22.5t-42.5 12.5l-92 12v41h483v-41l-92 -12q-28 -5 -41.5 -12.5t-18.5 -22.5t-5 -45v-1130q0 -27 -2.5 -40t-12.5 -26l2 -4h357q52 0 83 8.5t53 27.5t48 56l111 191l32 -10l-24 -322h-973v41zM753 1382h209
q0 -65 -44 -135.5t-134 -140.5h-35q4 90 4 276z" />
    <glyph glyph-name="lcaron" unicode="&#x13e;" horiz-adv-x="561" 
d="M154 51q39 6 51 21t12 55v1212q0 26 -8 35.5t-33 14.5l-113 14v35l281 49l25 -12v-1348q0 -40 12 -55t51 -21l90 -10v-41h-459v41zM442 1475h209q0 -65 -44.5 -136t-134.5 -141h-34q4 90 4 277z" />
    <glyph glyph-name="Lslash" unicode="&#x141;" horiz-adv-x="1129" 
d="M1079 322l-24 -322h-973v41l92 10q29 5 42.5 13t18.5 22.5t5 44.5v501l-157 -89v64l157 89v553q0 30 -5 45t-18.5 22.5t-42.5 12.5l-92 12v41h483v-41l-92 -12q-28 -5 -41.5 -12.5t-18.5 -22.5t-5 -45v-479l185 105v-64l-185 -104v-588q0 -27 -2.5 -40t-12.5 -26l2 -4
h357q52 0 83 8.5t53 27.5t48 56l111 191z" />
    <glyph glyph-name="lslash" unicode="&#x142;" horiz-adv-x="561" 
d="M369 733v-606q0 -40 12 -55t51 -21l90 -10v-41h-459v41l91 10q39 6 51 21t12 55v540l-180 -102v64l180 102v608q0 26 -8 35.5t-33 14.5l-113 14v35l281 49l25 -12v-678l178 100v-63z" />
    <glyph glyph-name="Nacute" unicode="&#x143;" horiz-adv-x="1429" 
d="M823 1667q42 28 78 28q7 0 21 -2q30 -5 48 -28.5t18 -53.5q0 -11 -1 -16q-3 -34 -31 -55t-79 -27l-347 -51l-8 24zM293 1290l6 -1159q0 -30 5.5 -45.5t20 -23.5t44.5 -13l88 -8v-41h-375v41l88 8q42 8 56 24t14 58v1120q0 29 -5 43.5t-18.5 22t-42.5 12.5l-92 12v41h358
l670 -1056q18 -32 35 -72h6l-6 997q0 43 -14.5 58.5t-57.5 23.5l-86 8v41h373v-41l-86 -8q-43 -8 -57.5 -23.5t-14.5 -58.5v-1265h-76l-827 1304h-6z" />
    <glyph glyph-name="nacute" unicode="&#x144;" horiz-adv-x="1121" 
d="M639 1309q24 82 93 82q37 0 62.5 -25.5t25.5 -60.5q0 -45 -47 -91l-250 -245l-21 14zM154 51q39 6 51 21t12 55v567q0 26 -8 35t-33 14l-113 15v35l281 49l25 -13v-81q0 -48 -4 -72l4 -4q44 84 126.5 131t182.5 47q115 0 182.5 -60t67.5 -169v-494q0 -29 5 -43t18 -21.5
t40 -11.5l90 -10v-41h-436v41l74 8q25 6 36.5 13.5t16 22t4.5 42.5v453q0 77 -50.5 118t-137.5 41q-99 0 -159 -52t-60 -144v-416q0 -40 10.5 -54.5t46.5 -23.5l74 -8v-41h-437v41z" />
    <glyph glyph-name="uni0145" unicode="&#x145;" horiz-adv-x="1429" 
d="M293 1290l6 -1159q0 -30 5.5 -45.5t20 -23.5t44.5 -13l88 -8v-41h-375v41l88 8q42 8 56 24t14 58v1120q0 29 -5 43.5t-18.5 22t-42.5 12.5l-92 12v41h358l670 -1056q18 -32 35 -72h6l-6 997q0 43 -14.5 58.5t-57.5 23.5l-86 8v41h373v-41l-86 -8q-43 -8 -57.5 -23.5
t-14.5 -58.5v-1265h-76l-827 1304h-6zM747 -384q28 50 31 101q-12 -4 -24 -4q-42 0 -69 28t-27 73q0 42 27 70t71 28q48 0 77 -33t29 -100q0 -80 -46.5 -154.5t-131.5 -113.5l-10 20q45 35 73 85z" />
    <glyph glyph-name="uni0146" unicode="&#x146;" horiz-adv-x="1121" 
d="M154 51q39 6 51 21t12 55v567q0 26 -8 35t-33 14l-113 15v35l281 49l25 -13v-81q0 -48 -4 -72l4 -4q44 84 126.5 131t182.5 47q115 0 182.5 -60t67.5 -169v-494q0 -29 5 -43t18 -21.5t40 -11.5l90 -10v-41h-436v41l74 8q25 6 36.5 13.5t16 22t4.5 42.5v453
q0 77 -50.5 118t-137.5 41q-99 0 -159 -52t-60 -144v-416q0 -40 10.5 -54.5t46.5 -23.5l74 -8v-41h-437v41zM562 -384q28 50 31 101q-12 -4 -25 -4q-42 0 -69 28t-27 73q0 42 27 70t71 28q49 0 78 -32.5t29 -100.5q0 -80 -46.5 -154t-131.5 -114l-11 20q46 35 74 85z" />
    <glyph glyph-name="Ncaron" unicode="&#x147;" horiz-adv-x="1429" 
d="M742 1581l242 134l18 -23l-238 -242h-45l-243 242l18 23zM293 1290l6 -1159q0 -30 5.5 -45.5t20 -23.5t44.5 -13l88 -8v-41h-375v41l88 8q42 8 56 24t14 58v1120q0 29 -5 43.5t-18.5 22t-42.5 12.5l-92 12v41h358l670 -1056q18 -32 35 -72h6l-6 997q0 43 -14.5 58.5
t-57.5 23.5l-86 8v41h373v-41l-86 -8q-43 -8 -57.5 -23.5t-14.5 -58.5v-1265h-76l-827 1304h-6z" />
    <glyph glyph-name="ncaron" unicode="&#x148;" horiz-adv-x="1121" 
d="M565 1164l198 221l23 -17l-199 -397h-45l-198 397l22 17zM154 51q39 6 51 21t12 55v567q0 26 -8 35t-33 14l-113 15v35l281 49l25 -13v-81q0 -48 -4 -72l4 -4q44 84 126.5 131t182.5 47q115 0 182.5 -60t67.5 -169v-494q0 -29 5 -43t18 -21.5t40 -11.5l90 -10v-41h-436
v41l74 8q25 6 36.5 13.5t16 22t4.5 42.5v453q0 77 -50.5 118t-137.5 41q-99 0 -159 -52t-60 -144v-416q0 -40 10.5 -54.5t46.5 -23.5l74 -8v-41h-437v41z" />
    <glyph glyph-name="Eng" unicode="&#x14a;" horiz-adv-x="1429" 
d="M1360 1382v-41l-86 -8q-43 -8 -57.5 -23.5t-14.5 -58.5v-1413q0 -213 -97 -319.5t-274 -112.5l-2 49q95 3 165 46.5t108.5 128t38.5 204.5v119l-25 48l-817 1289h-6l6 -1159q0 -30 5.5 -45.5t20 -23.5t44.5 -13l88 -8v-41h-375v41l88 8q42 8 56 24t14 58v1120
q0 29 -5 43.5t-18.5 22t-42.5 12.5l-92 12v41h358l670 -1056q18 -32 35 -72h6l-6 997q0 43 -14.5 58.5t-57.5 23.5l-86 8v41h373z" />
    <glyph glyph-name="eng" unicode="&#x14b;" horiz-adv-x="1098" 
d="M705 -453.5q70 86.5 70 250.5v783q0 78 -50.5 119t-136.5 41q-98 0 -158.5 -52.5t-60.5 -143.5v-417q0 -29 4.5 -43t16 -21t36.5 -13l73 -9v-41h-437v41l91 10q27 4 40 11.5t18 21.5t5 43v566q0 27 -7.5 36.5t-33.5 13.5l-113 15v35l284 49l23 -11v-83q0 -40 -5 -73l4 -3
q44 84 127 131t183 47q116 0 183 -60t67 -170v-631q0 -304 -104 -440.5t-307 -142.5l-3 49q121 5 191 91.5z" />
    <glyph glyph-name="Omacron" unicode="&#x14c;" horiz-adv-x="1425" 
d="M467 1615h491v-65h-491v65zM403 66q-145 86 -233 247.5t-88 378.5q0 218 88 379.5t233 246.5t310 85q166 0 310.5 -85t232 -246.5t87.5 -379.5q0 -217 -88 -378.5t-232.5 -247.5t-309.5 -86t-310 86zM1041.5 189.5q121.5 160.5 121.5 502.5q0 344 -121.5 503t-328.5 159
q-208 0 -330.5 -159.5t-122.5 -502.5q0 -230 58 -378t159.5 -216.5t235.5 -68.5q207 0 328.5 160.5z" />
    <glyph glyph-name="omacron" unicode="&#x14d;" horiz-adv-x="960" 
d="M234 1212h492v-65h-492v65zM277.5 31q-95.5 51 -155 150.5t-59.5 238.5q0 133 59.5 230.5t155 148.5t201.5 51q107 0 203 -51t155.5 -148.5t59.5 -230.5q0 -139 -59.5 -238.5t-155.5 -150.5t-203 -51q-106 0 -201.5 51zM601 68q56 39 91 126.5t35 225.5q0 135 -35 220.5
t-91 123t-122 37.5q-65 0 -120.5 -38t-90.5 -123t-35 -220q0 -138 35 -225.5t90.5 -126.5t120.5 -39q66 0 122 39z" />
    <glyph glyph-name="Ohungarumlaut" unicode="&#x150;" horiz-adv-x="1425" 
d="M635 1616q18 46 40 69t53 23q34 0 54.5 -21t20.5 -53t-22 -54.5t-69 -45.5l-147 -92l-18 16zM870 1616q19 46 40.5 69t52.5 23q35 0 55 -21t20 -53t-22 -54.5t-68 -45.5l-145 -92l-19 16zM403 66q-145 86 -233 247.5t-88 378.5q0 218 88 379.5t233 246.5t310 85
q166 0 310.5 -85t232 -246.5t87.5 -379.5q0 -217 -88 -378.5t-232.5 -247.5t-309.5 -86t-310 86zM1041.5 189.5q121.5 160.5 121.5 502.5q0 344 -121.5 503t-328.5 159q-208 0 -330.5 -159.5t-122.5 -502.5q0 -230 58 -378t159.5 -216.5t235.5 -68.5q207 0 328.5 160.5z" />
    <glyph glyph-name="ohungarumlaut" unicode="&#x151;" horiz-adv-x="960" 
d="M337 1266q-1 6 -1 17q0 46 25 73.5t66 27.5q39 0 62.5 -25.5t23.5 -62.5q0 -18 -5.5 -34t-17.5 -37l-125 -262l-24 4zM574 1266q-4 53 21.5 85.5t68.5 32.5q40 0 63 -25.5t23 -62.5q0 -19 -4.5 -35t-15.5 -36l-125 -262l-25 4zM277.5 31q-95.5 51 -155 150.5t-59.5 238.5
q0 133 59.5 230.5t155 148.5t201.5 51q107 0 203 -51t155.5 -148.5t59.5 -230.5q0 -139 -59.5 -238.5t-155.5 -150.5t-203 -51q-106 0 -201.5 51zM601 68q56 39 91 126.5t35 225.5q0 135 -35 220.5t-91 123t-122 37.5q-65 0 -120.5 -38t-90.5 -123t-35 -220
q0 -138 35 -225.5t90.5 -126.5t120.5 -39q66 0 122 39z" />
    <glyph glyph-name="OE" unicode="&#x152;" horiz-adv-x="1974" 
d="M1900 322l-27 -322h-919q-30 0 -66.5 -1.5t-54.5 -1.5q-51 -3 -100 -3q-175 0 -324 82.5t-238 240.5t-89 375q0 218 89 376t237.5 239.5t324.5 81.5q33 0 58 -1t42 -2q76 -4 123 -4h802l25 35h41l45 -344l-33 -10l-116 180q-28 39 -50 57.5t-51 25.5t-80 7h-385l-2 -4
q9 -11 11 -23.5t2 -37.5v-445q0 -25 -2 -37.5t-11 -23.5l2 -6h322q40 0 59.5 10.5t40.5 42.5l64 111l34 -9v-358l-34 -8l-64 108q-21 34 -40.5 45t-59.5 11h-322l-2 -4q9 -13 11 -25t2 -39v-524q0 -27 -2 -39t-11 -25l2 -4h420q51 0 79.5 6.5t50 24.5t46.5 55l117 195z
M997 1249q0 30 -5 45t-20 23l-87 12q-77 12 -156 12q-218 0 -343.5 -155t-125.5 -494t125.5 -495t343.5 -156q74 0 156 10l90 14q13 8 17.5 23t4.5 43v1118z" />
    <glyph glyph-name="oe" unicode="&#x153;" horiz-adv-x="1583" 
d="M1518 158q-68 -79 -155.5 -128.5t-207.5 -49.5q-118 0 -203.5 44.5t-133.5 125.5q-59 -82 -149.5 -126t-189.5 -44q-106 0 -201.5 51t-155 150.5t-59.5 238.5q0 133 59.5 230.5t155 148.5t201.5 51q104 0 199 -49t152 -139q57 90 147 139t191 49q87 0 157.5 -36.5
t117 -100.5t65.5 -146l-9 -14h-603q-3 -28 -3 -59v-10q4 -27 4 -63q18 -154 108.5 -245.5t242.5 -91.5q81 0 138 25t107 73zM601 68q56 39 91 126.5t35 225.5q0 135 -35 220.5t-91 123t-122 37.5q-65 0 -120.5 -38t-90.5 -123t-35 -220q0 -138 35 -225.5t90.5 -126.5
t120.5 -39q66 0 122 39zM980 736q-53 -44 -74 -130h405l2 6l-4 6q-22 72 -73.5 117t-129.5 45q-73 0 -126 -44z" />
    <glyph glyph-name="Racute" unicode="&#x154;" horiz-adv-x="1427" 
d="M736 1667q42 28 78 28q7 0 21 -2q30 -5 48.5 -28t18.5 -53q0 -5 -2 -17q-3 -34 -31 -55t-79 -27l-346 -51l-9 24zM174 51q29 5 42.5 13t18.5 22.5t5 44.5v1118q0 30 -5 45t-18.5 22.5t-42.5 12.5l-92 12v41h670q163 0 274 -47t166 -129t55 -188q0 -100 -44.5 -179.5
t-122 -129.5t-173.5 -68v-4q19 -8 28 -17t17 -24l222 -451q27 -47 53.5 -68t70.5 -28l78 -8v-41h-504v41l82 8q28 4 41 12t13 24t-17 50l-215 451q-11 23 -21.5 30t-37.5 7h-320l-2 -5q9 -12 11 -24t2 -39v-424q0 -29 5 -44t18.5 -23t41.5 -13l92 -10v-41h-483v41zM929 716
q71 44 105.5 122t34.5 180q0 152 -78.5 233.5t-238.5 81.5h-355l-4 -4q10 -12 12.5 -24.5t2.5 -38.5v-527q0 -26 -2 -38.5t-11 -24.5l2 -4h357q104 0 175 44z" />
    <glyph glyph-name="racute" unicode="&#x155;" horiz-adv-x="743" 
d="M533 1309q23 82 92 82q37 0 62.5 -25.5t25.5 -60.5q0 -45 -47 -91l-250 -245l-21 14zM154 51q39 6 51 21t12 55v567q0 26 -8 35t-33 14l-113 15v35l281 49l25 -13v-92q0 -45 -4 -71l4 -2q41 82 105 134t140 52q32 0 72 -10v-129l-12 -13q-54 19 -113 19q-50 0 -94 -21
t-71 -61t-27 -96v-412q0 -40 12 -55t51 -19l133 -12v-41h-502v41z" />
    <glyph glyph-name="uni0156" unicode="&#x156;" horiz-adv-x="1427" 
d="M174 51q29 5 42.5 13t18.5 22.5t5 44.5v1118q0 30 -5 45t-18.5 22.5t-42.5 12.5l-92 12v41h670q163 0 274 -47t166 -129t55 -188q0 -100 -44.5 -179.5t-122 -129.5t-173.5 -68v-4q19 -8 28 -17t17 -24l222 -451q27 -47 53.5 -68t70.5 -28l78 -8v-41h-504v41l82 8
q28 4 41 12t13 24t-17 50l-215 451q-11 23 -21.5 30t-37.5 7h-320l-2 -5q9 -12 11 -24t2 -39v-424q0 -29 5 -44t18.5 -23t41.5 -13l92 -10v-41h-483v41zM929 716q71 44 105.5 122t34.5 180q0 152 -78.5 233.5t-238.5 81.5h-355l-4 -4q10 -12 12.5 -24.5t2.5 -38.5v-527
q0 -26 -2 -38.5t-11 -24.5l2 -4h357q104 0 175 44zM715 -384q28 50 31 101q-12 -4 -24 -4q-42 0 -69.5 28t-27.5 73q0 42 27.5 70t71.5 28q48 0 77 -33t29 -100q0 -80 -46.5 -154.5t-131.5 -113.5l-10 20q45 35 73 85z" />
    <glyph glyph-name="uni0157" unicode="&#x157;" horiz-adv-x="743" 
d="M154 51q39 6 51 21t12 55v567q0 26 -8 35t-33 14l-113 15v35l281 49l25 -13v-92q0 -45 -4 -71l4 -2q41 82 105 134t140 52q32 0 72 -10v-129l-12 -13q-54 19 -113 19q-50 0 -94 -21t-71 -61t-27 -96v-412q0 -40 12 -55t51 -19l133 -12v-41h-502v41zM287 -384
q28 50 31 101q-12 -4 -24 -4q-42 0 -69.5 28t-27.5 73q0 42 27.5 70t71.5 28q48 0 77 -33t29 -100q0 -80 -46.5 -154.5t-131.5 -113.5l-10 20q45 35 73 85z" />
    <glyph glyph-name="Rcaron" unicode="&#x158;" horiz-adv-x="1427" 
d="M655 1581l242 134l18 -23l-237 -242h-45l-244 242l18 23zM174 51q29 5 42.5 13t18.5 22.5t5 44.5v1118q0 30 -5 45t-18.5 22.5t-42.5 12.5l-92 12v41h670q163 0 274 -47t166 -129t55 -188q0 -100 -44.5 -179.5t-122 -129.5t-173.5 -68v-4q19 -8 28 -17t17 -24l222 -451
q27 -47 53.5 -68t70.5 -28l78 -8v-41h-504v41l82 8q28 4 41 12t13 24t-17 50l-215 451q-11 23 -21.5 30t-37.5 7h-320l-2 -5q9 -12 11 -24t2 -39v-424q0 -29 5 -44t18.5 -23t41.5 -13l92 -10v-41h-483v41zM929 716q71 44 105.5 122t34.5 180q0 152 -78.5 233.5t-238.5 81.5
h-355l-4 -4q10 -12 12.5 -24.5t2.5 -38.5v-527q0 -26 -2 -38.5t-11 -24.5l2 -4h357q104 0 175 44z" />
    <glyph glyph-name="rcaron" unicode="&#x159;" horiz-adv-x="743" 
d="M458 1164l198 221l23 -17l-199 -397h-45l-198 397l22 17zM154 51q39 6 51 21t12 55v567q0 26 -8 35t-33 14l-113 15v35l281 49l25 -13v-92q0 -45 -4 -71l4 -2q41 82 105 134t140 52q32 0 72 -10v-129l-12 -13q-54 19 -113 19q-50 0 -94 -21t-71 -61t-27 -96v-412
q0 -40 12 -55t51 -19l133 -12v-41h-502v41z" />
    <glyph glyph-name="Sacute" unicode="&#x15a;" horiz-adv-x="1116" 
d="M609 1667q42 28 78 28q6 0 20 -2q30 -5 48.5 -28t18.5 -53q0 -5 -2 -17q-3 -34 -31 -55t-79 -27l-346 -51l-8 24zM334 19q-94 39 -162 98h-6l-45 -117h-41v393h39q50 -122 109 -201t143.5 -121t203.5 -42q155 0 235.5 69t80.5 185q0 93 -50 159.5t-123 110.5t-198 103
q-134 63 -214.5 113t-136.5 128.5t-56 189.5q0 152 102 234t281 82q125 0 219.5 -39t156.5 -96h7l45 114h41v-393h-39q-69 183 -172 274t-262 91q-118 0 -181 -50t-63 -141q0 -80 46.5 -138.5t115.5 -99t190 -97.5q141 -66 228 -119.5t147.5 -139t60.5 -207.5
q0 -115 -53.5 -201t-158.5 -133.5t-257 -47.5q-139 0 -233 39z" />
    <glyph glyph-name="sacute" unicode="&#x15b;" horiz-adv-x="727" 
d="M428 1309q24 82 93 82q37 0 62.5 -25.5t25.5 -60.5q0 -45 -47 -91l-250 -245l-21 14zM88 25v190h29l24 -45q43 -73 101.5 -107t126.5 -34q70 0 109.5 35.5t39.5 97.5q0 51 -26 88t-63.5 61.5t-103.5 57.5q-76 38 -121 68t-76.5 79t-31.5 121q0 98 69.5 155.5t188.5 57.5
q113 0 244 -55v-177h-29l-28 56q-39 65 -92 97t-111 32q-56 0 -89.5 -27.5t-33.5 -75.5q0 -46 25 -79t62 -55.5t102 -53.5q79 -37 127 -68t82 -83t34 -128q0 -77 -36 -134t-105 -88t-164 -31q-125 0 -254 45z" />
    <glyph glyph-name="Scedilla" unicode="&#x15e;" horiz-adv-x="1116" 
d="M984.5 164q-51.5 -85 -153 -133t-248.5 -51l-25 -108q215 -43 215 -187q0 -58 -32.5 -105t-92 -74.5t-137.5 -27.5t-127 18v115l2 2q107 -41 190 -41q67 0 100 23t33 61q0 42 -51.5 68t-169.5 43l52 213q-127 5 -215 43.5t-153 93.5h-6l-45 -117h-41v393h39
q50 -122 109 -201t143.5 -121t203.5 -42q155 0 235.5 69t80.5 185q0 93 -50 159.5t-123 110.5t-198 103q-134 63 -214.5 113t-136.5 128.5t-56 189.5q0 152 102 234t281 82q125 0 219.5 -39t156.5 -96h7l45 114h41v-393h-39q-69 183 -172 274t-262 91q-118 0 -181 -50
t-63 -141q0 -80 46.5 -138.5t115.5 -99t190 -97.5q141 -66 228 -119.5t147.5 -139t60.5 -207.5q0 -113 -51.5 -198z" />
    <glyph glyph-name="scedilla" unicode="&#x15f;" horiz-adv-x="727" 
d="M575.5 56q-71.5 -67 -199.5 -75l-26 -109q214 -43 214 -187q0 -58 -32.5 -105t-92 -74.5t-137.5 -27.5q-75 0 -127 18v115l2 2q107 -41 191 -41q67 0 100 23t33 61q0 41 -52 67.5t-170 43.5l53 213q-117 1 -244 45v190h29l24 -45q43 -73 101.5 -107t126.5 -34
q70 0 109.5 35.5t39.5 97.5q0 51 -26 88t-63.5 61.5t-103.5 57.5q-76 38 -121 68t-76.5 79t-31.5 121q0 98 69.5 155.5t188.5 57.5q113 0 244 -55v-177h-29l-28 56q-39 65 -92 97t-111 32q-56 0 -89.5 -27.5t-33.5 -75.5q0 -46 25 -79t62 -55.5t102 -53.5q79 -37 127 -68
t82 -83t34 -128q0 -110 -71.5 -177z" />
    <glyph glyph-name="Scaron" unicode="&#x160;" horiz-adv-x="1116" 
d="M527 1581l242 134l18 -23l-237 -242h-45l-244 242l18 23zM334 19q-94 39 -162 98h-6l-45 -117h-41v393h39q50 -122 109 -201t143.5 -121t203.5 -42q155 0 235.5 69t80.5 185q0 93 -50 159.5t-123 110.5t-198 103q-134 63 -214.5 113t-136.5 128.5t-56 189.5
q0 152 102 234t281 82q125 0 219.5 -39t156.5 -96h7l45 114h41v-393h-39q-69 183 -172 274t-262 91q-118 0 -181 -50t-63 -141q0 -80 46.5 -138.5t115.5 -99t190 -97.5q141 -66 228 -119.5t147.5 -139t60.5 -207.5q0 -115 -53.5 -201t-158.5 -133.5t-257 -47.5
q-139 0 -233 39z" />
    <glyph glyph-name="scaron" unicode="&#x161;" horiz-adv-x="727" 
d="M354 1164l198 221l23 -17l-199 -397h-45l-199 397l23 17zM88 25v190h29l24 -45q43 -73 101.5 -107t126.5 -34q70 0 109.5 35.5t39.5 97.5q0 51 -26 88t-63.5 61.5t-103.5 57.5q-76 38 -121 68t-76.5 79t-31.5 121q0 98 69.5 155.5t188.5 57.5q113 0 244 -55v-177h-29
l-28 56q-39 65 -92 97t-111 32q-56 0 -89.5 -27.5t-33.5 -75.5q0 -46 25 -79t62 -55.5t102 -53.5q79 -37 127 -68t82 -83t34 -128q0 -77 -36 -134t-105 -88t-164 -31q-125 0 -254 45z" />
    <glyph glyph-name="uni0162" unicode="&#x162;" horiz-adv-x="1253" 
d="M1225 1071l-35 -8l-96 180q-25 38 -45 56t-49 26t-78 8h-222l-4 -4q10 -11 12.5 -23.5t2.5 -37.5v-1137q0 -30 5 -45t19 -23t43 -12l121 -10v-41h-250l-30 -128q214 -43 214 -187q0 -58 -32.5 -105t-92 -74.5t-137.5 -27.5q-77 0 -127 18v115l2 2q107 -41 190 -41
q68 0 100.5 23t32.5 61q0 42 -51.5 68t-169.5 43l58 233h-252v41l119 10q43 6 56.5 21.5t13.5 58.5v1137q0 25 2 37.5t10 23.5l-2 4h-221q-50 0 -78.5 -8t-48.5 -26t-45 -56l-99 -180l-34 8l24 346h41l25 -35h1020l24 35h41z" />
    <glyph glyph-name="uni0163" unicode="&#x163;" horiz-adv-x="736" 
d="M332 743l-2 -6q4 -16 4 -53v-483q0 -68 36.5 -103t108.5 -35q93 0 156 60l20 -25q-46 -52 -100 -82.5t-125 -34.5l-25 -109q110 -22 162 -69t52 -118q0 -58 -32.5 -105t-92 -74.5t-137.5 -27.5q-75 0 -127 18v115l2 2q109 -41 191 -41q67 0 100 23t33 61q0 41 -52 67.5
t-169 43.5l52 214q-100 5 -153.5 55.5t-53.5 141.5v565h-137l14 86h103q24 0 34 6.5t19 26.5l82 187l39 -7v-153q0 -37 -4 -55l2 -5h344l-17 -86h-327z" />
    <glyph glyph-name="Tcaron" unicode="&#x164;" horiz-adv-x="1253" 
d="M628 1581l242 134l18 -23l-238 -242h-45l-243 242l18 23zM473 51q43 6 56.5 21.5t13.5 58.5v1137q0 25 2 37.5t10 23.5l-2 4h-221q-50 0 -78.5 -8t-48.5 -26t-45 -56l-99 -180l-34 8l24 346h41l25 -35h1020l24 35h41l23 -346l-35 -8l-96 180q-25 38 -45 56t-49 26t-78 8
h-222l-4 -4q10 -11 12.5 -23.5t2.5 -37.5v-1137q0 -30 5 -45t19 -23t43 -12l121 -10v-41h-545v41z" />
    <glyph glyph-name="tcaron" unicode="&#x165;" horiz-adv-x="736" 
d="M637 1246.5q-44 -70.5 -134 -140.5h-35q4 90 4 276h209q0 -65 -44 -135.5zM332 829h344l-17 -86h-327l-2 -6q4 -16 4 -53v-483q0 -68 36.5 -103t108.5 -35q93 0 156 60l20 -25q-49 -56 -108 -87t-137 -31q-111 0 -170.5 51t-59.5 147v565h-137l14 86h103q24 0 34 6.5
t19 26.5l82 187l39 -7v-153q0 -37 -4 -55z" />
    <glyph glyph-name="Tbar" unicode="&#x166;" horiz-adv-x="1253" 
d="M1225 1071l-35 -8l-96 180q-25 38 -45 56t-49 26t-78 8h-222l-4 -4q10 -11 12.5 -23.5t2.5 -37.5v-523h230l-22 -86h-208v-528q0 -30 5 -45t19 -23t43 -12l121 -10v-41h-545v41l119 10q43 6 56.5 21.5t13.5 58.5v528h-231l25 86h206v523q0 25 2 37.5t10 23.5l-2 4h-221
q-50 0 -78.5 -8t-48.5 -26t-45 -56l-99 -180l-34 8l24 346h41l25 -35h1020l24 35h41z" />
    <glyph glyph-name="tbar" unicode="&#x167;" horiz-adv-x="736" 
d="M332 743l-2 -6q4 -16 4 -53v-174h325l-25 -84h-300v-225q0 -68 36.5 -103t108.5 -35q93 0 156 60l20 -25q-49 -56 -108 -87t-137 -31q-111 0 -170.5 51t-59.5 147v248h-142l23 84h119v233h-137l14 86h103q24 0 34 6.5t19 26.5l82 187l39 -7v-153q0 -37 -4 -55l2 -5h344
l-17 -86h-327z" />
    <glyph glyph-name="Umacron" unicode="&#x16a;" horiz-adv-x="1382" 
d="M509 1615h492v-65h-492v65zM343 90q-116 108 -116 318v843q0 29 -5.5 43.5t-19 22t-42.5 12.5l-90 12v41h481v-41l-90 -12q-28 -4 -42 -11.5t-19 -22.5t-5 -44v-833q0 -180 84 -270.5t269 -90.5q177 0 269.5 92t90.5 259l-10 843q0 29 -6 44.5t-20.5 23t-43.5 12.5
l-88 10v41h373v-41l-86 -10q-31 -5 -45.5 -12.5t-20.5 -22.5t-6 -45v-850q0 -132 -53.5 -226t-157 -143.5t-250.5 -49.5q-235 0 -351 108z" />
    <glyph glyph-name="umacron" unicode="&#x16b;" horiz-adv-x="1074" 
d="M271 1212h491v-65h-491v65zM253.5 34q-60.5 54 -60.5 154v506q0 26 -7.5 35t-33.5 14l-113 15v35l283 49l24 -13v-596q0 -67 46.5 -105t125.5 -38q60 0 107.5 23.5t74.5 68t27 105.5v407q0 27 -6.5 36t-32.5 13l-113 15v35l283 49l23 -13v-692q0 -27 7.5 -37t33.5 -14
l112 -14v-35l-282 -49l-25 12v82q0 35 6 72l-6 4q-42 -84 -122.5 -131t-178.5 -47q-112 0 -172.5 54z" />
    <glyph glyph-name="Uring" unicode="&#x16e;" horiz-adv-x="1382" 
d="M622.5 1477.5q-59.5 15.5 -94.5 43.5t-35 62q0 33 35 60t94.5 42t130.5 15t130.5 -15t94.5 -42t35 -60q0 -34 -35 -62t-94.5 -43.5t-130.5 -15.5t-130.5 15.5zM847.5 1528q32.5 21 32.5 55q0 31 -33 52.5t-94 21.5t-94 -21.5t-33 -52.5q0 -34 32.5 -55t94.5 -21t94.5 21z
M343 90q-116 108 -116 318v843q0 29 -5.5 43.5t-19 22t-42.5 12.5l-90 12v41h481v-41l-90 -12q-28 -4 -42 -11.5t-19 -22.5t-5 -44v-833q0 -180 84 -270.5t269 -90.5q177 0 269.5 92t90.5 259l-10 843q0 29 -6 44.5t-20.5 23t-43.5 12.5l-88 10v41h373v-41l-86 -10
q-31 -5 -45.5 -12.5t-20.5 -22.5t-6 -45v-850q0 -132 -53.5 -226t-157 -143.5t-250.5 -49.5q-235 0 -351 108z" />
    <glyph glyph-name="uring" unicode="&#x16f;" horiz-adv-x="1074" 
d="M401.5 1039q-50.5 21 -79.5 58t-29 83q0 45 29 82t79.5 58t112.5 21t112.5 -21t79.5 -58t29 -82q0 -46 -29 -83t-79.5 -58t-112.5 -21t-112.5 21zM590 1096.5q27 33.5 27 83.5q0 51 -27 84.5t-76 33.5q-48 0 -75 -33.5t-27 -84.5q0 -50 27 -83.5t75 -33.5q49 0 76 33.5z
M253.5 34q-60.5 54 -60.5 154v506q0 26 -7.5 35t-33.5 14l-113 15v35l283 49l24 -13v-596q0 -67 46.5 -105t125.5 -38q60 0 107.5 23.5t74.5 68t27 105.5v407q0 27 -6.5 36t-32.5 13l-113 15v35l283 49l23 -13v-692q0 -27 7.5 -37t33.5 -14l112 -14v-35l-282 -49l-25 12v82
q0 35 6 72l-6 4q-42 -84 -122.5 -131t-178.5 -47q-112 0 -172.5 54z" />
    <glyph glyph-name="Uhungarumlaut" unicode="&#x170;" horiz-adv-x="1382" 
d="M677 1616q19 46 41 69t53 23q34 0 54 -21t20 -53t-22 -54.5t-68 -45.5l-147 -92l-19 16zM913 1616q18 46 40 69t53 23q34 0 54.5 -21t20.5 -53t-22 -54.5t-68 -45.5l-146 -92l-18 16zM343 90q-116 108 -116 318v843q0 29 -5.5 43.5t-19 22t-42.5 12.5l-90 12v41h481v-41
l-90 -12q-28 -4 -42 -11.5t-19 -22.5t-5 -44v-833q0 -180 84 -270.5t269 -90.5q177 0 269.5 92t90.5 259l-10 843q0 29 -6 44.5t-20.5 23t-43.5 12.5l-88 10v41h373v-41l-86 -10q-31 -5 -45.5 -12.5t-20.5 -22.5t-6 -45v-850q0 -132 -53.5 -226t-157 -143.5t-250.5 -49.5
q-235 0 -351 108z" />
    <glyph glyph-name="uhungarumlaut" unicode="&#x171;" horiz-adv-x="1074" 
d="M373 1266q-4 53 21 85.5t69 32.5q39 0 62.5 -25.5t23.5 -62.5q0 -18 -5 -33.5t-17 -37.5l-125 -262l-25 4zM610 1266q-4 53 21.5 85.5t69.5 32.5q40 0 63 -25.5t23 -62.5q0 -19 -5 -34.5t-16 -36.5l-125 -262l-24 4zM253.5 34q-60.5 54 -60.5 154v506q0 26 -7.5 35
t-33.5 14l-113 15v35l283 49l24 -13v-596q0 -67 46.5 -105t125.5 -38q60 0 107.5 23.5t74.5 68t27 105.5v407q0 27 -6.5 36t-32.5 13l-113 15v35l283 49l23 -13v-692q0 -27 7.5 -37t33.5 -14l112 -14v-35l-282 -49l-25 12v82q0 35 6 72l-6 4q-42 -84 -122.5 -131t-178.5 -47
q-112 0 -172.5 54z" />
    <glyph glyph-name="Uogonek" unicode="&#x172;" horiz-adv-x="1382" 
d="M1313 1382v-41l-86 -10q-31 -5 -45.5 -12.5t-20.5 -22.5t-6 -45v-850q0 -162 -80.5 -266t-232.5 -138q-98 -49 -145.5 -108.5t-47.5 -134.5q0 -55 24 -98.5t70 -68.5t109 -25q44 0 81 14.5t71 42.5l18 -20q-100 -121 -237 -121q-117 0 -181.5 61.5t-64.5 165.5
q0 86 50.5 154t147.5 124q-14 -1 -43 -1q-235 0 -351 108t-116 318v843q0 29 -5.5 43.5t-19 22t-42.5 12.5l-90 12v41h481v-41l-90 -12q-28 -4 -42 -11.5t-19 -22.5t-5 -44v-833q0 -180 84 -270.5t269 -90.5q177 0 269.5 92t90.5 259l-10 843q0 29 -6 44.5t-20.5 23
t-43.5 12.5l-88 10v41h373z" />
    <glyph glyph-name="uogonek" unicode="&#x173;" horiz-adv-x="1074" 
d="M665.5 -110.5q-48.5 -59.5 -48.5 -135.5q0 -55 24 -98.5t70 -68.5t109 -25q44 0 80.5 14.5t70.5 42.5l19 -20q-100 -121 -238 -121q-116 0 -180.5 61.5t-64.5 165.5q0 92 57 163t167 130l-4 2v82q0 35 6 72l-6 4q-42 -84 -122.5 -131t-178.5 -47q-112 0 -172.5 54
t-60.5 154v506q0 26 -7.5 35t-33.5 14l-113 15v35l283 49l24 -13v-596q0 -67 46.5 -105t125.5 -38q60 0 107.5 23.5t74.5 68t27 105.5v407q0 27 -6.5 36t-32.5 13l-113 15v35l283 49l23 -13v-692q0 -27 7.5 -37t33.5 -14l112 -14v-35l-221 -38q-99 -50 -147.5 -109.5z" />
    <glyph glyph-name="Wcircumflex" unicode="&#x174;" horiz-adv-x="2056" 
d="M1045 1589l-248 -133l-18 23l243 241h45l238 -241l-19 -23zM2046 1382v-41l-66 -4q-49 -9 -71 -30t-39 -70l-379 -1237h-186l-275 862v12h-6v-6l-274 -868h-187l-377 1237q-17 49 -39 70t-71 30l-66 4v41h494v-41l-78 -4q-34 -7 -50.5 -21.5t-16.5 -39.5q0 -15 8 -41
l348 -1147v-4h6v4l279 907l-72 242q-18 49 -40.5 70t-70.5 30l-67 4v41h493v-41l-72 -6q-38 -7 -55 -19.5t-17 -36.5q0 -17 7 -38l348 -1153v-6h8v6l346 1147q7 21 7 40q0 25 -16.5 40t-51.5 22l-76 4v41h375z" />
    <glyph glyph-name="wcircumflex" unicode="&#x175;" horiz-adv-x="1461" 
d="M554 985l198 397h45l199 -397l-22 -16l-199 221l-199 -221zM94 767q-15 14 -45 17l-45 4v41h414v-41l-82 -14q-54 -9 -54 -41q0 -10 7 -26l207 -576h2l245 698h86l248 -700h2l199 571q6 18 6 32q0 33 -43 42l-94 14v41h309v-41l-45 -4q-28 -3 -42.5 -16t-29.5 -47
l-252 -721h-129l-223 616v15h-8v-13l-221 -618h-131l-250 715q-16 38 -31 52z" />
    <glyph glyph-name="Ycircumflex" unicode="&#x176;" horiz-adv-x="1396" 
d="M500 1479l244 241h45l238 -241l-19 -23l-242 133l-247 -133zM545 51q29 4 43 12t19 23t5 45v438l-401 674q-27 44 -53.5 64.5t-69.5 27.5l-72 6v41h496v-41l-80 -8q-50 -8 -50 -38q0 -17 17 -46l361 -600v-8h6v8l364 600q17 29 17 46q0 30 -49 38l-80 8v41h360v-41
l-71 -6q-43 -7 -69.5 -27t-55.5 -65l-402 -672v-440q0 -30 5.5 -45t20 -23t44.5 -12l119 -10v-41h-543v41z" />
    <glyph glyph-name="ycircumflex" unicode="&#x177;" horiz-adv-x="913" 
d="M498 1190l-199 -221l-22 16l198 397h45l199 -397l-23 -16zM907 829v-41l-51 -6q-30 -3 -46 -15.5t-30 -45.5l-356 -1000q-42 -110 -90.5 -178.5t-112.5 -102.5t-151 -34q-56 0 -86 10v135l2 3q55 -21 137 -21q64 0 108.5 19t80 65t67.5 129l58 168l-316 807
q-16 33 -32 45.5t-46 15.5l-51 6v41h418v-41l-84 -10q-24 -5 -34.5 -12.5t-10.5 -20.5q0 -14 12 -40l215 -555l2 -13h6l2 13l199 550q12 27 12 43q0 15 -11 22.5t-36 12.5l-84 10v41h309z" />
    <glyph glyph-name="Ydieresis" unicode="&#x178;" horiz-adv-x="1396" 
d="M559.5 1511q-28.5 29 -28.5 72t28.5 71.5t71.5 28.5t72 -28.5t29 -71.5t-28.5 -72t-72.5 -29q-43 0 -71.5 29zM829.5 1511q-28.5 29 -28.5 72t28.5 71.5t71.5 28.5t72 -28.5t29 -71.5t-28.5 -72t-72.5 -29q-43 0 -71.5 29zM545 51q29 4 43 12t19 23t5 45v438l-401 674
q-27 44 -53.5 64.5t-69.5 27.5l-72 6v41h496v-41l-80 -8q-50 -8 -50 -38q0 -17 17 -46l361 -600v-8h6v8l364 600q17 29 17 46q0 30 -49 38l-80 8v41h360v-41l-71 -6q-43 -7 -69.5 -27t-55.5 -65l-402 -672v-440q0 -30 5.5 -45t20 -23t44.5 -12l119 -10v-41h-543v41z" />
    <glyph glyph-name="Zacute" unicode="&#x179;" horiz-adv-x="1109" 
d="M638 1667q42 28 78 28q7 0 21 -2q30 -5 48 -28.5t18 -53.5q0 -11 -1 -16q-3 -34 -31 -55t-79 -27l-347 -51l-8 24zM68 0v43l768 1278l10 6v6h-455q-52 0 -82 -8t-51 -26.5t-49 -57.5l-109 -178l-34 10l43 344h41l22 -35h866v-47l-766 -1274l-8 -6v-6h479q52 0 82.5 8
t51.5 27t45 57l100 178l35 -8l-27 -346h-41l-22 35h-899z" />
    <glyph glyph-name="zacute" unicode="&#x17a;" horiz-adv-x="748" 
d="M454 1309q23 82 92 82q37 0 62.5 -25.5t25.5 -60.5q0 -47 -47 -91l-250 -245l-21 14zM489 768l15 10v6h-203q-51 0 -74 -11t-47 -46l-67 -102h-29l6 204h582v-30l-416 -738l-14 -10v-6h211q53 0 79.5 13t51.5 51l65 102h29l-8 -211h-596v31z" />
    <glyph glyph-name="Zdotaccent" unicode="&#x17b;" horiz-adv-x="1109" 
d="M485.5 1511q-28.5 29 -28.5 72t28.5 71.5t71.5 28.5t71.5 -28.5t28.5 -71.5t-28.5 -72t-71.5 -29t-71.5 29zM68 0v43l768 1278l10 6v6h-455q-52 0 -82 -8t-51 -26.5t-49 -57.5l-109 -178l-34 10l43 344h41l22 -35h866v-47l-766 -1274l-8 -6v-6h479q52 0 82.5 8t51.5 27
t45 57l100 178l35 -8l-27 -346h-41l-22 35h-899z" />
    <glyph glyph-name="zdotaccent" unicode="&#x17c;" horiz-adv-x="748" 
d="M307 1108q-29 29 -29 72t29 71.5t72 28.5t71.5 -28.5t28.5 -71.5t-28.5 -72t-71.5 -29t-72 29zM489 768l15 10v6h-203q-51 0 -74 -11t-47 -46l-67 -102h-29l6 204h582v-30l-416 -738l-14 -10v-6h211q53 0 79.5 13t51.5 51l65 102h29l-8 -211h-596v31z" />
    <glyph glyph-name="Zcaron" unicode="&#x17d;" horiz-adv-x="1109" 
d="M557 1581l242 134l18 -23l-238 -242h-45l-243 242l18 23zM68 0v43l768 1278l10 6v6h-455q-52 0 -82 -8t-51 -26.5t-49 -57.5l-109 -178l-34 10l43 344h41l22 -35h866v-47l-766 -1274l-8 -6v-6h479q52 0 82.5 8t51.5 27t45 57l100 178l35 -8l-27 -346h-41l-22 35h-899z
" />
    <glyph glyph-name="zcaron" unicode="&#x17e;" horiz-adv-x="748" 
d="M379 1164l198 221l23 -17l-199 -397h-45l-198 397l22 17zM489 768l15 10v6h-203q-51 0 -74 -11t-47 -46l-67 -102h-29l6 204h582v-30l-416 -738l-14 -10v-6h211q53 0 79.5 13t51.5 51l65 102h29l-8 -211h-596v31z" />
    <glyph glyph-name="florin" unicode="&#x192;" 
d="M1094 1480v-166l-18 -1q-70 43 -125.5 64.5t-106.5 21.5q-78 0 -127.5 -61t-49.5 -176v-272q0 -33 -5 -56l2 -5h381l-16 -86h-365l-2 -5q5 -21 5 -54v-231q0 -180 -62.5 -313.5t-164.5 -204t-218 -70.5q-63 0 -135 15v167h18q71 -44 125.5 -65t106.5 -21q51 0 91 26.5
t63 80t23 130.5v545h-386l15 86h371v79q0 180 62 313t164.5 203.5t218.5 70.5q63 0 135 -15z" />
    <glyph glyph-name="uni0218" unicode="&#x218;" horiz-adv-x="1116" 
d="M334 19q-94 39 -162 98h-6l-45 -117h-41v393h39q50 -122 109 -201t143.5 -121t203.5 -42q155 0 235.5 69t80.5 185q0 93 -50 159.5t-123 110.5t-198 103q-134 63 -214.5 113t-136.5 128.5t-56 189.5q0 152 102 234t281 82q125 0 219.5 -39t156.5 -96h7l45 114h41v-393
h-39q-69 183 -172 274t-262 91q-118 0 -181 -50t-63 -141q0 -80 46.5 -138.5t115.5 -99t190 -97.5q141 -66 228 -119.5t147.5 -139t60.5 -207.5q0 -115 -53.5 -201t-158.5 -133.5t-257 -47.5q-139 0 -233 39zM557 -384q28 50 31 101q-12 -4 -24 -4q-42 0 -69.5 28t-27.5 73
q0 42 27.5 70t71.5 28q48 0 77 -33t29 -100q0 -80 -46.5 -154.5t-131.5 -113.5l-10 20q45 35 73 85z" />
    <glyph glyph-name="uni0219" unicode="&#x219;" horiz-adv-x="727" 
d="M88 25v190h29l24 -45q43 -73 101.5 -107t126.5 -34q70 0 109.5 35.5t39.5 97.5q0 51 -26 88t-63.5 61.5t-103.5 57.5q-76 38 -121 68t-76.5 79t-31.5 121q0 98 69.5 155.5t188.5 57.5q113 0 244 -55v-177h-29l-28 56q-39 65 -92 97t-111 32q-56 0 -89.5 -27.5
t-33.5 -75.5q0 -46 25 -79t62 -55.5t102 -53.5q79 -37 127 -68t82 -83t34 -128q0 -77 -36 -134t-105 -88t-164 -31q-125 0 -254 45zM349 -384q28 50 31 101q-14 -4 -25 -4q-42 0 -69 28t-27 73q0 42 27 70t71 28q49 0 78 -32.5t29 -100.5q0 -80 -46.5 -154t-132.5 -114
l-10 20q46 35 74 85z" />
    <glyph glyph-name="uni021A" unicode="&#x21a;" horiz-adv-x="1253" 
d="M473 51q43 6 56.5 21.5t13.5 58.5v1137q0 25 2 37.5t10 23.5l-2 4h-221q-50 0 -78.5 -8t-48.5 -26t-45 -56l-99 -180l-34 8l24 346h41l25 -35h1020l24 35h41l23 -346l-35 -8l-96 180q-25 38 -45 56t-49 26t-78 8h-222l-4 -4q10 -11 12.5 -23.5t2.5 -37.5v-1137
q0 -30 5 -45t19 -23t43 -12l121 -10v-41h-545v41zM617 -384q28 50 31 101q-12 -4 -24 -4q-42 0 -69 28t-27 73q0 42 27 70t71 28q48 0 77 -33t29 -100q0 -80 -46.5 -154.5t-131.5 -113.5l-10 20q45 35 73 85z" />
    <glyph glyph-name="uni021B" unicode="&#x21b;" horiz-adv-x="736" 
d="M332 743l-2 -6q4 -16 4 -53v-483q0 -68 36.5 -103t108.5 -35q93 0 156 60l20 -25q-49 -56 -108 -87t-137 -31q-111 0 -170.5 51t-59.5 147v565h-137l14 86h103q24 0 34 6.5t19 26.5l82 187l39 -7v-153q0 -37 -4 -55l2 -5h344l-17 -86h-327zM490 -120.5
q29 -32.5 29 -100.5q0 -80 -46.5 -154t-131.5 -114l-11 20q46 35 74 85t31 101q-12 -4 -25 -4q-42 0 -69 28t-27 73q0 42 27 70t71 28q49 0 78 -32.5z" />
    <glyph glyph-name="uni0237" unicode="&#x237;" horiz-adv-x="539" 
d="M152.5 -455q63.5 79 63.5 241v907q0 27 -7.5 36.5t-33.5 13.5l-113 15v35l283 49l24 -13v-849q0 -196 -42.5 -319.5t-130.5 -185t-228 -69.5l-9 49q130 11 193.5 90z" />
    <glyph glyph-name="circumflex" unicode="&#x2c6;" horiz-adv-x="2048" 
d="M803 986l198 397h46l199 -397l-23 -16l-199 221l-199 -221z" />
    <glyph glyph-name="caron" unicode="&#x2c7;" horiz-adv-x="2048" 
d="M1024 1164l199 221l22 -17l-198 -397h-46l-198 397l22 17z" />
    <glyph glyph-name="breve" unicode="&#x2d8;" horiz-adv-x="2048" 
d="M842 1113q-53 69 -53 202h51q0 -76 44.5 -115t138.5 -39t141.5 39.5t47.5 114.5h50q0 -132 -55.5 -201.5t-183.5 -69.5t-181 69z" />
    <glyph glyph-name="dotaccent" unicode="&#x2d9;" horiz-adv-x="2048" 
d="M952 1108q-29 29 -29 72q0 42 29 71t72 29t72 -29t29 -71q0 -43 -29 -72t-72 -29t-72 29z" />
    <glyph glyph-name="ring" unicode="&#x2da;" horiz-adv-x="2048" 
d="M910 1039.5q-51 21.5 -80.5 58.5t-29.5 82t29.5 82t80.5 58.5t112 21.5t112 -21.5t80.5 -58.5t29.5 -82t-29.5 -82t-80.5 -58.5t-112 -21.5t-112 21.5zM1097 1095.5q26 33.5 26 84.5t-26 84.5t-75 33.5t-75 -33.5t-26 -84.5t26 -84.5t75 -33.5t75 33.5z" />
    <glyph glyph-name="ogonek" unicode="&#x2db;" horiz-adv-x="2048" 
d="M820 -460.5q-65 61.5 -65 165.5t74.5 182t215.5 142l20 -29q-100 -49 -149.5 -109.5t-49.5 -136.5q0 -85 54 -138.5t149 -53.5q44 0 81 14.5t71 41.5l18 -20q-103 -120 -238 -120q-116 0 -181 61.5z" />
    <glyph glyph-name="tilde" unicode="&#x2dc;" horiz-adv-x="2048" 
d="M1062.5 1081.5q-35.5 18.5 -81.5 53.5q-36 28 -59 41t-51 13q-44 0 -63.5 -27.5t-19.5 -88.5h-49q0 118 43 171.5t119 53.5q49 0 84.5 -18.5t81.5 -53.5q36 -28 59 -41t51 -13q43 0 62.5 27.5t19.5 88.5h49q0 -118 -43 -171.5t-118 -53.5q-49 0 -84.5 18.5z" />
    <glyph glyph-name="hungarumlaut" unicode="&#x2dd;" horiz-adv-x="2048" 
d="M880 1266q-4 53 21 85.5t70 32.5q39 0 62 -25t23 -62q0 -20 -5 -35.5t-17 -35.5l-124 -264l-25 5zM1119 1266q-4 53 21 85.5t69 32.5q39 0 62.5 -25t23.5 -62q0 -20 -5 -35.5t-17 -35.5l-125 -264l-24 5z" />
    <glyph glyph-name="gravecomb" unicode="&#x300;" horiz-adv-x="0" 
d="M-1219 1611q0 35 24.5 60t63.5 25q36 0 79 -29l300 -179l-8 -25l-346 51q-113 13 -113 97z" />
    <glyph glyph-name="acutecomb" unicode="&#x301;" horiz-adv-x="0" 
d="M-880 1667q42 28 78 28q7 0 21 -2q30 -5 48 -28.5t18 -53.5q0 -11 -1 -16q-3 -34 -31 -55t-79 -27l-347 -51l-8 24z" />
    <glyph glyph-name="uni0302" unicode="&#x302;" horiz-adv-x="0" 
d="M-1290 1479l243 242h46l237 -242l-18 -22l-242 132l-248 -132z" />
    <glyph glyph-name="tildecomb" unicode="&#x303;" horiz-adv-x="0" 
d="M-986 1485.5q-36 18.5 -80 53.5q-36 28 -60 41.5t-52 13.5q-43 0 -62.5 -27.5t-19.5 -88.5h-49q0 118 43.5 171.5t118.5 53.5q49 0 85 -18.5t81 -54.5q34 -27 58 -40.5t51 -13.5q44 0 64 27.5t20 89.5h47q0 -226 -160 -226q-49 0 -85 18.5z" />
    <glyph glyph-name="uni0304" unicode="&#x304;" horiz-adv-x="0" 
d="M-1239 1615h492v-65h-492v65z" />
    <glyph glyph-name="uni0306" unicode="&#x306;" horiz-adv-x="0" 
d="M-1206.5 1517.5q-53.5 68.5 -53.5 202.5h52q0 -76 44.5 -115t139.5 -39q93 0 140.5 39.5t47.5 114.5h50q0 -133 -55 -202t-183 -69q-129 0 -182.5 68.5z" />
    <glyph glyph-name="uni0307" unicode="&#x307;" horiz-adv-x="0" 
d="M-1032.5 1511q-28.5 29 -28.5 72t28.5 71.5t71.5 28.5t71.5 -28.5t28.5 -71.5t-28.5 -72t-71.5 -29t-71.5 29z" />
    <glyph glyph-name="uni0308" unicode="&#x308;" horiz-adv-x="0" 
d="M-1230.5 1511q-28.5 29 -28.5 72t28.5 71.5t71.5 28.5t71.5 -28.5t28.5 -71.5t-28.5 -72t-71.5 -29t-71.5 29zM-960.5 1511q-28.5 29 -28.5 72t28.5 71.5t71.5 28.5t71.5 -28.5t28.5 -71.5t-28.5 -72t-71.5 -29t-71.5 29z" />
    <glyph glyph-name="uni030A" unicode="&#x30a;" horiz-adv-x="0" 
d="M-1156.5 1478.5q-59.5 15.5 -94 42.5t-34.5 61t34.5 61t94 42.5t130.5 15.5t130.5 -15.5t94 -42.5t34.5 -61t-34.5 -61t-94 -42.5t-130.5 -15.5t-130.5 15.5zM-931.5 1528q32.5 21 32.5 54t-32.5 54t-94.5 21t-94.5 -21t-32.5 -54t32.5 -54t94.5 -21t94.5 21z" />
    <glyph glyph-name="uni030B" unicode="&#x30b;" horiz-adv-x="0" 
d="M-1102 1615q19 47 40.5 70t52.5 23q34 0 54 -20t20 -52q0 -33 -22 -57t-68 -45l-146 -93l-18 17zM-866 1615q18 47 40 70t53 23q34 0 54 -20.5t20 -51.5q0 -33 -22 -57t-68 -45l-146 -93l-18 17z" />
    <glyph glyph-name="uni030C" unicode="&#x30c;" horiz-adv-x="0" 
d="M-1024 1581l242 134l18 -23l-237 -242h-46l-243 242l18 23z" />
    <glyph glyph-name="uni0312" unicode="&#x312;" horiz-adv-x="0" 
d="M-1036 1746q-28 -50 -31 -101q12 4 25 4q42 0 69 -28t27 -72q0 -43 -27 -71t-71 -28q-49 0 -78 32.5t-29 100.5q0 80 46.5 154.5t131.5 114.5l11 -21q-46 -35 -74 -85z" />
    <glyph glyph-name="uni0326" unicode="&#x326;" horiz-adv-x="0" 
d="M-986 -384q28 50 30 102q-12 -4 -24 -4q-42 0 -69 28t-27 71t27 71t71 28q48 0 77.5 -33t29.5 -100q0 -80 -46.5 -154.5t-131.5 -114.5l-12 20q47 36 75 86z" />
    <glyph glyph-name="uni0327" unicode="&#x327;" horiz-adv-x="0" 
d="M-774 -316q0 -57 -32.5 -104t-92.5 -74.5t-138 -27.5q-83 0 -127 19v113l3 2q113 -41 190 -41q67 0 100.5 24t33.5 62q0 42 -52 68t-170 42l58 233h42l-29 -127q214 -45 214 -189z" />
    <glyph glyph-name="uni0328" unicode="&#x328;" horiz-adv-x="0" 
d="M-1227.5 -460.5q-64.5 61.5 -64.5 165.5t73.5 182.5t214.5 141.5l21 -29q-101 -50 -150 -110t-49 -136q0 -55 24 -98.5t70 -68.5t109 -25q82 0 152 57l18 -20q-100 -121 -238 -121q-116 0 -180.5 61.5z" />
    <glyph glyph-name="uni03BC" unicode="&#x3bc;" horiz-adv-x="1074" 
d="M1034 72v-35l-282 -49l-25 12v82q0 35 6 72l-6 4q-42 -84 -122.5 -131t-178.5 -47q-45 0 -83 9l3 -16v-546h-153v1267q0 26 -7.5 35t-33.5 14l-113 15v35l283 49l24 -13v-596q0 -67 46.5 -105t125.5 -38q60 0 107.5 23.5t74.5 68t27 105.5v407q0 27 -6.5 36t-32.5 13
l-113 15v35l283 49l23 -13v-692q0 -27 7.5 -37t33.5 -14z" />
    <glyph glyph-name="Wgrave" unicode="&#x1e80;" horiz-adv-x="2056" 
d="M789 1595q-1 5 -1 16q0 31 18 54.5t48 28.5q14 2 20 2q38 0 79 -29l301 -180l-8 -25l-347 51q-104 14 -110 82zM2046 1382v-41l-66 -4q-49 -9 -71 -30t-39 -70l-379 -1237h-186l-275 862v12h-6v-6l-274 -868h-187l-377 1237q-17 49 -39 70t-71 30l-66 4v41h494v-41
l-78 -4q-34 -7 -50.5 -21.5t-16.5 -39.5q0 -15 8 -41l348 -1147v-4h6v4l279 907l-72 242q-18 49 -40.5 70t-70.5 30l-67 4v41h493v-41l-72 -6q-38 -7 -55 -19.5t-17 -36.5q0 -17 7 -38l348 -1153v-6h8v6l346 1147q7 21 7 40q0 25 -16.5 40t-51.5 22l-76 4v41h375z" />
    <glyph glyph-name="wgrave" unicode="&#x1e81;" horiz-adv-x="1461" 
d="M529 1305q0 35 25.5 60.5t62.5 25.5q69 0 92 -82l138 -326l-21 -14l-250 245q-47 44 -47 91zM94 767q-15 14 -45 17l-45 4v41h414v-41l-82 -14q-54 -9 -54 -41q0 -10 7 -26l207 -576h2l245 698h86l248 -700h2l199 571q6 18 6 32q0 33 -43 42l-94 14v41h309v-41l-45 -4
q-28 -3 -42.5 -16t-29.5 -47l-252 -721h-129l-223 616v15h-8v-13l-221 -618h-131l-250 715q-16 38 -31 52z" />
    <glyph glyph-name="Wacute" unicode="&#x1e82;" horiz-adv-x="2056" 
d="M833 1462l-8 24l301 181q42 28 78 28q39 0 63 -24.5t24 -59.5q0 -11 -1 -16q-3 -34 -31 -55t-80 -27zM2046 1382v-41l-66 -4q-49 -9 -71 -30t-39 -70l-379 -1237h-186l-275 862v12h-6v-6l-274 -868h-187l-377 1237q-17 49 -39 70t-71 30l-66 4v41h494v-41l-78 -4
q-34 -7 -50.5 -21.5t-16.5 -39.5q0 -15 8 -41l348 -1147v-4h6v4l279 907l-72 242q-18 49 -40.5 70t-70.5 30l-67 4v41h493v-41l-72 -6q-38 -7 -55 -19.5t-17 -36.5q0 -17 7 -38l348 -1153v-6h8v6l346 1147q7 21 7 40q0 25 -16.5 40t-51.5 22l-76 4v41h375z" />
    <glyph glyph-name="wacute" unicode="&#x1e83;" horiz-adv-x="1461" 
d="M850 1309q23 82 92 82q37 0 62.5 -25.5t25.5 -60.5q0 -47 -47 -91l-250 -245l-20 14zM94 767q-15 14 -45 17l-45 4v41h414v-41l-82 -14q-54 -9 -54 -41q0 -10 7 -26l207 -576h2l245 698h86l248 -700h2l199 571q6 18 6 32q0 33 -43 42l-94 14v41h309v-41l-45 -4
q-28 -3 -42.5 -16t-29.5 -47l-252 -721h-129l-223 616v15h-8v-13l-221 -618h-131l-250 715q-16 38 -31 52z" />
    <glyph glyph-name="Wdieresis" unicode="&#x1e84;" horiz-adv-x="2056" 
d="M838 1511q-29 29 -29 72t29 71.5t72 28.5t71.5 -28.5t28.5 -71.5t-28.5 -72t-71.5 -29t-72 29zM1108 1511q-29 29 -29 72t29 71.5t72 28.5t71.5 -28.5t28.5 -71.5t-28.5 -72t-71.5 -29t-72 29zM2046 1382v-41l-66 -4q-49 -9 -71 -30t-39 -70l-379 -1237h-186l-275 862v12
h-6v-6l-274 -868h-187l-377 1237q-17 49 -39 70t-71 30l-66 4v41h494v-41l-78 -4q-34 -7 -50.5 -21.5t-16.5 -39.5q0 -15 8 -41l348 -1147v-4h6v4l279 907l-72 242q-18 49 -40.5 70t-70.5 30l-67 4v41h493v-41l-72 -6q-38 -7 -55 -19.5t-17 -36.5q0 -17 7 -38l348 -1153v-6
h8v6l346 1147q7 21 7 40q0 25 -16.5 40t-51.5 22l-76 4v41h375z" />
    <glyph glyph-name="wdieresis" unicode="&#x1e85;" horiz-adv-x="1461" 
d="M568.5 1108.5q-28.5 28.5 -28.5 71.5t28.5 72t71.5 29t71.5 -29t28.5 -72t-28.5 -71.5t-71.5 -28.5t-71.5 28.5zM838.5 1108.5q-28.5 28.5 -28.5 71.5t28.5 72t71.5 29t71.5 -29t28.5 -72t-28.5 -71.5t-71.5 -28.5t-71.5 28.5zM94 767q-15 14 -45 17l-45 4v41h414v-41
l-82 -14q-54 -9 -54 -41q0 -10 7 -26l207 -576h2l245 698h86l248 -700h2l199 571q6 18 6 32q0 33 -43 42l-94 14v41h309v-41l-45 -4q-28 -3 -42.5 -16t-29.5 -47l-252 -721h-129l-223 616v15h-8v-13l-221 -618h-131l-250 715q-16 38 -31 52z" />
    <glyph glyph-name="uni1E9E" unicode="&#x1e9e;" horiz-adv-x="1374" 
d="M881 -13.5q-45 6.5 -100 17.5q-13 2 -33 6t-32 5v200h24l24 -45q42 -73 102 -107t138 -34q80 0 120 45t40 130q0 63 -28 108.5t-69 76t-111 71.5q-77 45 -123.5 80.5t-78.5 91t-32 134.5q0 67 26 118.5t63 87.5t100 84q59 45 94 78t58.5 78.5t23.5 104.5l6 13l-5 4h-277
q-209 0 -306 -93t-97 -297v-814q0 -29 5.5 -44t19 -22.5t41.5 -12.5l91 -11v-40h-483v40l92 11q29 5 42.5 12.5t18.5 22.5t5 44v759q0 255 142 374t422 119h460v-62q0 -85 -39.5 -143t-95 -93.5t-144.5 -76.5q-66 -30 -104 -52.5t-63.5 -53.5t-25.5 -72q0 -45 27.5 -81.5
t69.5 -64.5t114 -67q94 -52 152 -93t99 -103.5t41 -148.5q0 -138 -81 -214.5t-234 -76.5q-54 0 -99 6.5z" />
    <glyph glyph-name="Ygrave" unicode="&#x1ef2;" horiz-adv-x="1396" 
d="M509 1611q0 30 18.5 54t48.5 29q14 2 20 2q37 0 78 -29l301 -180l-8 -25l-346 51q-112 14 -112 98zM545 51q29 4 43 12t19 23t5 45v438l-401 674q-27 44 -53.5 64.5t-69.5 27.5l-72 6v41h496v-41l-80 -8q-50 -8 -50 -38q0 -17 17 -46l361 -600v-8h6v8l364 600
q17 29 17 46q0 30 -49 38l-80 8v41h360v-41l-71 -6q-43 -7 -69.5 -27t-55.5 -65l-402 -672v-440q0 -30 5.5 -45t20 -23t44.5 -12l119 -10v-41h-543v41z" />
    <glyph glyph-name="ygrave" unicode="&#x1ef3;" horiz-adv-x="913" 
d="M252 1305q0 35 25.5 60.5t62.5 25.5q69 0 92 -82l137 -326l-20 -14l-250 245q-47 44 -47 91zM907 829v-41l-51 -6q-30 -3 -46 -15.5t-30 -45.5l-356 -1000q-42 -110 -90.5 -178.5t-112.5 -102.5t-151 -34q-56 0 -86 10v135l2 3q55 -21 137 -21q64 0 108.5 19t80 65
t67.5 129l58 168l-316 807q-16 33 -32 45.5t-46 15.5l-51 6v41h418v-41l-84 -10q-24 -5 -34.5 -12.5t-10.5 -20.5q0 -14 12 -40l215 -555l2 -13h6l2 13l199 550q12 27 12 43q0 15 -11 22.5t-36 12.5l-84 10v41h309z" />
    <glyph glyph-name="uni2009" unicode="&#x2009;" horiz-adv-x="197" 
 />
    <glyph glyph-name="uni200A" unicode="&#x200a;" horiz-adv-x="123" 
 />
    <glyph glyph-name="endash" unicode="&#x2013;" horiz-adv-x="901" 
d="M66 633h769v-67h-769v67z" />
    <glyph glyph-name="emdash" unicode="&#x2014;" horiz-adv-x="2115" 
d="M66 633h1983v-67h-1983v67z" />
    <glyph glyph-name="quoteleft" unicode="&#x2018;" horiz-adv-x="411" 
d="M187.5 1339.5q-45.5 -61.5 -51.5 -126.5q12 4 24 4q42 0 70.5 -28.5t28.5 -71.5t-28.5 -72t-72.5 -29q-46 0 -76 34t-30 99q0 106 63 189.5t179 136.5l20 -31q-81 -43 -126.5 -104.5z" />
    <glyph glyph-name="quoteright" unicode="&#x2019;" horiz-adv-x="411" 
d="M181.5 1150.5q45.5 61.5 51.5 126.5q-12 -4 -24 -4q-41 0 -69.5 29t-28.5 72t28.5 71.5t71.5 28.5q46 0 76 -34t30 -99q0 -105 -62.5 -189t-178.5 -137l-21 31q81 43 126.5 104.5z" />
    <glyph glyph-name="quotesinglbase" unicode="&#x201a;" horiz-adv-x="411" 
d="M181.5 -136.5q45.5 61.5 51.5 126.5q-12 -4 -24 -4q-41 0 -69.5 28.5t-28.5 71.5t28.5 71.5t71.5 28.5q46 0 76 -34t30 -99q0 -105 -62.5 -189t-178.5 -136l-21 30q81 44 126.5 105.5z" />
    <glyph glyph-name="quotedblleft" unicode="&#x201c;" horiz-adv-x="789" 
d="M187.5 1339.5q-45.5 -61.5 -51.5 -126.5q12 4 24 4q42 0 70.5 -28.5t28.5 -71.5t-28.5 -72t-72.5 -29q-46 0 -76 34t-30 99q0 106 63 189.5t179 136.5l20 -31q-81 -43 -126.5 -104.5zM565 1339.5q-46 -61.5 -52 -126.5q12 4 25 4q41 0 69.5 -28.5t28.5 -71.5t-28.5 -72
t-71.5 -29q-47 0 -77 33.5t-30 99.5q0 106 63 189.5t179 136.5l20 -31q-80 -43 -126 -104.5z" />
    <glyph glyph-name="quotedblright" unicode="&#x201d;" horiz-adv-x="789" 
d="M181.5 1150.5q45.5 61.5 51.5 126.5q-12 -4 -24 -4q-41 0 -69.5 29t-28.5 72t28.5 71.5t71.5 28.5q46 0 76 -34t30 -99q0 -105 -62.5 -189t-178.5 -137l-21 31q81 43 126.5 104.5zM558 1150q46 61 53 127q-14 -4 -25 -4q-41 0 -69.5 29t-28.5 72t28.5 71.5t71.5 28.5
q46 0 76.5 -34t30.5 -99q0 -105 -63 -189t-179 -137l-21 31q80 43 126 104z" />
    <glyph glyph-name="quotedblbase" unicode="&#x201e;" horiz-adv-x="789" 
d="M181.5 -138.5q45.5 61.5 51.5 126.5q-12 -4 -24 -4q-41 0 -69.5 28.5t-28.5 71.5t28.5 71.5t71.5 28.5q46 0 76 -34t30 -99q0 -105 -62.5 -189t-178.5 -136l-21 30q81 44 126.5 105.5zM558.5 -139q45.5 61 52.5 127q-14 -4 -25 -4q-41 0 -69.5 28.5t-28.5 71.5t28.5 71.5
t71.5 28.5q46 0 76.5 -34t30.5 -99q0 -105 -63 -189t-179 -136l-21 30q81 44 126.5 105z" />
    <glyph glyph-name="dagger" unicode="&#x2020;" horiz-adv-x="1253" 
d="M568 795q0 39 2 45l-2 4h-284q-28 0 -41.5 -4.5t-20.5 -17.5t-11 -40l-11 -92h-40v364h40l11 -93q4 -26 11 -39t20.5 -17.5t41.5 -4.5h336l2 4q-2 6 -2 33v295q0 19 -8 33t-25 34q-19 22 -29 40t-10 45q0 43 29 72t72 29t72 -29t29 -72q0 -27 -10 -45t-29 -40
q-17 -20 -25 -34t-8 -33v-295q0 -27 -2 -33l2 -4h330q28 0 41.5 4.5t20.5 17.5t11 39l11 93h40v-364h-40l-11 92q-4 27 -11 40t-20.5 17.5t-41.5 4.5h-277l-2 -4q2 -6 2 -45l2 -383l-68 -985h-32l-68 985z" />
    <glyph glyph-name="daggerdbl" unicode="&#x2021;" horiz-adv-x="1253" 
d="M577 -555q-29 29 -29 72q0 27 10 45t29 40q17 20 25 34t8 33v295q0 27 2 33l-2 4h-336q-28 0 -41.5 -4.5t-20.5 -17.5t-11 -40l-11 -92h-40v364h40l11 -92q4 -27 11 -40t20.5 -17.5t41.5 -4.5h329l2 4q-1 3 -1 15q0 17 -1 30l-48 177v335l48 177q0 39 2 45l-2 4h-329
q-28 0 -41.5 -4.5t-20.5 -17.5t-11 -40l-11 -92h-40v364h40l11 -93q4 -26 11 -39t20.5 -17.5t41.5 -4.5h336l2 4q-2 6 -2 33v295q0 19 -8 33t-25 34q-19 22 -29 40t-10 45q0 43 29 72t72 29t72 -29t29 -72q0 -27 -10 -45t-29 -40q-17 -20 -25 -34t-8 -33v-295q0 -27 -2 -33
l2 -4h330q28 0 41.5 4.5t20.5 17.5t11 39l11 93h40v-364h-40l-11 92q-4 27 -11 40t-20.5 17.5t-41.5 4.5h-322l-2 -4q2 -6 2 -45l47 -177v-335l-47 -177q-2 -15 -1.5 -28.5t-0.5 -16.5l2 -4h322q28 0 41.5 4.5t20.5 17.5t11 40l11 92h40v-364h-40l-11 92q-4 27 -11 40
t-20.5 17.5t-41.5 4.5h-330l-2 -4q2 -6 2 -33v-295q0 -19 8 -33t25 -34q19 -22 29 -40t10 -45q0 -43 -29 -72t-72 -29t-72 29z" />
    <glyph glyph-name="bullet" unicode="&#x2022;" horiz-adv-x="584" 
d="M213.5 441q-50.5 28 -79.5 77.5t-29 109.5t29 109.5t79.5 78t111.5 28.5t110 -28.5t77 -77.5t28 -110t-28 -110t-77 -77t-110 -28t-111.5 28z" />
    <glyph glyph-name="ellipsis" unicode="&#x2026;" horiz-adv-x="1103" 
d="M134 15q-30 29 -30 71t30 71t73 29t71.5 -28.5t28.5 -71.5t-28.5 -71.5t-71.5 -28.5t-73 29zM479.5 14.5q-29.5 28.5 -29.5 71.5t29.5 71.5t73.5 28.5q43 0 71.5 -28.5t28.5 -71.5t-28.5 -71.5t-71.5 -28.5q-44 0 -73.5 28.5zM825.5 14.5q-29.5 28.5 -29.5 71.5
t29.5 71.5t72.5 28.5t72 -28.5t29 -71.5t-29 -71.5t-72 -28.5t-72.5 28.5z" />
    <glyph glyph-name="perthousand" unicode="&#x2030;" horiz-adv-x="1754" 
d="M181.5 866q-48.5 37 -74 102t-25.5 148q0 86 25.5 151t73.5 100.5t114 35.5q64 0 111.5 -36t73.5 -101t26 -150q0 -83 -26 -148t-74 -102t-111 -37q-65 0 -113.5 37zM958 1382h68l-805 -1382h-65zM390.5 941.5q33.5 62.5 33.5 174.5q0 115 -33 176.5t-96 61.5
q-64 0 -97.5 -61.5t-33.5 -176.5q0 -112 33.5 -174.5t97.5 -62.5q62 0 95.5 62.5zM775.5 16.5q-48.5 36.5 -74 101.5t-25.5 148q0 86 25.5 151t73.5 100.5t114 35.5q64 0 111.5 -36t73.5 -101t26 -150q0 -83 -26 -148t-74 -101.5t-111 -36.5q-65 0 -113.5 36.5zM1373 16.5
q-48 36.5 -73.5 101.5t-25.5 148q0 86 25.5 151t73.5 100.5t114 35.5q64 0 111.5 -36t73.5 -101t26 -150q0 -83 -26 -148t-74 -101.5t-111 -36.5q-66 0 -114 36.5zM984.5 91.5q33.5 62.5 33.5 174.5q0 115 -33 176.5t-96 61.5q-64 0 -97.5 -61.5t-33.5 -176.5
q0 -112 33.5 -174.5t97.5 -62.5q62 0 95.5 62.5zM1582.5 91.5q33.5 62.5 33.5 174.5q0 115 -33 176.5t-96 61.5q-64 0 -98 -61.5t-34 -176.5q0 -112 34 -174.5t98 -62.5q62 0 95.5 62.5z" />
    <glyph glyph-name="guilsinglleft" unicode="&#x2039;" horiz-adv-x="598" 
d="M59 387v55l452 406l33 -25l-305 -405v-6l305 -406l-33 -24z" />
    <glyph glyph-name="guilsinglright" unicode="&#x203a;" horiz-adv-x="598" 
d="M58 6l304 406v5l-304 407l32 24l454 -406v-54l-454 -406z" />
    <glyph glyph-name="fraction" unicode="&#x2044;" horiz-adv-x="100" 
d="M414 1382h66l-805 -1382h-64z" />
    <glyph glyph-name="uni2070" unicode="&#x2070;" horiz-adv-x="538" 
d="M157 866q-48 37 -74 102.5t-26 148.5q0 85 26 150t74 100.5t113 35.5q64 0 112 -35.5t73.5 -100.5t25.5 -150q0 -83 -26 -148.5t-73.5 -102.5t-111.5 -37q-65 0 -113 37zM365.5 941.5q33.5 63.5 33.5 175.5q0 114 -33 175.5t-96 61.5q-64 0 -97.5 -61t-33.5 -176
q0 -113 33.5 -176t97.5 -63q62 0 95.5 63.5z" />
    <glyph glyph-name="uni2074" unicode="&#x2074;" horiz-adv-x="538" 
d="M313 991q1 8 5 14l-2 3h-272l-4 46l298 339h50v-281q0 -11 -1 -18.5t-5 -14.5l2 -3h115l-11 -68h-104l-2 -3q4 -6 5 -14t1 -18v-123h-76v123q0 10 1 18zM318 1079q-4 7 -5 14.5t-1 18.5v178l-3 1l-177 -212l1 -3h183z" />
    <glyph glyph-name="uni2075" unicode="&#x2075;" horiz-adv-x="538" 
d="M429 1174.5q45 -44.5 45 -132.5q0 -103 -54 -158t-150 -55q-173 0 -208 146l72 27h3q16 -63 48.5 -93.5t85.5 -30.5q59 0 90.5 40.5t31.5 118.5q0 63 -32.5 94t-91.5 31q-89 0 -135 -81l-38 5l30 296h309l-12 -68h-256l-16 -150l4 -2q49 57 144 57q85 0 130 -44.5z" />
    <glyph glyph-name="uni2076" unicode="&#x2076;" horiz-adv-x="538" 
d="M440 1113q47 -42 47 -114q0 -49 -26 -88t-71.5 -60.5t-103.5 -21.5q-102 0 -162.5 60t-60.5 166q0 129 82.5 221t228.5 127l17 -41q-221 -63 -244 -262l6 -2q26 23 67.5 40t90.5 17q82 0 129 -42zM374 909q33 30 33 80q0 54 -30.5 83.5t-92.5 29.5q-42 0 -77 -17.5
t-60 -46.5q4 -78 41.5 -118.5t97.5 -40.5q55 0 88 30z" />
    <glyph glyph-name="uni2077" unicode="&#x2077;" horiz-adv-x="538" 
d="M260.5 1115q38.5 104 115.5 195l-1 5h-200q-33 0 -45.5 -10t-15.5 -40l-7 -64l-38 1l2 180h409v-25l-52 -52q-47 -53 -73.5 -111t-38.5 -139t-12 -205h-82q0 161 38.5 265z" />
    <glyph glyph-name="uni2078" unicode="&#x2078;" horiz-adv-x="538" 
d="M443 1078.5q32 -35.5 32 -89.5q0 -73 -51.5 -116.5t-150.5 -43.5q-101 0 -155 40t-54 105q0 55 34 91.5t100 63.5q-51 27 -79 60t-28 82q0 60 48.5 96t135.5 36q80 0 129.5 -34.5t49.5 -88.5q0 -79 -100 -137q57 -29 89 -64.5zM186.5 1237.5q20.5 -22.5 47 -36.5
t84.5 -41q61 48 61 112q0 39 -28 60.5t-79 21.5q-50 0 -78 -17.5t-28 -45.5q0 -31 20.5 -53.5zM368 903q31 25 31 67q0 31 -18.5 54t-46.5 39t-76 38l-22 10q-48 -29 -70.5 -59t-22.5 -72q0 -47 33 -74.5t101 -27.5q60 0 91 25z" />
    <glyph glyph-name="uni2079" unicode="&#x2079;" horiz-adv-x="538" 
d="M418 1342.5q61 -60.5 61 -164.5q0 -129 -83 -221.5t-229 -127.5l-16 40q108 31 170 97t74 166l-6 2q-25 -23 -66.5 -40t-91.5 -17q-82 0 -128.5 42t-46.5 113q0 50 25.5 89t71 60.5t103.5 21.5q101 0 162 -60.5zM336.5 1148q35.5 17 59.5 46q-5 78 -42 119t-97 41
q-55 0 -88 -30.5t-33 -81.5q0 -53 30 -82t91 -29q44 0 79.5 17z" />
    <glyph glyph-name="uni2080" unicode="&#x2080;" horiz-adv-x="538" 
d="M156.5 -76q-48.5 37 -74 102t-25.5 148q0 86 25.5 151t73.5 100.5t114 35.5q64 0 111.5 -36t73.5 -101t26 -150q0 -83 -26 -148t-74 -102t-111 -37q-65 0 -113.5 37zM365.5 -0.5q33.5 62.5 33.5 174.5q0 115 -33 176.5t-96 61.5q-64 0 -97.5 -61.5t-33.5 -176.5
q0 -112 33.5 -174.5t97.5 -62.5q62 0 95.5 62.5z" />
    <glyph glyph-name="uni2081" unicode="&#x2081;" horiz-adv-x="538" 
d="M188 -47q28 4 36.5 15t8.5 40v334q0 20 -6 28t-24 9l-92 10v31l182 33h16v-445q0 -29 8.5 -40t36.5 -15l78 -8v-37h-321v37z" />
    <glyph glyph-name="uni2082" unicode="&#x2082;" horiz-adv-x="538" 
d="M252 105.5q64 64.5 88.5 111.5t24.5 92q0 47 -27.5 72t-79.5 25q-62 0 -98.5 -36.5t-36.5 -103.5h-47q0 96 52 145.5t142 49.5q84 0 129 -37t45 -107q0 -53 -26 -102.5t-82.5 -105.5t-153.5 -127v-7h183q34 0 46 10.5t15 41.5l8 63l37 -2l-2 -180h-399v37
q118 96 182 160.5z" />
    <glyph glyph-name="uni2083" unicode="&#x2083;" horiz-adv-x="538" 
d="M130.5 -59q-51.5 38 -69.5 112l74 28h4q13 -66 47 -97.5t95 -31.5q52 0 81 33.5t29 97.5q0 60 -34.5 86.5t-110.5 26.5h-51v49h55q59 0 87 26.5t28 69.5q0 38 -26 59t-79 21q-61 0 -92 -30t-31 -84h-47q0 80 49 125t137 45q78 0 123 -33.5t45 -85.5q0 -44 -27 -76.5
t-63 -42.5v-8q119 -28 119 -146q0 -85 -53 -133.5t-146 -48.5q-92 0 -143.5 38z" />
    <glyph glyph-name="uni2084" unicode="&#x2084;" horiz-adv-x="538" 
d="M312 48.5q1 7.5 5 14.5l-2 3h-270l-4 47l297 338h51v-281q0 -11 -1 -18.5t-5 -14.5l2 -4h115l-13 -67h-102l-2 -3q4 -7 5 -14.5t1 -17.5v-123h-78v123q0 10 1 17.5zM317 137q-4 7 -5 14.5t-1 18.5v178h-2l-178 -211l2 -4h182z" />
    <glyph glyph-name="uni2085" unicode="&#x2085;" horiz-adv-x="538" 
d="M430 232q45 -44 45 -132q0 -103 -54 -158t-151 -55q-171 0 -209 146l72 26h4q16 -63 49 -92.5t86 -29.5q59 0 90 40.5t31 116.5q0 125 -125 125q-90 0 -135 -80l-37 4l29 297h311l-12 -67h-256l-16 -152l4 -2q48 57 143 57q86 0 131 -44z" />
    <glyph glyph-name="uni2086" unicode="&#x2086;" horiz-adv-x="538" 
d="M440 171q47 -42 47 -114q0 -49 -26 -88t-71.5 -60.5t-103.5 -21.5q-102 0 -162.5 60t-60.5 166q0 129 82.5 221t228.5 127l17 -41q-220 -63 -244 -262l6 -2q26 23 67.5 40t90.5 17q82 0 129 -42zM374 -33q33 30 33 80q0 54 -30.5 83.5t-92.5 29.5q-42 0 -77 -17.5
t-60 -46.5q4 -78 41.5 -118.5t97.5 -40.5q55 0 88 30z" />
    <glyph glyph-name="uni2087" unicode="&#x2087;" horiz-adv-x="538" 
d="M261.5 173q38.5 104 115.5 194l-2 6h-201q-32 0 -44 -10.5t-15 -40.5l-9 -64l-36 2l2 180h407v-24l-51 -54q-47 -52 -73.5 -109.5t-38 -138.5t-11.5 -206h-82q0 161 38.5 265z" />
    <glyph glyph-name="uni2088" unicode="&#x2088;" horiz-adv-x="538" 
d="M443 135.5q32 -35.5 32 -88.5q0 -73 -51.5 -116.5t-151.5 -43.5t-154.5 40.5t-54.5 105.5q0 55 34.5 91.5t100.5 63.5q-51 27 -79.5 59.5t-28.5 82.5q0 59 49 95t135 36q81 0 131 -34.5t50 -88.5q0 -79 -100 -138q56 -29 88 -64.5zM186.5 294.5q20.5 -22.5 47 -37
t83.5 -40.5q62 50 62 113q0 38 -28 60t-79 22q-50 0 -78 -17.5t-28 -46.5q0 -31 20.5 -53.5zM367.5 -38.5q31.5 24.5 31.5 67.5q0 31 -18 54t-45.5 38.5t-73.5 36.5l-24 11q-50 -29 -72.5 -59t-22.5 -73q0 -47 32.5 -73.5t100.5 -26.5q60 0 91.5 24.5z" />
    <glyph glyph-name="uni2089" unicode="&#x2089;" horiz-adv-x="538" 
d="M418.5 401q60.5 -60 60.5 -165q0 -129 -82.5 -221.5t-228.5 -127.5l-16 41q220 64 242 262l-5 3q-25 -24 -66.5 -41t-91.5 -17q-82 0 -129 42.5t-47 113.5q0 49 26 88t71.5 60.5t103.5 21.5q102 0 162.5 -60zM336 205.5q35 17.5 59 46.5q-4 78 -41.5 119t-97.5 41
q-56 0 -88.5 -30t-32.5 -81q0 -54 30.5 -83.5t92.5 -29.5q43 0 78 17.5z" />
    <glyph glyph-name="Euro" unicode="&#x20ac;" 
d="M1120 248q-70 -125 -172 -196.5t-259 -71.5q-224 0 -347 158t-142 438h-142v48h139q-1 21 -1 63q0 44 3 84h-141v49h145q20 174 87.5 305.5t176.5 204.5t247 73q112 0 206 -39.5t165 -111.5l-57 -179l-15 6q-61 141 -137.5 207.5t-178.5 66.5q-143 0 -223.5 -137.5
t-95.5 -395.5h406v-49h-408q-1 -23 -1 -72q0 -51 1 -75h408v-48h-405q32 -523 359 -523q116 0 202 58t145 162z" />
    <glyph glyph-name="uni2116" unicode="&#x2116;" horiz-adv-x="2389" 
d="M1708.5 583q-95.5 51 -155 151t-59.5 239q0 133 59.5 230.5t155 148.5t201.5 51q107 0 203 -51t155.5 -148.5t59.5 -230.5q0 -139 -59.5 -239t-155.5 -151t-203 -51q-106 0 -201.5 51zM293 1290l6 -1159q0 -30 5.5 -45.5t20 -23.5t44.5 -13l88 -8v-41h-375v41l88 8
q42 8 56 24t14 58v1120q0 29 -5 43.5t-18.5 22t-42.5 12.5l-92 12v41h358l670 -1056q18 -32 35 -72h6l-6 997q0 43 -14.5 58.5t-57.5 23.5l-86 8v41h373v-41l-86 -8q-43 -8 -57.5 -23.5t-14.5 -58.5v-1265h-76l-827 1304h-6zM2032 621q56 39 91 126.5t35 225.5
q0 135 -35 220t-91 123t-122 38q-65 0 -120.5 -38t-90.5 -123.5t-35 -219.5q0 -138 35 -225.5t90.5 -126.5t120.5 -39q66 0 122 39zM1529 324h760v-66h-760v66z" />
    <glyph glyph-name="uni2117" unicode="&#x2117;" horiz-adv-x="1425" 
d="M403 66q-145 86 -233 248t-88 379q0 218 88 379t233 246t310 85q166 0 310.5 -85t232 -246.5t87.5 -378.5t-87.5 -379t-232 -248t-310.5 -86q-165 0 -310 86zM997.5 108.5q132.5 80.5 213 231.5t80.5 353q0 203 -80.5 353t-213 229t-284.5 79q-153 0 -285.5 -79
t-213.5 -229t-81 -353q0 -202 81 -353t214 -231.5t285 -80.5t284.5 80.5zM444 326q29 5 42.5 12.5t18.5 22.5t5 45v569q0 30 -5 44.5t-18.5 22.5t-42.5 13l-92 12v41h482q154 0 236.5 -57t82.5 -158q0 -66 -36.5 -117.5t-108.5 -81.5t-173 -30h-188l-3 -5q10 -13 12.5 -24.5
t2.5 -41.5v-191q0 -28 5.5 -42.5t20 -22t43.5 -11.5l124 -11v-41h-500v41zM947.5 762q45.5 49 45.5 131t-44 124t-131 42h-170l-3 -5q10 -12 12 -25t2 -40v-205q0 -28 -2.5 -41t-12.5 -25l3 -5h171q84 0 129.5 49z" />
    <glyph glyph-name="trademark" unicode="&#x2122;" horiz-adv-x="1795" 
d="M693 1415l8 -326l-33 -4l-25 99q-16 61 -31 92.5t-36 45t-56 13.5h-79l-3 -5q9 -12 11 -24t2 -38v-309q0 -29 5 -44t17.5 -22.5t38.5 -12.5l80 -11v-40h-431v40l80 11q26 5 38.5 12.5t17.5 22.5t5 44v309q0 26 2 38t11 24l-3 5h-79q-35 0 -55 -13.5t-34 -43.5t-33 -94
l-25 -99l-34 4l8 326l32 1l2 -10q5 -14 12 -19t25 -5h492q17 0 24.5 5.5t12.5 18.5l2 10zM1581.5 1319.5q-13.5 -7.5 -18.5 -22.5t-5 -44v-294q0 -30 5 -45t18.5 -22.5t41.5 -12.5l82 -10v-40h-433v40l74 10q27 6 40 14t18 22.5t5 43.5v300l1 17l-6 2l-199 -449h-32
l-209 468h-4v-338q0 -30 5 -44.5t18 -22t42 -13.5l74 -10v-40h-335v40l82 10q28 5 42 12.5t19 22.5t5 45v294q0 29 -5 44t-18.5 22.5t-42.5 12.5l-82 11v39h330l145 -325l147 325h319v-39l-82 -11q-28 -5 -41.5 -12.5z" />
    <glyph glyph-name="oneeighth" unicode="&#x215b;" 
d="M456 850h-321v37l78 8q27 5 36 15.5t9 39.5v334q0 20 -6.5 27.5t-24.5 9.5l-92 10v31l182 33h16v-445q0 -29 9 -39.5t36 -15.5l78 -8v-37zM958 1382h68l-805 -1382h-65zM1061 228.5q32 -35.5 32 -89.5q0 -73 -51 -116t-151 -43t-154.5 40t-54.5 105q0 55 34 91.5
t100 63.5q-51 27 -79.5 60t-28.5 82q0 59 49 95t136 36q81 0 130.5 -34.5t49.5 -88.5q0 -79 -101 -138q57 -28 89 -63.5zM804.5 386.5q20.5 -22.5 46 -36t85.5 -41.5q61 48 61 113q0 38 -28 60t-78 22q-51 0 -79 -17.5t-28 -46.5q0 -31 20.5 -53.5zM986.5 54
q31.5 25 31.5 67q0 32 -19 55t-47 39t-77 38l-19 8q-49 -29 -71.5 -59t-22.5 -73q0 -47 32.5 -73.5t100.5 -26.5q60 0 91.5 25z" />
    <glyph glyph-name="threeeighths" unicode="&#x215c;" 
d="M444 877.5q-53 -48.5 -145 -48.5q-178 0 -213 150l73 29h4q13 -66 47 -97.5t95 -31.5q52 0 81 33.5t29 97.5q0 59 -34.5 85.5t-110.5 26.5h-51v49h55q60 0 87.5 26.5t27.5 70.5q0 38 -26 59t-79 21q-61 0 -92 -30t-31 -85h-47q0 80 49 125t138 45q78 0 123 -33.5
t45 -85.5q0 -43 -27 -75.5t-64 -43.5v-8q119 -26 119 -145q0 -86 -53 -134.5zM958 1382h68l-805 -1382h-65zM1061 228.5q32 -35.5 32 -89.5q0 -73 -51 -116t-151 -43t-154.5 40t-54.5 105q0 55 34 91.5t100 63.5q-51 27 -79.5 60t-28.5 82q0 59 49 95t136 36
q81 0 130.5 -34.5t49.5 -88.5q0 -79 -101 -138q57 -28 89 -63.5zM804.5 386.5q20.5 -22.5 46 -36t85.5 -41.5q61 48 61 113q0 38 -28 60t-78 22q-51 0 -79 -17.5t-28 -46.5q0 -31 20.5 -53.5zM986.5 54q31.5 25 31.5 67q0 32 -19 55t-47 39t-77 38l-19 8q-49 -29 -71.5 -59
t-22.5 -73q0 -47 32.5 -73.5t100.5 -26.5q60 0 91.5 25z" />
    <glyph glyph-name="fiveeighths" unicode="&#x215d;" 
d="M445 884q-54 -55 -151 -55q-171 0 -208 146l71 26h4q16 -62 49 -92t87 -30q58 0 89 40.5t31 116.5q0 125 -125 125q-90 0 -135 -80l-37 4l29 297h311l-12 -67h-256l-16 -152l4 -2q49 58 143 58q86 0 131 -44.5t45 -132.5q0 -103 -54 -158zM958 1382h68l-805 -1382h-65z
M1061 228.5q32 -35.5 32 -89.5q0 -73 -51 -116t-151 -43t-154.5 40t-54.5 105q0 55 34 91.5t100 63.5q-51 27 -79.5 60t-28.5 82q0 59 49 95t136 36q81 0 130.5 -34.5t49.5 -88.5q0 -79 -101 -138q57 -28 89 -63.5zM804.5 386.5q20.5 -22.5 46 -36t85.5 -41.5q61 48 61 113
q0 38 -28 60t-78 22q-51 0 -79 -17.5t-28 -46.5q0 -31 20.5 -53.5zM986.5 54q31.5 25 31.5 67q0 32 -19 55t-47 39t-77 38l-19 8q-49 -29 -71.5 -59t-22.5 -73q0 -47 32.5 -73.5t100.5 -26.5q60 0 91.5 25z" />
    <glyph glyph-name="seveneighths" unicode="&#x215e;" 
d="M198 1315q-32 0 -44 -10t-15 -41l-8 -64l-37 2l2 180h407v-24l-51 -53q-47 -53 -73.5 -110.5t-38 -138.5t-11.5 -206h-82q0 161 38.5 265t115.5 194l-2 6h-201zM958 1382h68l-805 -1382h-65zM1061 228.5q32 -35.5 32 -89.5q0 -73 -51 -116t-151 -43t-154.5 40t-54.5 105
q0 55 34 91.5t100 63.5q-51 27 -79.5 60t-28.5 82q0 59 49 95t136 36q81 0 130.5 -34.5t49.5 -88.5q0 -79 -101 -138q57 -28 89 -63.5zM804.5 386.5q20.5 -22.5 46 -36t85.5 -41.5q61 48 61 113q0 38 -28 60t-78 22q-51 0 -79 -17.5t-28 -46.5q0 -31 20.5 -53.5zM986.5 54
q31.5 25 31.5 67q0 32 -19 55t-47 39t-77 38l-19 8q-49 -29 -71.5 -59t-22.5 -73q0 -47 32.5 -73.5t100.5 -26.5q60 0 91.5 25z" />
    <glyph glyph-name="arrowleft" unicode="&#x2190;" horiz-adv-x="1590" 
d="M313.5 420.5q-99.5 85.5 -247.5 154.5v48q149 71 248 156t166 196l33 -23q-29 -87 -74 -153.5t-98 -110.5l4 -12l39 4h1140v-162h-1140l-39 6l-4 -14q54 -44 98.5 -110t73.5 -154l-33 -23q-67 112 -166.5 197.5z" />
    <glyph glyph-name="arrowup" unicode="&#x2191;" horiz-adv-x="1590" 
d="M720 1104l-13 4q-44 -54 -110.5 -98t-153.5 -74l-23 33q111 67 196.5 166.5t155.5 246.5h47q71 -147 156.5 -246.5t196.5 -166.5l-23 -33q-87 30 -153.5 74t-109.5 98l-14 -4l5 -39v-1065h-162v1065z" />
    <glyph glyph-name="arrowright" unicode="&#x2192;" horiz-adv-x="1590" 
d="M1250 510l-4 13l-39 -5h-1141v161l1141 1l39 -5l4 13q-54 44 -98.5 110.5t-74.5 153.5l34 23q66 -111 165.5 -196.5t247.5 -155.5v-47q-148 -70 -247.5 -155.5t-165.5 -197.5l-34 23q58 170 173 264z" />
    <glyph glyph-name="arrowdown" unicode="&#x2193;" horiz-adv-x="1590" 
d="M877 317l-5 -38l13 -5q98 117 264 172l22 -32q-111 -67 -196 -166.5t-156 -247.5h-47q-69 147 -155 246.5t-197 167.5l22 32q168 -55 265 -172l14 5l-6 38v1065h162v-1065z" />
    <glyph glyph-name="arrowboth" unicode="&#x2194;" horiz-adv-x="1590" 
d="M313.5 420.5q-99.5 85.5 -247.5 155.5v47q148 70 247.5 155.5t165.5 196.5l34 -23q-30 -87 -74.5 -153.5t-98.5 -110.5l4 -13l39 5h824l39 -5l4 13q-54 44 -98 110.5t-74 153.5l33 23q67 -111 166.5 -196.5t246.5 -155.5v-47q-148 -70 -247 -155.5t-166 -197.5l-33 23
q57 169 172 264l-4 13l-39 -5h-824l-39 5l-4 -13q115 -94 173 -264l-34 -23q-66 112 -165.5 197.5z" />
    <glyph glyph-name="arrowupdn" unicode="&#x2195;" horiz-adv-x="1590" 
d="M616.5 241.5q-85.5 99.5 -196.5 166.5l23 33q87 -30 153.5 -74t110.5 -98l13 4l-5 39v753l5 39l-13 4q-44 -54 -110.5 -98t-153.5 -74l-23 33q111 67 196.5 166.5t155.5 246.5h47q71 -147 156.5 -246.5t196.5 -166.5l-23 -33q-87 30 -153.5 74t-109.5 98l-14 -4l5 -39
v-753l-5 -39l14 -4q43 54 109.5 98t153.5 74l23 -33q-111 -67 -196.5 -166.5t-156.5 -246.5h-47q-70 147 -155.5 246.5z" />
    <glyph glyph-name="uni2196" unicode="&#x2196;" horiz-adv-x="1590" 
d="M378 981l-13 -6q2 -28 2 -43q0 -128 -65 -266l-41 8q25 100 25 197q0 158 -66 346l31 30q192 -67 350 -67q98 0 192 24l6 -39q-134 -67 -266 -67q-15 0 -43 2l-6 -13l33 -22l874 -877l-114 -114l-875 876z" />
    <glyph glyph-name="uni2197" unicode="&#x2197;" horiz-adv-x="1590" 
d="M1074 1065l31 23l-6 12q-28 -2 -42 -2q-129 0 -267 67l7 40q94 -24 193 -24q161 0 349 67l32 -32q-66 -185 -66 -349q0 -96 23 -193l-40 -8q-65 134 -65 262q0 32 2 47l-13 6l-24 -31l-875 -875l-114 114z" />
    <glyph glyph-name="uni2198" unicode="&#x2198;" horiz-adv-x="1590" 
d="M1212 306l13 6q-2 28 -2 44q0 128 65 266l41 -9q-25 -100 -25 -196q0 -158 66 -346l-31 -31q-188 67 -348 67q-98 0 -194 -24l-6 39q137 68 267 68q16 0 42 -2l6 12l-33 22l-874 877l114 115l875 -877z" />
    <glyph glyph-name="uni2199" unicode="&#x2199;" horiz-adv-x="1590" 
d="M517 263l-33 -23l6 -12q28 2 43 2q132 0 266 -67l-6 -39q-94 24 -192 24q-158 0 -350 -67l-31 30q66 188 66 346q0 97 -25 197l41 8q65 -138 65 -266q0 -15 -2 -43l13 -6l24 31l875 876l114 -114z" />
    <glyph glyph-name="minus" unicode="&#x2212;" 
d="M182 732h753v-80h-753v80z" />
    <glyph glyph-name="lozenge" unicode="&#x25ca;" 
d="M63 686l491 717h10l490 -717l-490 -706h-10zM562 71l434 615l-434 624h-6l-435 -624l435 -615h6z" />
    <glyph glyph-name="diamond" unicode="&#x2666;" 
d="M63 686l491 717h10l490 -717l-490 -706h-10z" />
    <glyph glyph-name="fi" unicode="&#xfb01;" horiz-adv-x="1135" 
d="M1096 41v-41h-453v41l84 8q28 5 41 12.5t18 22.5t5 43v557q0 37 4 55l-2 4h-426l-2 -4q4 -18 4 -55v-557q0 -29 5 -43t18 -21.5t40 -11.5l90 -10v-41h-459v41l91 10q27 4 40 11.5t18 21.5t5 43v616h-166l17 86h149v78q0 179 61.5 313t162.5 204.5t216 70.5q32 0 72 -8
v-164h-16q-54 34 -96.5 51t-81.5 17q-74 0 -120 -57t-46 -169v-276q0 -37 -4 -55l2 -5h575v-702q0 -29 5 -43.5t18 -21.5t41 -11zM782.5 1108q-28.5 29 -28.5 72t28.5 71.5t71.5 28.5t71.5 -28.5t28.5 -71.5t-28.5 -72t-71.5 -29t-71.5 29z" />
    <glyph glyph-name="fl" unicode="&#xfb02;" horiz-adv-x="1161" 
d="M1122 41v-41h-458v41l90 10q39 6 51 21t12 55v1219l-24 10q-102 35 -193 35q-108 0 -169.5 -65.5t-61.5 -188.5v-248q0 -37 -4 -55l2 -5h260l-17 -86h-243l-2 -4q4 -18 4 -55v-557q0 -29 5 -43.5t18 -22t40 -12.5l90 -8v-41h-459v41l91 10q27 4 40 11.5t18 21.5t5 43v616
h-166l17 86h149v78q0 178 67 309.5t187 201t277 69.5h196l25 -12v-1348q0 -40 12 -55t51 -21z" />
    <glyph glyph-name="J.swsh" horiz-adv-x="607" 
d="M156 -454.5q64 79.5 64 240.5v1465q0 30 -5 45t-18.5 23t-42.5 13l-92 11v39h483v-39l-92 -11q-29 -5 -42 -13t-18 -23t-5 -45v-1271q0 -196 -44 -319.5t-135.5 -185t-237.5 -69.5l-8 49q129 11 193 90.5z" />
    <glyph glyph-name="Q.swsh" horiz-adv-x="1425" 
d="M817 -547q-89 47 -156 114t-159 178q-84 102 -142 161t-124 94v42q282 16 489.5 100.5t323 245.5t115.5 399q0 287 -118 427t-329 140q-216 0 -336 -140.5t-120 -417.5q0 -149 42 -256.5t118.5 -163.5t177.5 -56v-50q-152 0 -269 63t-182.5 182t-65.5 281
q0 173 84.5 311.5t230 217t320.5 78.5t317.5 -74t225.5 -213t83 -326q0 -211 -113.5 -374t-312.5 -264.5t-452 -135.5v-6q58 -35 109 -87.5t132 -146.5q79 -92 132 -146t118 -91t136 -37q67 0 116.5 23.5t88.5 66.5l33 -38q-121 -148 -317 -148q-107 0 -196 47z" />
    <glyph glyph-name="i.loclTRK" horiz-adv-x="562" 
d="M209.5 1108q-28.5 29 -28.5 72t28.5 71.5t71.5 28.5t71.5 -28.5t28.5 -71.5t-28.5 -72t-71.5 -29t-71.5 29zM154 51q39 6 51 21t12 55v567q0 26 -8 35t-33 14l-113 15v35l281 49l25 -13v-702q0 -40 12 -55t51 -21l90 -10v-41h-459v41z" />
    <glyph glyph-name="c_t" horiz-adv-x="1575" 
d="M1171 743l-2 -6q4 -16 4 -53v-483q0 -68 36.5 -103t108.5 -35q93 0 156 60l21 -25q-50 -56 -109 -87t-137 -31q-111 0 -170.5 51t-59.5 147v565h-137l15 86h102q15 0 20 1v272q-94 20 -166 20q-114 0 -178.5 -48t-64.5 -128q0 -65 41 -121q32 -10 72 -28v-166h-18
q-112 84 -175.5 114.5t-121.5 30.5q-98 0 -153.5 -74t-55.5 -208q0 -121 40 -214t116 -144.5t180 -51.5q73 0 126.5 24.5t102.5 71.5l27 -22q-71 -80 -153 -129t-196 -49q-119 0 -204.5 51t-130 143t-44.5 213q0 140 58 245t156 161.5t215 56.5q45 0 91 -8q-33 56 -33 123
q0 74 40 128.5t116.5 83.5t181.5 29q127 0 285 -35v-282q0 -37 -4 -55l2 -5h344l-16 -86h-328z" />
    <glyph glyph-name="f_b" horiz-adv-x="1683" 
d="M1449 804q78 -46 125 -135t47 -210q0 -156 -64.5 -264t-172 -161.5t-236.5 -53.5q-42 0 -94.5 3.5t-99.5 7.5q-94 9 -138 9v1346l-23 10q-102 35 -193 35q-108 0 -169.5 -65.5t-61.5 -188.5v-248q0 -37 -4 -55l2 -5h260l-17 -86h-243l-2 -4q4 -18 4 -55v-557
q0 -29 5 -43.5t18 -22t40 -12.5l90 -8v-41h-459v41l91 10q27 4 40 11.5t18 21.5t5 43v616h-166l17 86h149v78q0 178 67 309.5t187 201t277 69.5h197l24 -12v-748q0 -45 -6 -72l6 -2q41 88 125.5 142.5t184.5 54.5q92 0 170 -46zM1315.5 70q65.5 43 103.5 129t38 209
q0 169 -70 250t-182 81q-63 0 -117 -31t-86.5 -87t-32.5 -127v-408q82 -59 199 -59q82 0 147.5 43z" />
    <glyph glyph-name="f_f_b" horiz-adv-x="2256" 
d="M2021.5 804q78.5 -46 125 -134.5t46.5 -210.5q0 -157 -64.5 -264.5t-172 -161t-236.5 -53.5q-42 0 -94 3.5t-99 7.5q-94 9 -138 9v1346l-23 10q-100 35 -192 35q-108 0 -170 -65.5t-62 -188.5v-248q0 -37 -4 -55l2 -5h260l-16 -86h-244l-2 -4q4 -18 4 -55v-557
q0 -29 5 -43.5t18 -22t41 -12.5l90 -8v-41h-459v41l90 10q27 4 40.5 11.5t18.5 22t5 42.5v616h-424l-2 -4q4 -18 4 -55v-557q0 -29 4 -43t15.5 -21.5t37.5 -13.5l84 -8v-41h-447v41l91 10q27 4 40 11.5t18 21.5t5 43v616h-166l17 86h149v54q0 152 60 270.5t156.5 184
t203.5 65.5q64 0 125 -14v-168h-19q-71 49 -116.5 70.5t-81.5 21.5q-50 0 -90 -26.5t-63 -78.5t-23 -127v-192q0 -37 -4 -55l2 -5h424v78q0 178 66.5 309.5t187 201t276.5 69.5h197l24 -12v-748q0 -45 -6 -72l6 -2q40 88 125 142.5t184 54.5q92 0 170.5 -46zM1888.5 70
q65.5 43 103.5 129t38 209q0 169 -70 250t-182 81q-63 0 -117 -31t-86.5 -87t-32.5 -127v-408q82 -59 199 -59q82 0 147.5 43z" />
    <glyph glyph-name="f_f_h" horiz-adv-x="2294" 
d="M2255 41v-41h-438v41l75 8q25 6 37 13.5t16.5 22t4.5 42.5v453q0 78 -51 118.5t-138 40.5q-99 0 -159 -52t-60 -144v-416q0 -28 4 -42t16 -22t38 -14l73 -8v-41h-436v41l90 10q39 6 51.5 21t12.5 55v1219l-25 10q-100 35 -192 35q-108 0 -170 -65.5t-62 -188.5v-248
q0 -37 -4 -55l2 -5h260l-16 -86h-244l-2 -4q4 -18 4 -55v-557q0 -29 5 -43.5t18 -22t41 -12.5l90 -8v-41h-459v41l90 10q27 4 40.5 11.5t18.5 22t5 42.5v616h-424l-2 -4q4 -18 4 -55v-557q0 -29 4 -43t15.5 -21.5t37.5 -13.5l84 -8v-41h-447v41l91 10q27 4 40 11.5t18 21.5
t5 43v616h-166l17 86h149v54q0 152 60 270.5t156.5 184t203.5 65.5q64 0 125 -14v-168h-19q-71 49 -116.5 70.5t-81.5 21.5q-50 0 -90 -26.5t-63 -78.5t-23 -127v-192q0 -37 -4 -55l2 -5h424v78q0 178 66.5 309.5t187 201t276.5 69.5h197l24 -12v-727q0 -48 -4 -72l4 -4
q43 83 126 130.5t183 47.5q116 0 183 -60t67 -169v-494q0 -28 5 -42.5t18.5 -22t40.5 -11.5z" />
    <glyph glyph-name="f_f_j" horiz-adv-x="1686" 
d="M1516 -20q0 -196 -42.5 -320t-130.5 -185.5t-229 -68.5l-8 49q130 11 194 90.5t64 239.5v899q0 37 4 55l-2 4h-426l-2 -4q4 -18 4 -55v-557q0 -29 5 -43.5t18 -21.5t41 -11l90 -10v-41h-459v41l90 10q27 4 40.5 11.5t18.5 22t5 42.5v616h-424l-2 -4q4 -18 4 -55v-557
q0 -29 4 -43t15.5 -21.5t37.5 -13.5l84 -8v-41h-447v41l91 10q27 4 40 11.5t18 21.5t5 43v616h-166l17 86h149v54q0 152 60 270.5t156.5 184t203.5 65.5q64 0 125 -14v-168h-19q-71 49 -116.5 70.5t-81.5 21.5q-50 0 -90 -26.5t-63 -78.5t-23 -127v-192q0 -37 -4 -55l2 -5
h424v78q0 179 61.5 313t162.5 204.5t216 70.5q30 0 72 -8v-164h-17q-53 33 -96 50.5t-82 17.5q-73 0 -119.5 -57t-46.5 -169v-276q0 -37 -4 -55l2 -5h576v-849zM1355 1108q-29 29 -29 72t29 71.5t72 28.5t71.5 -28.5t28.5 -71.5t-28.5 -72t-71.5 -29t-72 29z" />
    <glyph glyph-name="f_f_k" horiz-adv-x="2267" 
d="M2241 41v-41h-443v41l64 6q27 6 39.5 14.5t12.5 21.5q0 15 -22 50l-172 293l-2 14h-6l-4 -10l-156 -141l-10 -10v-152q0 -29 4 -43t16 -21.5t38 -13.5l75 -8v-41h-438v41l90 10q27 4 40.5 11.5t18.5 22t5 42.5v1219l-25 10q-100 35 -192 35q-108 0 -170 -65.5t-62 -188.5
v-248q0 -37 -4 -55l2 -5h260l-16 -86h-244l-2 -4q4 -18 4 -55v-557q0 -29 5 -43.5t18 -22t41 -12.5l90 -8v-41h-459v41l90 10q27 4 40.5 11.5t18.5 22t5 42.5v616h-424l-2 -4q4 -18 4 -55v-557q0 -29 4 -43t15.5 -21.5t37.5 -13.5l84 -8v-41h-447v41l91 10q27 4 40 11.5
t18 21.5t5 43v616h-166l17 86h149v54q0 152 60 270.5t156.5 184t203.5 65.5q64 0 125 -14v-168h-19q-71 49 -116.5 70.5t-81.5 21.5q-50 0 -90 -26.5t-63 -78.5t-23 -127v-192q0 -37 -4 -55l2 -5h424v78q0 178 66.5 309.5t187 201t276.5 69.5h197l24 -12v-1047
q0 -19 -1 -36.5t-5 -37.5l6 -2l355 353q12 14 17 22.5t5 17.5q0 24 -35 33l-61 10v41h346v-41l-43 -4q-52 -6 -90.5 -27.5t-83.5 -70.5l-119 -123l-12 -14l237 -402q34 -55 60 -75.5t65 -28.5z" />
    <glyph glyph-name="f_h" horiz-adv-x="1721" 
d="M1681 41v-41h-438v41l76 8q25 6 36.5 13.5t16 22t4.5 42.5v453q0 77 -50.5 118t-137.5 41q-99 0 -159 -52t-60 -144v-416q0 -40 10.5 -54.5t46.5 -23.5l74 -8v-41h-436v41l90 10q39 6 51 21t12 55v1219l-24 10q-102 35 -193 35q-108 0 -169.5 -65.5t-61.5 -188.5v-248
q0 -37 -4 -55l2 -5h260l-17 -86h-243l-2 -4q4 -18 4 -55v-557q0 -29 5 -43.5t18 -22t40 -12.5l90 -8v-41h-459v41l91 10q27 4 40 11.5t18 21.5t5 43v616h-166l17 86h149v78q0 178 67 309.5t187 201t277 69.5h196l25 -12v-727q0 -48 -4 -72l4 -4q42 83 125 130.5t184 47.5
q116 0 183 -60t67 -169v-494q0 -29 5 -43t18 -21.5t40 -11.5z" />
    <glyph glyph-name="f_j" horiz-adv-x="1113" 
d="M942 -20q0 -196 -42.5 -320t-130.5 -185.5t-228 -68.5l-8 49q130 11 194 90.5t64 239.5v899q0 37 4 55l-2 4h-426l-2 -4q4 -18 4 -55v-557q0 -29 5 -43t18 -21.5t40 -11.5l90 -10v-41h-459v41l91 10q27 4 40 11.5t18 21.5t5 43v616h-166l17 86h149v78q0 179 61.5 313
t162.5 204.5t216 70.5q32 0 72 -8v-164h-16q-54 34 -96.5 51t-81.5 17q-74 0 -120 -57t-46 -169v-276q0 -37 -4 -55l2 -5h575v-849zM781.5 1108q-28.5 29 -28.5 72t28.5 71.5t71.5 28.5t71.5 -28.5t28.5 -71.5t-28.5 -72t-71.5 -29t-71.5 29z" />
    <glyph glyph-name="f_k" horiz-adv-x="1694" 
d="M1667 41v-41h-442v41l63 6q28 6 40.5 14.5t12.5 21.5q0 15 -22 50l-172 293l-2 14h-6l-4 -10l-156 -141l-10 -10v-152q0 -29 4 -43t15.5 -21.5t37.5 -13.5l76 -8v-41h-438v41l90 10q27 4 40 11.5t18 21.5t5 43v1219l-24 10q-102 35 -193 35q-108 0 -169.5 -65.5
t-61.5 -188.5v-248q0 -37 -4 -55l2 -5h260l-17 -86h-243l-2 -4q4 -18 4 -55v-557q0 -29 5 -43.5t18 -22t40 -12.5l90 -8v-41h-459v41l91 10q27 4 40 11.5t18 21.5t5 43v616h-166l17 86h149v78q0 178 67 309.5t187 201t277 69.5h196l25 -12v-1047q0 -19 -1 -36.5t-5 -37.5
l6 -2l354 353q13 14 18 22.5t5 17.5q0 23 -35 33l-62 10v41h346v-41l-43 -4q-51 -6 -89.5 -27.5t-84.5 -70.5l-118 -123l-13 -14l238 -402q34 -55 60 -75.5t65 -28.5z" />
    <glyph glyph-name="s_t" horiz-adv-x="1449" 
d="M1045 743l-2 -6q4 -16 4 -53v-483q0 -68 36.5 -103t108.5 -35q93 0 156 60l21 -25q-50 -56 -109 -87t-137 -31q-111 0 -170.5 51t-59.5 147v565h-137l15 86h102q15 0 20 1v272q-94 20 -166 20q-114 0 -178.5 -48t-64.5 -128q0 -68 44 -125q22 -7 70 -26v-177h-29l-28 56
q-39 65 -92 97t-111 32q-56 0 -89.5 -27.5t-33.5 -75.5q0 -46 25 -79t62 -55.5t102 -53.5q79 -37 127 -68t82 -83t34 -128q0 -77 -36 -134t-105 -88t-164 -31q-125 0 -254 45v190h29l24 -45q43 -73 101.5 -107t126.5 -34q70 0 109.5 35.5t39.5 97.5q0 51 -26 88t-63.5 61.5
t-103.5 57.5q-76 38 -121 68t-76.5 79t-31.5 121q0 98 69.5 155.5t188.5 57.5q54 0 104 -11q-34 57 -34 126q0 74 40 128.5t116.5 83.5t181.5 29q127 0 285 -35v-282q0 -37 -4 -55l2 -5h344l-16 -86h-328z" />
    <glyph glyph-name="a.sups" horiz-adv-x="431" 
d="M65.5 861.5q-27.5 21.5 -27.5 58.5q0 48 51 76l171 89l1 3q-3 6 -3 16v86q0 54 -66 54q-38 0 -62 -17.5t-24 -43.5v-22h-74q-3 3 -3 8q0 23 30.5 48t77.5 41.5t94 16.5q104 0 104 -86v-270q0 -18 6.5 -24.5t24.5 -6.5h48v-19l-34 -16q-25 -10 -46 -10q-66 0 -69 51v12h-2
q-16 -30 -48 -48t-73 -18q-49 0 -76.5 21.5zM235.5 906.5q22.5 19.5 22.5 55.5v68q0 13 4 26l-1 2l-113 -64q-18 -12 -25.5 -24t-7.5 -29q0 -26 17 -40t46 -14q35 0 57.5 19.5z" />
    <glyph glyph-name="b.sups" horiz-adv-x="516" 
d="M153 846q-52 4 -69 4v670q0 13 -4 18t-17 6l-56 8v17l141 25l12 -6v-374q0 -23 -3 -36l3 -1q19 44 62 71t93 27q46 0 84.5 -23t62 -67.5t23.5 -105.5q0 -78 -32 -132t-85.5 -80.5t-118.5 -26.5q-34 0 -96 6zM363 913q40 49 40 141q0 84 -35 125t-90 41q-49 0 -83.5 -34.5
t-34.5 -88.5v-204q40 -29 100 -29q63 0 103 49z" />
    <glyph glyph-name="c.sups" horiz-adv-x="419" 
d="M82 895.5q-50 55.5 -50 148.5q0 70 29 122.5t77.5 80.5t107.5 28q60 0 116 -27v-82h-9q-57 42 -88.5 57t-60.5 15q-49 0 -77 -37t-28 -104q0 -92 45.5 -148t123.5 -56q37 0 63 12t52 36l12 -12q-35 -40 -76 -64.5t-98 -24.5q-89 0 -139 55.5z" />
    <glyph glyph-name="d.sups" horiz-adv-x="529" 
d="M116.5 863q-38.5 23 -61.5 67t-23 106q0 78 31.5 131.5t82.5 80.5t111 27q28 0 77 -7l24 -3l1 2q-2 9 -2 28v225q0 13 -4 18t-16 6l-57 8v17l141 25l12 -6v-671q0 -13 4 -18t17 -6l56 -8v-18l-141 -23l-12 6v52q0 23 3 36l-3 1q-20 -45 -62 -72t-93 -27q-47 0 -85.5 23z
M322 930q35 35 35 89v192q-16 18 -41.5 28.5t-56.5 10.5q-64 0 -104.5 -48.5t-40.5 -139.5q0 -85 34.5 -126t89.5 -41q49 0 84 35z" />
    <glyph glyph-name="e.sups" horiz-adv-x="444" 
d="M412 929q-34 -40 -77.5 -64.5t-103.5 -24.5q-96 0 -147.5 56.5t-51.5 150.5q0 70 28.5 122t75.5 79t100 27q66 0 111 -39t59 -102l-4 -7h-301q-2 -18 -2 -30q0 -92 46.5 -148t131.5 -56q40 0 69 12t53 36zM144 1218.5q-27 -22.5 -38 -64.5h203v3l-2 2q-10 36 -36 59
t-64 23q-36 0 -63 -22.5z" />
    <glyph glyph-name="f.sups" horiz-adv-x="359" 
d="M398 1590v-83h-9q-35 22 -62.5 32.5t-53.5 10.5q-39 0 -63.5 -30.5t-24.5 -88.5v-136q0 -14 -3 -28l1 -2h161l-8 -43h-153l-1 -3q3 -12 3 -27v-278q0 -21 5.5 -28t25.5 -9l68 -6v-21h-253v21l46 5q19 3 25 10.5t6 27.5v308h-82l8 43h74v39q0 90 31 157t82 102t110 35
q33 0 67 -8z" />
    <glyph glyph-name="g.sups" horiz-adv-x="485" 
d="M445 839.5q27 -28.5 27 -79.5q0 -58 -31.5 -105t-87.5 -74.5t-126 -27.5q-57 0 -97.5 18t-61 47t-20.5 62q0 69 84 121q-47 7 -69.5 30t-22.5 55q0 34 26 55.5t79 28.5v4q-45 17 -72.5 56t-27.5 89q0 45 24 80.5t65 55.5t89 20q32 0 62 -10h188l-8 -43h-107v-4
q21 -16 32.5 -42t11.5 -57q0 -45 -24.5 -82.5t-65.5 -59t-89 -21.5q-68 0 -97.5 -11.5t-29.5 -33.5t26.5 -32.5t91.5 -10.5h151q53 0 80 -28.5zM151.5 1017q25.5 -36 71.5 -36t71.5 36t25.5 102q0 65 -25.5 98.5t-71.5 33.5t-71.5 -33.5t-25.5 -98.5q0 -66 25.5 -102z
M373.5 625.5q43.5 40.5 43.5 101.5q0 37 -16 54t-53 17h-191q-20 -22 -30 -43.5t-10 -47.5q0 -55 33.5 -88.5t103.5 -33.5q76 0 119.5 40.5z" />
    <glyph glyph-name="h.sups" horiz-adv-x="560" 
d="M101 886.5q6 7.5 6 27.5v606q0 13 -4 18t-16 6l-57 8v17l142 25l12 -6v-364q0 -16 -3 -36l2 -2q22 42 63.5 65.5t91.5 23.5q58 0 91.5 -30t33.5 -85v-246q0 -21 6 -28t26 -10l45 -5v-21h-219v21l37 4q19 5 24 11.5t5 27.5v226q0 39 -25.5 59.5t-68.5 20.5q-49 0 -79 -26
t-30 -72v-208q0 -20 5 -27.5t23 -11.5l37 -4v-21h-219v21l46 5q19 3 25 10.5z" />
    <glyph glyph-name="i.sups" horiz-adv-x="280" 
d="M104 1404q-14 14 -14 36t14 36t36 14q21 0 35.5 -14t14.5 -36t-14.5 -36t-35.5 -14q-22 0 -36 14zM102 886.5q6 7.5 6 27.5v283q0 13 -4 18t-17 7l-56 7v18l140 24l13 -6v-351q0 -20 6 -27.5t25 -10.5l45 -5v-21h-229v21l45 5q20 3 26 10.5z" />
    <glyph glyph-name="j.sups" horiz-adv-x="269" 
d="M104.5 1404q-14.5 14 -14.5 36t14.5 36t35.5 14q22 0 36 -14t14 -36t-14 -36t-36 -14q-21 0 -35.5 14zM77 623q32 40 32 120v454q0 13 -4 18t-17 7l-56 7v18l140 24l13 -6v-425q0 -146 -48 -214t-154 -73l-4 25q66 5 98 45z" />
    <glyph glyph-name="k.sups" horiz-adv-x="546" 
d="M102 886.5q6 7.5 6 27.5v606q0 13 -4 18t-16 6l-57 8v17l142 25l12 -6v-524q0 -15 -3 -36l3 -2l177 177q11 11 11 20q0 12 -17 17l-31 4v21h173v-21l-21 -1q-26 -4 -45.5 -15t-42.5 -35l-59 -61l-7 -8l120 -200q17 -28 30 -38.5t32 -13.5l28 -1v-21h-221v21l33 3
q26 6 26 18q0 8 -11 25l-86 146l-1 7h-3l-2 -4l-78 -72l-5 -4v-76q0 -20 5 -27.5t23 -11.5l38 -4v-21h-220v21l46 5q19 3 25 10.5z" />
    <glyph glyph-name="l.sups" horiz-adv-x="330" 
d="M133 886.5q6 7.5 6 27.5v606q0 13 -4 18t-16 6l-57 8v17l142 25l12 -6v-674q0 -20 6 -27.5t25 -10.5l46 -5v-21h-231v21l46 5q19 3 25 10.5z" />
    <glyph glyph-name="m.sups" horiz-adv-x="839" 
d="M101 886.5q6 7.5 6 27.5v283q0 13 -3.5 18t-16.5 7l-57 7v18l142 24l12 -5v-42q0 -16 -3 -36l3 -2q22 42 63 65.5t91 23.5q51 0 83.5 -23.5t37.5 -66.5h2q22 42 64 66t92 24q59 0 92.5 -30t33.5 -85v-246q0 -20 6 -27.5t25 -10.5l45 -5v-21h-218v21l37 4q18 4 23 11.5
t5 27.5v226q0 39 -25 59.5t-68 20.5q-49 0 -79.5 -26t-30.5 -72v-208q0 -21 5.5 -27.5t23.5 -11.5l36 -4v-21h-207v21l37 4q18 5 23.5 12t5.5 27v226q0 39 -25.5 59.5t-68.5 20.5q-49 0 -79 -26t-30 -72v-208q0 -20 5 -27.5t23 -11.5l37 -4v-21h-219v21l46 5q19 3 25 10.5z
" />
    <glyph glyph-name="n.sups" horiz-adv-x="561" 
d="M102 886.5q6 7.5 6 27.5v283q0 13 -3.5 18t-16.5 7l-57 7v18l142 24l12 -6v-41q0 -16 -3 -36l2 -2q22 42 63.5 65.5t91.5 23.5q58 0 91.5 -30t33.5 -85v-246q0 -21 6 -28t26 -10l45 -5v-21h-218v21l36 4q19 5 24 11.5t5 27.5v226q0 39 -25.5 59.5t-68.5 20.5
q-49 0 -79 -26t-30 -72v-208q0 -20 5 -27.5t23 -11.5l37 -4v-21h-219v21l46 5q19 3 25 10.5z" />
    <glyph glyph-name="o.sups" horiz-adv-x="542" 
d="M170.5 865.5q-47.5 25.5 -77.5 75.5t-30 119q0 66 30 115t77.5 74.5t100.5 25.5q54 0 102 -25.5t77.5 -74t29.5 -115.5q0 -69 -29.5 -119t-77.5 -75.5t-102 -25.5q-53 0 -100.5 25.5zM359 911.5q36 47.5 36 148.5q0 99 -36 145t-88 46t-87.5 -46t-35.5 -145
q0 -101 35.5 -148.5t87.5 -47.5t88 47.5z" />
    <glyph glyph-name="p.sups" horiz-adv-x="534" 
d="M416.5 1251.5q38.5 -23.5 61.5 -69t23 -108.5q0 -75 -31.5 -128t-83.5 -79.5t-113 -26.5q-31 0 -62 5t-36 6v-224q0 -20 6 -27.5t26 -10.5l45 -5v-20h-230v20l46 5q19 3 25 10.5t6 27.5v570q0 13 -3.5 18t-16.5 7l-57 7v18l141 24l12 -6v-45q0 -23 -3 -36l3 -1
q22 41 64 66.5t92 25.5q47 0 85.5 -23.5zM378.5 913.5q40.5 49.5 40.5 140.5q0 85 -34.5 125.5t-88.5 40.5q-48 0 -81 -29.5t-40 -75.5v-206q17 -21 43 -33t58 -12q62 0 102.5 49.5z" />
    <glyph glyph-name="q.sups" horiz-adv-x="527" 
d="M351 599.5q6 7.5 6 28.5v273q0 24 3 36l-3 2q-20 -45 -62 -72t-93 -27q-47 0 -85.5 23t-61.5 67t-23 106q0 78 31.5 131.5t82.5 80.5t111 27q29 0 83 -9q36 -6 47 -6q18 0 28 10h18v-642q0 -21 6 -28.5t25 -10.5l44 -5v-20h-240v20l57 5q20 3 26 10.5zM322 929.5
q35 34.5 35 89.5v205q-44 26 -97 26q-65 0 -105.5 -48.5t-40.5 -139.5q0 -86 34.5 -126.5t89.5 -40.5q49 0 84 34.5z" />
    <glyph glyph-name="r.sups" horiz-adv-x="430" 
d="M133 886.5q6 7.5 6 27.5v283q0 13 -3.5 18t-16.5 7l-57 7v18l142 24l12 -6v-46q0 -16 -3 -36l3 -1q20 41 52.5 67t69.5 26q16 0 36 -5v-65l-6 -6q-30 10 -56 10q-39 0 -67.5 -24t-28.5 -65v-206q0 -20 6 -27.5t25 -9.5l67 -6v-21h-252v21l46 5q19 3 25 10.5z" />
    <glyph glyph-name="s.sups" horiz-adv-x="447" 
d="M88 862v96h15l11 -23q43 -70 114 -70q36 0 55.5 17.5t19.5 49.5q0 26 -13 44t-32 30t-52 29q-38 19 -60 34t-38 39.5t-16 59.5q0 49 35 78t95 29q56 0 121 -27v-88h-15l-13 27q-19 33 -45.5 48.5t-56.5 15.5q-27 0 -44 -13.5t-17 -37.5q0 -33 23.5 -52.5t70.5 -41.5
q40 -19 64 -34.5t41 -41t17 -63.5q0 -59 -40 -93t-112 -34q-55 0 -128 22z" />
    <glyph glyph-name="t.sups" horiz-adv-x="368" 
d="M166 1222l-1 -3q2 -8 2 -27v-242q0 -33 18.5 -50.5t54.5 -17.5q46 0 78 30l10 -12q-50 -60 -123 -60q-55 0 -84.5 25.5t-29.5 73.5v283h-69l7 43h51q12 0 17 3.5t9 13.5l42 93l19 -4v-76q0 -19 -2 -28l1 -2h172l-8 -43h-164z" />
    <glyph glyph-name="u.sups" horiz-adv-x="536" 
d="M126.5 867q-30.5 27 -30.5 77v253q0 13 -4 18t-17 7l-56 7v18l141 24l12 -6v-298q0 -34 23.5 -53t63.5 -19q45 0 74.5 26.5t29.5 71.5v204q0 13 -3.5 18t-16.5 7l-56 7v18l141 24l12 -6v-346q0 -14 3.5 -19t16.5 -6l56 -8v-18l-141 -24l-12 6v41q0 17 3 36l-3 2
q-22 -42 -62 -65.5t-88 -23.5q-56 0 -86.5 27z" />
    <glyph glyph-name="v.sups" horiz-adv-x="456" 
d="M45 1234q-7 7 -21 9l-22 1v21h206v-21l-47 -6q-11 -2 -16 -6.5t-5 -13.5t4 -18l108 -288h2l110 288q4 9 4 17q0 16 -21 21l-48 6v21h154v-21l-23 -1q-14 -2 -20.5 -8.5t-14.5 -23.5l-137 -361h-65l-134 360q-7 17 -14 24z" />
    <glyph glyph-name="w.sups" horiz-adv-x="730" 
d="M48 1234q-8 7 -23 9l-22 1v21h206v-21l-41 -6q-27 -4 -27 -22q0 -5 3 -13l104 -288h1l123 350h43l124 -350h1l99 286q3 9 3 16q0 17 -21 21l-48 6v21h155v-21l-23 -1q-14 -2 -21 -8.5t-14 -23.5l-126 -361h-65l-111 309l-1 6h-3l-1 -5l-110 -310h-66l-124 358
q-7 19 -15 26z" />
    <glyph glyph-name="x.sups" horiz-adv-x="502" 
d="M84.5 886.5q16.5 10.5 37.5 37.5l89 130l-89 136q-20 27 -35.5 38t-40.5 14l-30 2v21h224v-21l-34 -3q-11 -2 -15 -5t-4 -7t9 -18l79 -117v-3h3l1 2l85 122q6 8 6 13q0 9 -23 13l-33 3v21h171v-21l-30 -2q-25 -3 -41 -12.5t-32 -32.5l-90 -129l92 -143q21 -28 36 -38.5
t39 -13.5l29 -2v-21h-223v21l34 3q20 4 20 12q0 6 -8 17l-83 125v3h-3l-1 -2l-84 -123q-11 -14 -11 -20q0 -8 22 -12l33 -3v-21h-170v21l29 2q25 3 41.5 13.5z" />
    <glyph glyph-name="y.sups" horiz-adv-x="457" 
d="M454 1265v-21l-26 -2q-15 -2 -23 -8.5t-14 -22.5l-179 -500q-31 -83 -71.5 -120.5t-105.5 -37.5q-25 0 -43 6v66l1 2q30 -10 68 -10q48 0 77 22.5t52 83.5l29 84l-159 404q-7 16 -15 22.5t-23 8.5l-26 2v21h209v-21l-42 -4q-12 -3 -17 -7t-5 -10q0 -8 6 -20l107 -278
l1 -6h3l2 6l99 276q6 14 6 21t-5.5 11t-18.5 7l-41 4v21h154z" />
    <glyph glyph-name="z.sups" horiz-adv-x="443" 
d="M288 1239v3h-102q-25 0 -37 -5.5t-23 -22.5l-33 -52h-14l3 103h290v-16l-208 -368l-7 -5v-3h106q27 0 40 6.5t25 25.5l33 50h14l-4 -105h-298v15l208 369z" />
    <glyph glyph-name="zero.lf" 
d="M311.5 74q-108.5 94 -168 257t-59.5 363q0 205 59.5 366t167.5 252t248 91t248 -91t167.5 -252t59.5 -366q0 -200 -59.5 -363t-168 -257t-247.5 -94t-247.5 94zM854 694q0 321 -70 490.5t-225 169.5q-156 0 -226.5 -169.5t-70.5 -490.5q0 -315 71 -490t226 -175
q295 0 295 665z" />
    <glyph glyph-name="one.lf" horiz-adv-x="693" 
d="M201 51q40 6 52.5 21.5t12.5 58.5v1118q0 27 -7.5 37t-33.5 14l-116 15v33l299 51l26 -4v-1264q0 -30 5 -45t18.5 -23t42.5 -12l90 -10v-41h-481v41z" />
    <glyph glyph-name="two.lf" 
d="M539.5 453.5q146.5 180.5 199 315.5t52.5 271q0 141 -71 211t-204 70q-159 0 -243.5 -99.5t-86.5 -283.5h-49q0 229 107.5 347t318.5 118q127 0 218.5 -42t139.5 -121t48 -189q0 -140 -67.5 -275t-203 -283.5t-364.5 -351.5v-8h528q32 0 46.5 12t23.5 43l26 111l39 -4
l-4 -295h-872v29q272 244 418.5 424.5z" />
    <glyph glyph-name="three.lf" horiz-adv-x="1201" 
d="M260.5 75q-119.5 95 -164.5 257l164 71l4 -2q25 -181 98 -275.5t213 -94.5q137 0 205 99.5t68 283.5q0 172 -79.5 250.5t-258.5 78.5h-100v54h53q167 0 242 72t75 210q0 117 -63.5 181.5t-194.5 64.5q-147 0 -226 -77t-79 -212h-49q0 110 43.5 192.5t132 128.5t219.5 46
q126 0 215 -39t134.5 -106t45.5 -150q1 -83 -36.5 -148t-102 -106t-141.5 -57v-9q104 -11 183 -57.5t123 -127t44 -191.5q0 -129 -56.5 -226.5t-159.5 -151.5t-237 -54q-195 0 -314.5 95z" />
    <glyph glyph-name="four.lf" 
d="M672 394q2 12 12 24l-4 4h-619l-10 82l664 889h119v-768q0 -27 -2 -39t-11 -25l2 -4h234l-21 -135h-213l-2 -4q9 -12 11 -24t2 -38v-356h-164v356q0 26 2 38zM684 561q-10 13 -12 25t-2 39v616h-4l-498 -680l2 -4h510z" />
    <glyph glyph-name="five.lf" 
d="M834 846.5q90 -50.5 138 -147t48 -232.5q0 -153 -58 -263t-161.5 -167t-237.5 -57q-197 0 -311.5 96t-159.5 256l162 71l4 -2q18 -126 52.5 -207t95.5 -123t157 -42q140 0 208.5 108t68.5 314q0 184 -69 275t-212 91q-115 0 -195 -52t-137 -142l-37 4l72 755h660
l-23 -133h-601l-50 -512h4q60 68 150 114t216 46t216 -50.5z" />
    <glyph glyph-name="six.lf" 
d="M850.5 783.5q89.5 -50.5 136.5 -143t47 -216.5q0 -132 -54.5 -233t-158.5 -157.5t-248 -56.5q-151 0 -260 67t-167 191t-58 291q0 219 88 400t250 303t379 170l14 -43q-247 -82 -383.5 -259t-163.5 -425h9q51 68 138 115t218 47q124 0 213.5 -50.5zM786.5 124
q67.5 97 67.5 273q0 178 -69.5 271.5t-206.5 93.5q-178 0 -308 -162q1 -198 33 -323.5t99.5 -187.5t177.5 -62q139 0 206.5 97z" />
    <glyph glyph-name="seven.lf" 
d="M471 514.5q45 212.5 143 381.5t269 347v6h-625q-31 0 -49.5 -12.5t-34.5 -42.5l-57 -111l-37 4l53 330h41l27 -35h854v-26l-140 -137q-139 -154 -203 -315t-81 -356t-17 -548h-188q0 302 45 514.5z" />
    <glyph glyph-name="eight.lf" 
d="M850 676.5q71 -50.5 117.5 -126.5t46.5 -181q0 -116 -49.5 -203.5t-151.5 -136.5t-252 -49q-149 0 -252 44t-154 122t-51 178q0 130 87 223t257 165q-86 46 -146 94t-97 116t-37 161q0 96 46 168.5t136.5 112t218.5 39.5q120 0 209 -37t136 -102t47 -146q0 -100 -70 -183
t-219 -154q107 -54 178 -104.5zM344.5 996.5q43.5 -59.5 108 -99.5t175.5 -95q101 57 141 131t40 173q0 115 -64 181.5t-190 66.5q-125 0 -189.5 -58.5t-64.5 -158.5q0 -81 43.5 -140.5zM737 64.5q66 33.5 100.5 94t34.5 140.5q0 94 -45.5 160t-112 109.5t-180.5 99.5
l-40 20q-111 -66 -167.5 -145.5t-56.5 -190.5q0 -154 75 -237.5t235 -83.5q91 0 157 33.5z" />
    <glyph glyph-name="nine.lf" 
d="M805 1336q109 -67 167 -191t58 -291q0 -219 -88 -399.5t-250 -302.5t-379 -170l-14 43q248 81 384.5 258t162.5 426h-8q-52 -68 -139 -115t-218 -47q-124 0 -213.5 50.5t-136.5 142.5t-47 216q0 132 54.5 233t158.5 157.5t248 56.5q151 0 260 -67zM848 780
q-1 198 -33 324t-99.5 188t-176.5 62q-139 0 -207 -97.5t-68 -273.5q0 -178 69.5 -271.5t207.5 -93.5q177 0 307 162z" />
    <glyph glyph-name="zero.osf" horiz-adv-x="987" 
d="M266.5 34q-97.5 54 -150.5 153.5t-53 232.5q0 126 53 224t151 152t229 54t228 -54t149 -151.5t52 -224.5q0 -133 -52 -232.5t-148.5 -153.5t-228.5 -54t-229.5 54zM730 166q82 92 82 254q0 100 -36.5 176t-107.5 118t-172 42q-103 0 -175 -42t-109 -118t-37 -176
q0 -162 83 -254t238 -92q152 0 234 92z" />
    <glyph glyph-name="one.osf" horiz-adv-x="693" 
d="M200 51q29 5 42.5 12.5t18.5 22t5 44.5v567q0 27 -8 36.5t-33 13.5l-117 16v32l300 51l26 -17v-699q0 -30 5 -44.5t18.5 -22t41.5 -12.5l92 -11v-40h-483v40z" />
    <glyph glyph-name="two.osf" horiz-adv-x="987" 
d="M432.5 239q110.5 92 155.5 171.5t45 169.5q0 95 -49.5 145.5t-143.5 50.5q-119 0 -184.5 -79t-65.5 -214h-49q0 176 92.5 271.5t265.5 95.5q152 0 232.5 -65t80.5 -178q0 -86 -48.5 -162t-148.5 -150t-261 -156v-5h388q32 0 46 11.5t22 43.5l29 111l37 -5l-3 -295h-751
v25q200 122 310.5 214z" />
    <glyph glyph-name="three.osf" 
d="M260.5 -477.5q-119.5 95.5 -164.5 256.5l164 72l4 -2q25 -181 98 -276t213 -95q137 0 205 99.5t68 283.5q0 172 -79.5 251t-258.5 79h-100v53h53q167 0 242 72.5t75 210.5q0 116 -63.5 181t-194.5 65q-147 0 -226 -77t-79 -212h-49q0 110 43 192t131.5 128t220.5 46
q126 0 215 -39t134.5 -106t45.5 -149q1 -84 -36.5 -149t-101.5 -106t-142 -57v-8q104 -11 183 -57.5t123 -127.5t44 -192q0 -129 -56.5 -226.5t-159.5 -151.5t-237 -54q-195 0 -314.5 95.5z" />
    <glyph glyph-name="four.osf" 
d="M673 -29q2 12 11 24l-3 5h-619l-10 78l686 762h97v-639q0 -25 -2 -37.5t-11 -24.5l3 -5h231l-20 -134h-211l-3 -5q9 -12 11 -24t2 -37v-507h-164v507q0 25 2 37zM684 139q-9 12 -11 24t-2 38v491h-6l-469 -553l1 -5h484z" />
    <glyph glyph-name="five.osf" 
d="M834 293.5q90 -50.5 138 -147t48 -232.5q0 -153 -58 -263t-161.5 -167t-237.5 -57q-197 0 -311.5 96t-159.5 256l162 71l4 -2q18 -126 52.5 -207t95.5 -123t157 -42q140 0 208.5 108t68.5 314q0 184 -69 275t-212 91q-115 0 -195 -52t-137 -142l-37 4l72 755h660
l-23 -133h-601l-50 -512h4q60 68 150 114t216 46t216 -50.5z" />
    <glyph glyph-name="six.osf" 
d="M850.5 783.5q89.5 -50.5 136.5 -143t47 -216.5q0 -132 -54.5 -233t-158.5 -157.5t-248 -56.5q-151 0 -260 67t-167 191t-58 291q0 219 88 400t250 303t379 170l14 -43q-247 -82 -383.5 -259t-163.5 -425h9q51 68 138 115t218 47q124 0 213.5 -50.5zM786.5 124
q67.5 97 67.5 273q0 178 -69.5 271.5t-206.5 93.5q-178 0 -308 -162q1 -198 33 -323.5t99.5 -187.5t177.5 -62q139 0 206.5 97z" />
    <glyph glyph-name="seven.osf" 
d="M471 -38.5q45 212.5 143 381.5t269 347v6h-625q-31 0 -49.5 -12.5t-34.5 -42.5l-57 -111l-37 5l53 329h41l27 -35h854v-26l-140 -137q-139 -154 -203 -315t-81 -356t-17 -548h-188q0 302 45 514.5z" />
    <glyph glyph-name="eight.osf" 
d="M850 676.5q71 -50.5 117.5 -126.5t46.5 -181q0 -116 -49.5 -203.5t-151.5 -136.5t-252 -49q-149 0 -252 44t-154 122t-51 178q0 130 87 223t257 165q-86 46 -146 94t-97 116t-37 161q0 96 46 168.5t136.5 112t218.5 39.5q120 0 209 -37t136 -102t47 -146q0 -100 -70 -183
t-219 -154q107 -54 178 -104.5zM344.5 996.5q43.5 -59.5 108 -99.5t175.5 -95q101 57 141 131t40 173q0 115 -64 181.5t-190 66.5q-125 0 -189.5 -58.5t-64.5 -158.5q0 -81 43.5 -140.5zM737 64.5q66 33.5 100.5 94t34.5 140.5q0 94 -45.5 160t-112 109.5t-180.5 99.5
l-40 20q-111 -66 -167.5 -145.5t-56.5 -190.5q0 -154 75 -237.5t235 -83.5q91 0 157 33.5z" />
    <glyph glyph-name="nine.osf" 
d="M805 785q109 -67 167 -191t58 -291q0 -219 -88 -399.5t-250 -302.5t-379 -170l-14 43q248 82 384.5 259t162.5 425h-8q-52 -68 -139 -115t-218 -47q-124 0 -213.5 50.5t-136.5 143t-47 216.5q0 131 54.5 232t158.5 157.5t248 56.5q151 0 260 -67zM848 229q-1 198 -33 324
t-99.5 188t-176.5 62q-139 0 -207 -97.5t-68 -273.5q0 -178 69.5 -271t207.5 -93q177 0 307 161z" />
    <glyph glyph-name="zero.tf" 
d="M311.5 74q-108.5 94 -168 257t-59.5 363q0 205 59.5 366t167.5 252t248 91t248 -91t167.5 -252t59.5 -366q0 -200 -59.5 -363t-168 -257t-247.5 -94t-247.5 94zM854 694q0 321 -70 490.5t-225 169.5q-156 0 -226.5 -169.5t-70.5 -490.5q0 -315 71 -490t226 -175
q295 0 295 665z" />
    <glyph glyph-name="one.tf" 
d="M410 51q40 6 52.5 21.5t12.5 58.5v1118q0 27 -7.5 37t-33.5 14l-116 15v33l299 51l26 -4v-1264q0 -30 5 -45t18.5 -23t42.5 -12l90 -10v-41h-481v41z" />
    <glyph glyph-name="two.tf" 
d="M539.5 453.5q146.5 180.5 199 315.5t52.5 271q0 141 -71 211t-204 70q-159 0 -243.5 -99.5t-86.5 -283.5h-49q0 229 107.5 347t318.5 118q127 0 218.5 -42t139.5 -121t48 -189q0 -140 -67.5 -275t-203 -283.5t-364.5 -351.5v-8h528q32 0 46.5 12t23.5 43l26 111l39 -4
l-4 -295h-872v29q272 244 418.5 424.5z" />
    <glyph glyph-name="three.tf" 
d="M260.5 75q-119.5 95 -164.5 257l164 71l4 -2q25 -181 98 -275.5t213 -94.5q137 0 205 99.5t68 283.5q0 172 -79.5 250.5t-258.5 78.5h-100v54h53q167 0 242 72t75 210q0 117 -63.5 181.5t-194.5 64.5q-147 0 -226 -77t-79 -212h-49q0 110 43.5 192.5t132 128.5t219.5 46
q126 0 215 -39t134.5 -106t45.5 -150q1 -83 -36.5 -148t-102 -106t-141.5 -57v-9q104 -11 183 -57.5t123 -127t44 -191.5q0 -129 -56.5 -226.5t-159.5 -151.5t-237 -54q-195 0 -314.5 95z" />
    <glyph glyph-name="four.tf" 
d="M672 394q2 12 12 24l-4 4h-619l-10 82l664 889h119v-768q0 -27 -2 -39t-11 -25l2 -4h234l-21 -135h-213l-2 -4q9 -12 11 -24t2 -38v-356h-164v356q0 26 2 38zM684 561q-10 13 -12 25t-2 39v616h-4l-498 -680l2 -4h510z" />
    <glyph glyph-name="five.tf" 
d="M834 846.5q90 -50.5 138 -147t48 -232.5q0 -153 -58 -263t-161.5 -167t-237.5 -57q-197 0 -311.5 96t-159.5 256l162 71l4 -2q18 -126 52.5 -207t95.5 -123t157 -42q140 0 208.5 108t68.5 314q0 184 -69 275t-212 91q-115 0 -195 -52t-137 -142l-37 4l72 755h660
l-23 -133h-601l-50 -512h4q60 68 150 114t216 46t216 -50.5z" />
    <glyph glyph-name="six.tf" 
d="M850.5 783.5q89.5 -50.5 136.5 -143t47 -216.5q0 -132 -54.5 -233t-158.5 -157.5t-248 -56.5q-151 0 -260 67t-167 191t-58 291q0 219 88 400t250 303t379 170l14 -43q-247 -82 -383.5 -259t-163.5 -425h9q51 68 138 115t218 47q124 0 213.5 -50.5zM786.5 124
q67.5 97 67.5 273q0 178 -69.5 271.5t-206.5 93.5q-178 0 -308 -162q1 -198 33 -323.5t99.5 -187.5t177.5 -62q139 0 206.5 97z" />
    <glyph glyph-name="seven.tf" 
d="M471 514.5q45 212.5 143 381.5t269 347v6h-625q-31 0 -49.5 -12.5t-34.5 -42.5l-57 -111l-37 4l53 330h41l27 -35h854v-26l-140 -137q-139 -154 -203 -315t-81 -356t-17 -548h-188q0 302 45 514.5z" />
    <glyph glyph-name="eight.tf" 
d="M850 676.5q71 -50.5 117.5 -126.5t46.5 -181q0 -116 -49.5 -203.5t-151.5 -136.5t-252 -49q-149 0 -252 44t-154 122t-51 178q0 130 87 223t257 165q-86 46 -146 94t-97 116t-37 161q0 96 46 168.5t136.5 112t218.5 39.5q120 0 209 -37t136 -102t47 -146q0 -100 -70 -183
t-219 -154q107 -54 178 -104.5zM344.5 996.5q43.5 -59.5 108 -99.5t175.5 -95q101 57 141 131t40 173q0 115 -64 181.5t-190 66.5q-125 0 -189.5 -58.5t-64.5 -158.5q0 -81 43.5 -140.5zM737 64.5q66 33.5 100.5 94t34.5 140.5q0 94 -45.5 160t-112 109.5t-180.5 99.5
l-40 20q-111 -66 -167.5 -145.5t-56.5 -190.5q0 -154 75 -237.5t235 -83.5q91 0 157 33.5z" />
    <glyph glyph-name="nine.tf" 
d="M805 1336q109 -67 167 -191t58 -291q0 -219 -88 -399.5t-250 -302.5t-379 -170l-14 43q248 81 384.5 258t162.5 426h-8q-52 -68 -139 -115t-218 -47q-124 0 -213.5 50.5t-136.5 142.5t-47 216q0 132 54.5 233t158.5 157.5t248 56.5q151 0 260 -67zM848 780
q-1 198 -33 324t-99.5 188t-176.5 62q-139 0 -207 -97.5t-68 -273.5q0 -178 69.5 -271.5t207.5 -93.5q177 0 307 162z" />
    <glyph glyph-name="zero.tosf" 
d="M331.5 34q-97.5 54 -150 153.5t-52.5 232.5q0 127 52.5 224.5t150.5 151.5t229 54t228.5 -54t149.5 -151.5t52 -224.5q0 -133 -52 -232.5t-149 -153.5t-229 -54t-229.5 54zM795.5 166q81.5 92 81.5 254q0 100 -36.5 176t-107.5 118t-172 42q-102 0 -174.5 -42
t-109.5 -118t-37 -176q0 -162 83 -254t238 -92q153 0 234.5 92z" />
    <glyph glyph-name="one.tosf" 
d="M410 51q40 6 52.5 21.5t12.5 58.5v565q0 27 -7.5 37t-33.5 15l-116 14v33l299 51l26 -17v-698q0 -30 5 -45t18.5 -23t42.5 -12l90 -10v-41h-481v41z" />
    <glyph glyph-name="two.tosf" 
d="M493 239q110 92 155 171.5t45 169.5q0 95 -49 145.5t-143 50.5q-119 0 -184.5 -79t-65.5 -214h-49q0 176 92 271.5t266 95.5q152 0 231.5 -64.5t79.5 -179.5q0 -86 -48 -161.5t-147.5 -149t-260.5 -156.5v-6h387q32 0 46.5 12t22.5 43l29 111l37 -4l-4 -295h-750v25
q200 122 310 214z" />
    <glyph glyph-name="three.tosf" 
d="M260.5 -478q-119.5 95 -164.5 257l164 71l4 -2q25 -181 98 -275.5t213 -94.5q137 0 205 99.5t68 283.5q0 172 -79.5 250.5t-258.5 78.5h-100v54h53q167 0 242 72t75 210q0 117 -63.5 181.5t-194.5 64.5q-147 0 -226 -77t-79 -212h-49q0 110 43.5 192.5t132 128.5
t219.5 46q126 0 215 -39t134.5 -106t45.5 -150q1 -83 -36.5 -148t-102 -106t-141.5 -57v-8q104 -12 183 -58.5t123 -127t44 -191.5q0 -129 -56.5 -226.5t-159.5 -151.5t-237 -54q-195 0 -314.5 95z" />
    <glyph glyph-name="four.tosf" 
d="M674 -29q2 12 10 25l-2 4h-621l-10 78l686 762h99v-639q0 -25 -2.5 -37t-12.5 -25l4 -6h232l-21 -133h-211l-4 -4q10 -13 12.5 -25t2.5 -37v-507h-164v507q0 25 2 37zM684 139q-8 13 -10 25t-2 37v491h-6l-469 -553v-6h485z" />
    <glyph glyph-name="five.tosf" 
d="M834 293.5q90 -50.5 138 -147t48 -232.5q0 -153 -58 -263t-161.5 -167t-237.5 -57q-197 0 -311.5 96t-159.5 256l162 71l4 -2q18 -126 52.5 -207t95.5 -123t157 -42q140 0 208.5 108t68.5 314q0 184 -69 275t-212 91q-115 0 -195 -52t-137 -142l-37 4l72 755h660
l-23 -133h-601l-50 -512h4q60 68 150 114t216 46t216 -50.5z" />
    <glyph glyph-name="six.tosf" 
d="M850.5 783.5q89.5 -50.5 136.5 -143t47 -216.5q0 -132 -54.5 -233t-158.5 -157.5t-248 -56.5q-151 0 -260 67t-167 191t-58 291q0 219 88 400t250 303t379 170l14 -43q-247 -82 -383.5 -259t-163.5 -425h9q51 68 138 115t218 47q124 0 213.5 -50.5zM786.5 124
q67.5 97 67.5 273q0 178 -69.5 271.5t-206.5 93.5q-178 0 -308 -162q1 -198 33 -323.5t99.5 -187.5t177.5 -62q139 0 206.5 97z" />
    <glyph glyph-name="seven.tosf" 
d="M471 -38.5q45 212.5 143 381.5t269 347v6h-625q-31 0 -49.5 -12.5t-34.5 -42.5l-57 -111l-37 5l53 329h41l27 -35h854v-26l-140 -137q-139 -154 -203 -315t-81 -356t-17 -548h-188q0 302 45 514.5z" />
    </font>
</defs>
</svg>
